<?xml version="1.0" encoding="utf-8"?>
<!-- Generator: Adobe Illustrator 27.0.0, SVG Export Plug-In . SVG Version: 6.00 Build 0)  -->
<svg version="1.1" id="레이어_1" xmlns="http://www.w3.org/2000/svg" xmlns:xlink="http://www.w3.org/1999/xlink" x="0px"
	 y="0px" viewBox="0 0 500 500" style="enable-background:new 0 0 500 500;" xml:space="preserve">
<style type="text/css">
	.st0{fill:#F19EC2;}
	.st1{fill:#E45E87;}
	.st2{filter:url(#Adobe_OpacityMaskFilter);}
	.st3{mask:url(#SVGID_1_);}
	.st4{fill:#CA5389;}
	.st5{filter:url(#Adobe_OpacityMaskFilter_00000093159002666524476870000015784880689062692520_);}
	.st6{mask:url(#SVGID_00000135681177857154473020000001733738215343830929_);}
	.st7{opacity:0.3;}
</style>
<g>
	<g>
		
			<image style="overflow:visible;opacity:0.3;" width="2061" height="2048" xlink:href="A3081383.png"  transform="matrix(0.24 0 0 0.24 9.96 12.84)">
		</image>
		<g>
			<ellipse class="st0" cx="250.3" cy="251.6" rx="232.2" ry="230.7"/>
		</g>
	</g>
	<g>
		<g>
			<circle class="st1" cx="250" cy="253.8" r="177.4"/>
		</g>
		<defs>
			<filter id="Adobe_OpacityMaskFilter" filterUnits="userSpaceOnUse" x="72.6" y="76.4" width="354.8" height="354.8">
				
					<feColorMatrix  type="matrix" values="-1 0 0 0 1  0 -1 0 0 1  0 0 -1 0 1  0 0 0 1 0" color-interpolation-filters="sRGB" result="source"/>
			</filter>
		</defs>
		<mask maskUnits="userSpaceOnUse" x="72.6" y="76.4" width="354.8" height="354.8" id="SVGID_1_">
			<g class="st2">
				
					<image style="overflow:visible;" width="1496" height="1496" xlink:href="A3081381.jpg"  transform="matrix(0.24 0 0 0.24 70.56 74.4)">
				</image>
			</g>
		</mask>
		<g class="st3">
			<circle class="st4" cx="250" cy="253.8" r="177.4"/>
		</g>
	</g>
	<g>
		<g>
			<path class="st0" d="M361.3,226.8c8.7-19.2,13.2-56.2-4.6-67c-19.5-11.8-39.9,3-59.3,13.6c-14.2-5.4-30.1-8.5-47.3-8.4
				c-17.1-0.1-32.7,2.9-46.8,8.2c-19.4-10.6-39.6-25.2-59-13.4c-17.5,10.6-13.4,46.8-5,66.1c-17.3,27.9-22.8,60.4-13.7,86.2
				c20.3,57.3,124.5,56,124.5,56s104.2,1.3,124.5-56C383.5,286.6,378.2,254.5,361.3,226.8z M291.7,315.9c-0.9,3.1-2.7,5.7-5.3,7.8
				c-4.2,3.4-9.2,5.8-15.1,7.4c-5.9,1.5-11.7,2.3-17.5,2.3c-6.5,0-12.8-0.8-19-2.5c-6.2-1.7-11.7-4.4-16.5-8.1
				c-4.8-3.7-8.7-8.5-11.6-14.3c-2.9-5.8-4.4-12.9-4.4-21.1v-31.1c0-8.3,1.5-15.3,4.4-21.1c2.9-5.8,6.8-10.6,11.6-14.3
				c4.8-3.7,10.3-6.4,16.5-8.1c6.2-1.7,12.5-2.5,19-2.5c6.7,0,12.5,0.7,17.5,2.1c5,1.4,9,3.1,11.9,5.2c3.1,2.2,5.2,4.9,6.4,8.1
				c1.2,3.2,0.9,6.4-0.9,9.6c-1.5,2.6-3.5,4.4-6,5.5c-2.5,1.1-5,1.4-7.6,0.9c-1.7-0.3-3.2-0.8-4.6-1.4c-1.3-0.6-2.6-1.2-3.7-1.7
				c-1.8-0.7-3.7-1.2-5.6-1.5c-1.9-0.3-4.5-0.4-7.5-0.4c-2.7,0-5.3,0.4-7.8,1.3c-2.5,0.9-4.7,2.2-6.6,4c-1.9,1.7-3.5,3.9-4.6,6.6
				c-1.1,2.6-1.7,5.7-1.7,9.2v28.4c0,3.5,0.6,6.5,1.7,9.2c1.1,2.6,2.7,4.8,4.6,6.6c1.9,1.7,4.2,3.1,6.6,4c2.5,0.9,5.1,1.3,7.8,1.3
				c3.5,0,6.5-0.2,9-0.7c2.5-0.5,4.8-1.2,6.8-2.1c1.1-0.5,2.3-1.1,3.7-1.8c1.3-0.7,2.7-1.1,4.1-1.3c2.7-0.5,5.1-0.3,7.3,0.6
				c2.2,0.9,4,2.6,5.5,5.1C292.2,309.7,292.6,312.8,291.7,315.9z"/>
		</g>
		<defs>
			
				<filter id="Adobe_OpacityMaskFilter_00000029731160800741925820000006216281582815372433_" filterUnits="userSpaceOnUse" x="121.2" y="155.4" width="257.7" height="212.7">
				
					<feColorMatrix  type="matrix" values="-1 0 0 0 1  0 -1 0 0 1  0 0 -1 0 1  0 0 0 1 0" color-interpolation-filters="sRGB" result="source"/>
			</filter>
		</defs>
		
			<mask maskUnits="userSpaceOnUse" x="121.2" y="155.4" width="257.7" height="212.7" id="SVGID_00000023268540894046293860000005393915704160842425_">
			<g style="filter:url(#Adobe_OpacityMaskFilter_00000029731160800741925820000006216281582815372433_);">
				
					<image style="overflow:visible;" width="1091" height="904" xlink:href="A3081387.jpg"  transform="matrix(0.24 0 0 0.24 119.04 153.36)">
				</image>
			</g>
		</mask>
		<g style="mask:url(#SVGID_00000023268540894046293860000005393915704160842425_);">
			<path class="st4" d="M361.3,226.8c8.7-19.2,13.2-56.2-4.6-67c-19.5-11.8-39.9,3-59.3,13.6c-14.2-5.4-30.1-8.5-47.3-8.4
				c-17.1-0.1-32.7,2.9-46.8,8.2c-19.4-10.6-39.6-25.2-59-13.4c-17.5,10.6-13.4,46.8-5,66.1c-17.3,27.9-22.8,60.4-13.7,86.2
				c20.3,57.3,124.5,56,124.5,56s104.2,1.3,124.5-56C383.5,286.6,378.2,254.5,361.3,226.8z M291.7,315.9c-0.9,3.1-2.7,5.7-5.3,7.8
				c-4.2,3.4-9.2,5.8-15.1,7.4c-5.9,1.5-11.7,2.3-17.5,2.3c-6.5,0-12.8-0.8-19-2.5c-6.2-1.7-11.7-4.4-16.5-8.1
				c-4.8-3.7-8.7-8.5-11.6-14.3c-2.9-5.8-4.4-12.9-4.4-21.1v-31.1c0-8.3,1.5-15.3,4.4-21.1c2.9-5.8,6.8-10.6,11.6-14.3
				c4.8-3.7,10.3-6.4,16.5-8.1c6.2-1.7,12.5-2.5,19-2.5c6.7,0,12.5,0.7,17.5,2.1c5,1.4,9,3.1,11.9,5.2c3.1,2.2,5.2,4.9,6.4,8.1
				c1.2,3.2,0.9,6.4-0.9,9.6c-1.5,2.6-3.5,4.4-6,5.5c-2.5,1.1-5,1.4-7.6,0.9c-1.7-0.3-3.2-0.8-4.6-1.4c-1.3-0.6-2.6-1.2-3.7-1.7
				c-1.8-0.7-3.7-1.2-5.6-1.5c-1.9-0.3-4.5-0.4-7.5-0.4c-2.7,0-5.3,0.4-7.8,1.3c-2.5,0.9-4.7,2.2-6.6,4c-1.9,1.7-3.5,3.9-4.6,6.6
				c-1.1,2.6-1.7,5.7-1.7,9.2v28.4c0,3.5,0.6,6.5,1.7,9.2c1.1,2.6,2.7,4.8,4.6,6.6c1.9,1.7,4.2,3.1,6.6,4c2.5,0.9,5.1,1.3,7.8,1.3
				c3.5,0,6.5-0.2,9-0.7c2.5-0.5,4.8-1.2,6.8-2.1c1.1-0.5,2.3-1.1,3.7-1.8c1.3-0.7,2.7-1.1,4.1-1.3c2.7-0.5,5.1-0.3,7.3,0.6
				c2.2,0.9,4,2.6,5.5,5.1C292.2,309.7,292.6,312.8,291.7,315.9z"/>
		</g>
	</g>
	<g class="st7">
		
			<image style="overflow:visible;" width="1282" height="1096" xlink:href="A3081381.png"  transform="matrix(0.24 0 0 0.24 96.48 129.84)">
		</image>
	</g>
	<g class="st7">
		
			<image style="overflow:visible;" width="2294" height="2294" xlink:href="A3081380.png"  transform="matrix(0.24 0 0 0.24 -18.24 -17.28)">
		</image>
	</g>
</g>
</svg>
