<?xml version="1.0" encoding="utf-8"?>
<!-- Generator: Adobe Illustrator 26.5.0, SVG Export Plug-In . SVG Version: 6.00 Build 0)  -->
<svg version="1.1" id="Layer_1" xmlns="http://www.w3.org/2000/svg" xmlns:xlink="http://www.w3.org/1999/xlink" x="0px" y="0px"
	 viewBox="0 0 90 98.2" style="enable-background:new 0 0 90 98.2;" xml:space="preserve">
<style type="text/css">
	.st0{fill-rule:evenodd;clip-rule:evenodd;fill:#FFFFFF;}
</style>
<path class="st0" d="M52.1,71.5c-5.4,2.2-11.4,3.2-17.6,2.6C13.7,72.2-1.7,54.2,0.1,33.8C1.9,13.4,20.2-1.7,40.9,0.1
	C61.7,2,77,20,75.2,40.4c-0.6,6.6-2.9,12.7-6.5,17.8c7.5,8.6,15.4,17.8,18.5,21.6c9.4,11.3-7.7,25.5-17.1,14.2
	C67,90.3,58.3,79.2,52.1,71.5L52.1,71.5z M40.2,8.5c16,1.4,27.9,15.4,26.5,31.1c-1.4,15.8-15.5,27.4-31.5,26
	c-16-1.4-27.9-15.3-26.5-31.1C10,18.8,24.2,7.1,40.2,8.5L40.2,8.5z"/>
</svg>
