<?xml version="1.0" encoding="utf-8"?>
<!-- Generator: Adobe Illustrator 26.5.0, SVG Export Plug-In . SVG Version: 6.00 Build 0)  -->
<svg version="1.1" id="Layer_1" xmlns="http://www.w3.org/2000/svg" xmlns:xlink="http://www.w3.org/1999/xlink" x="0px" y="0px"
	 viewBox="0 0 55 55" style="enable-background:new 0 0 55 55;" xml:space="preserve">
<style type="text/css">
	.st0{fill:#313131;}
</style>
<path class="st0" d="M51.1,0H3.9C1.7,0,0,1.7,0,3.9v47.3C0,53.3,1.7,55,3.9,55h47.3c2.1,0,3.9-1.7,3.9-3.9V3.9C55,1.7,53.3,0,51.1,0
	z M39.2,33.8c1.5,1.5,1.5,4,0,5.5s-4,1.5-5.5,0L27.5,33l-6.3,6.3c-1.5,1.5-4,1.5-5.5,0s-1.5-4,0-5.5l6.3-6.3l-6.3-6.3
	c-1.5-1.5-1.5-4,0-5.5s4-1.5,5.5,0l6.3,6.3l6.3-6.3c1.5-1.5,4-1.5,5.5,0s1.5,4,0,5.5L33,27.5L39.2,33.8z"/>
</svg>
