<?xml version="1.0" encoding="utf-8"?>
<!-- Generator: Adobe Illustrator 26.5.0, SVG Export Plug-In . SVG Version: 6.00 Build 0)  -->
<svg version="1.1" id="Layer_1" xmlns="http://www.w3.org/2000/svg" xmlns:xlink="http://www.w3.org/1999/xlink" x="0px" y="0px"
	 viewBox="0 0 24 24" style="enable-background:new 0 0 24 24;" xml:space="preserve">
<style type="text/css">
	.st0{fill:url(#SVGID_1_);}
</style>
<linearGradient id="SVGID_1_" gradientUnits="userSpaceOnUse" x1="0.4943" y1="0.4943" x2="23.5057" y2="23.5057">
	<stop  offset="0" style="stop-color:#861F91"/>
	<stop  offset="0.44" style="stop-color:#7383BF"/>
	<stop  offset="0.61" style="stop-color:#31B0C4"/>
	<stop  offset="1" style="stop-color:#23688E"/>
</linearGradient>
<path class="st0" d="M22.3,0H1.7C0.8,0,0,0.8,0,1.7v20.6C0,23.2,0.8,24,1.7,24h20.6c0.9,0,1.7-0.8,1.7-1.7V1.7C24,0.8,23.2,0,22.3,0
	z M17.6,13.7h-3.9v3.9c0,0.9-0.8,1.7-1.7,1.7c-0.9,0-1.7-0.8-1.7-1.7v-3.9H6.4c-0.9,0-1.7-0.8-1.7-1.7s0.8-1.7,1.7-1.7h3.9V6.4
	c0-0.9,0.8-1.7,1.7-1.7c0.9,0,1.7,0.8,1.7,1.7v3.9h3.9c0.9,0,1.7,0.8,1.7,1.7S18.5,13.7,17.6,13.7z"/>
</svg>
