<svg xmlns="http://www.w3.org/2000/svg" width="139.358" height="83.383" viewBox="0 0 139.358 83.383">
  <g id="그룹_231" data-name="그룹 231" transform="translate(-1816 -3760.321)">
    <path id="touch-svgrepo-com" d="M84.315,29.873a8.183,8.183,0,0,0-5.523,2.139,8.2,8.2,0,0,0-11.05,0,8.233,8.233,0,0,0-2.025-1.349,18.782,18.782,0,1,0-22.76,5.02V58.6a24.786,24.786,0,0,0,49.572,0V38.087A8.223,8.223,0,0,0,84.315,29.873ZM37.765,18.789a13.407,13.407,0,1,1,21.623,10.59V18.789a8.216,8.216,0,1,0-16.432,0V29.378A13.458,13.458,0,0,1,37.765,18.789ZM87.147,58.6a19.4,19.4,0,0,1-38.808,0V34.046a2.6,2.6,0,0,0,0-.269V18.789a2.834,2.834,0,1,1,5.668,0v25.2a2.691,2.691,0,0,0,5.382,0v-5.9a2.831,2.831,0,1,1,5.662,0v5.9a2.691,2.691,0,0,0,5.382,0v-5.9a2.835,2.835,0,0,1,5.669,0v5.9a2.691,2.691,0,1,0,5.382,0v-5.9a2.832,2.832,0,1,1,5.663,0V58.6Z" transform="translate(1834.717 3760.321)"/>
    <g id="icon" transform="translate(1756.442 1606.325)">
      <rect id="사각형_112" data-name="사각형 112" width="31.442" height="4.5" transform="translate(159.558 2164.925)"/>
      <path id="다각형_7" data-name="다각형 7" d="M5.625,0,11.25,8.293H0Z" transform="translate(198.916 2161.55) rotate(90)"/>
    </g>
    <g id="icon-2" data-name="icon" transform="translate(2014.916 5940.675) rotate(180)">
      <rect id="사각형_112-2" data-name="사각형 112" width="31.442" height="4.5" transform="translate(159.558 2164.925)"/>
      <path id="다각형_7-2" data-name="다각형 7" d="M5.625,0,11.25,8.293H0Z" transform="translate(198.916 2161.55) rotate(90)"/>
    </g>
  </g>
</svg>
