<svg id="그룹_118" data-name="그룹 118" xmlns="http://www.w3.org/2000/svg" xmlns:xlink="http://www.w3.org/1999/xlink" width="255.033" height="311.489" viewBox="0 0 255.033 311.489">
  <defs>
    <clipPath id="clip-path">
      <rect id="사각형_206" data-name="사각형 206" width="255.033" height="311.489" fill="none"/>
    </clipPath>
  </defs>
  <g id="그룹_117" data-name="그룹 117" clip-path="url(#clip-path)">
    <path id="패스_33" data-name="패스 33" d="M69.5,0c-5.643,37.151-5.643,37.151-9.557,62.8,17.939,11.136,72.534,45.023,68.29,103.9q3.488-33.394,6.976-66.783C135.788,85.24,137.553,40.6,69.5,0" transform="translate(119.686)" fill="#bc6235"/>
    <path id="패스_34" data-name="패스 34" d="M81.587,109.765c.408,10.495.947,24.49,1.352,34.987,99.349-12.077,162.023-52.686,171.954-111.414q-3.484,33.394-6.976,66.783C233.433,186.066,119.963,207.753,85.528,212.353c.372,9.769.869,22.8,1.241,32.566C67.1,231.832,37.376,212.066,0,177.312c21.511-15.859,43.756-32.257,81.587-67.547" transform="translate(0 66.57)" fill="#ff8331"/>
  </g>
</svg>
