<?xml version="1.0" encoding="utf-8"?>
<!-- Generator: Adobe Illustrator 26.5.0, SVG Export Plug-In . SVG Version: 6.00 Build 0)  -->
<svg version="1.1" id="Layer_1" xmlns="http://www.w3.org/2000/svg" xmlns:xlink="http://www.w3.org/1999/xlink" x="0px" y="0px"
	 viewBox="0 0 35 41" style="enable-background:new 0 0 35 41;" xml:space="preserve">
<style type="text/css">
	.st0{fill:#4469B1;}
	.st1{fill:#9DA4AC;}
	.st2{fill:#FFFFFF;}
	.st3{fill:#231F20;}
</style>
<g>
	<rect x="0.9" y="1.2" class="st0" width="32.4" height="34.2"/>
	<path class="st1" d="M15.3,4c-3.4,4.7-7.9,5-8.5,5v4c0,0,0.4,0,3.2,0c1.8,0,1.8,1.8,1.8,1.8v18.6H18h15.4v-3.4V22V7.8V4H15.3z"/>
	<path class="st2" d="M33.4,7.8c-1.9-1.5-3.4-1.8-6.3-1.8c-3.5,0-6.4,1.3-7.4,3.3c-1.1,2.1-1.3,3.4-1.3,6.8v0.9h7.5v-2.6
		c0-1.1,0.2-3.2,1.8-3.2c1.6,0,1.7,1.4,1.5,3.3c-0.1,1.1-1.2,3.3-1.9,4.4c-0.8,1.3-6,9.8-8.5,13.4v1.4h14.6l-0.4-2.1l-5-0.1
		c1.5-2.4,5-7.7,5.6-9.2V7.8z"/>
	<path class="st3" d="M32.7,0H2.3C1.1,0-0.2,1.3-0.2,2.5v36c0,1.2,1.3,2.5,2.5,2.5h30.4c1.2,0,2.5-1.3,2.5-2.5v-36
		C35.2,1.3,33.9,0,32.7,0 M33,30.8c0,1-0.8,1.9-1.9,1.9H3.9c-1,0-1.9-0.8-1.9-1.9V4c0-1,0.8-1.9,1.9-1.9h27.2C32.1,2.1,33,3,33,4
		V30.8z"/>
	<path class="st2" d="M5,34.9v3.9H4.2v-2.4c0-0.1,0-0.2,0-0.3c0-0.1,0-0.1-0.1-0.1c-0.1,0-0.1-0.1-0.2-0.1c-0.1,0-0.2,0-0.4,0H3.4
		v-0.3c0.3,0,0.5-0.1,0.7-0.2c0.2-0.1,0.4-0.2,0.5-0.4H5z"/>
	<path class="st2" d="M8.6,38.2v0.5H6v-0.6c0.2-0.3,0.4-0.5,0.7-0.8c0.3-0.3,0.5-0.5,0.6-0.6c0.2-0.1,0.3-0.3,0.4-0.5
		c0.1-0.2,0.2-0.3,0.2-0.5c0-0.2,0-0.3-0.1-0.4c-0.1-0.1-0.3-0.1-0.5-0.1c-0.2,0-0.4,0-0.5,0.1c-0.1,0.1-0.1,0.2-0.1,0.4v0.4H6V36
		c0-0.4,0.1-0.7,0.3-0.9c0.2-0.2,0.5-0.3,1-0.3c0.5,0,0.8,0.1,1.1,0.3c0.2,0.2,0.4,0.4,0.4,0.7c0,0.2-0.1,0.4-0.2,0.6
		c-0.1,0.2-0.2,0.3-0.4,0.5c-0.1,0.1-0.4,0.3-0.6,0.6C7.2,37.7,7,38,6.7,38.2H8.6z"/>
	<path class="st2" d="M11.1,34.7v1.4c0,0.5,0.1,1,0.3,1.4c0.2,0.4,0.4,0.6,0.6,0.8l-0.5,0.3c-0.2-0.1-0.4-0.3-0.5-0.5
		c-0.2-0.2-0.3-0.5-0.3-0.8c-0.1,0.3-0.2,0.5-0.4,0.8c-0.2,0.2-0.3,0.4-0.5,0.5l-0.5-0.3c0.2-0.2,0.4-0.4,0.6-0.8
		c0.2-0.4,0.3-0.9,0.3-1.4v-1.4H11.1z M13,34.7V39h-0.8v-2.2h-0.6v-0.5h0.6v-1.6H13z M14.2,39h-0.8v-4.3h0.8V39z"/>
	<path class="st2" d="M18.1,35.3c0.2,0.4,0.4,0.8,0.4,1.4c0,0.6-0.1,1.1-0.4,1.4c-0.3,0.4-0.6,0.6-1.1,0.6c-0.5,0-0.8-0.2-1.1-0.6
		c-0.2-0.4-0.4-0.8-0.4-1.4c0-0.6,0.1-1,0.4-1.4c0.3-0.4,0.6-0.6,1.1-0.6C17.4,34.7,17.8,34.9,18.1,35.3 M16.5,35.6
		c-0.1,0.3-0.2,0.6-0.2,1c0,0.5,0.1,0.8,0.2,1.1c0.1,0.3,0.3,0.5,0.5,0.5c0.2,0,0.4-0.2,0.5-0.5c0.1-0.3,0.2-0.7,0.2-1.1
		c0-0.4-0.1-0.8-0.2-1c-0.1-0.3-0.3-0.4-0.5-0.4C16.7,35.1,16.6,35.3,16.5,35.6 M19.9,39h-0.8v-4.3h0.8V39z"/>
	<path class="st2" d="M21.6,35.9c-0.1-0.1-0.2-0.2-0.2-0.4c0-0.2,0.2-0.5,0.5-0.6c0.4-0.2,0.9-0.3,1.6-0.3c0.7,0,1.2,0.1,1.6,0.3
		c0.4,0.2,0.5,0.4,0.5,0.6c0,0.1-0.1,0.2-0.2,0.4c-0.1,0.1-0.3,0.2-0.5,0.3v0.5H26v0.5h-4.7v-0.5h0.9v-0.5
		C21.9,36.1,21.7,36,21.6,35.9 M25.1,37.7c0.3,0.2,0.5,0.4,0.5,0.6c0,0.2-0.2,0.4-0.5,0.6c-0.4,0.2-0.9,0.3-1.5,0.3
		c-0.6,0-1.2-0.1-1.5-0.3c-0.3-0.2-0.5-0.3-0.5-0.6c0-0.2,0.2-0.4,0.5-0.6c0.4-0.2,0.9-0.3,1.5-0.3C24.2,37.4,24.7,37.5,25.1,37.7
		 M22.6,35.3c-0.2,0.1-0.3,0.2-0.3,0.3c0,0.1,0.1,0.2,0.3,0.3c0.2,0.1,0.5,0.1,1,0.1c0.4,0,0.7,0,1-0.1c0.2-0.1,0.3-0.2,0.3-0.3
		c0-0.1-0.1-0.2-0.3-0.3c-0.2-0.1-0.6-0.1-1-0.1C23.2,35.2,22.9,35.2,22.6,35.3 M22.7,38c-0.2,0.1-0.3,0.1-0.3,0.2
		c0,0.1,0.1,0.2,0.3,0.2c0.2,0.1,0.5,0.1,0.9,0.1c0.4,0,0.7,0,0.9-0.1c0.2-0.1,0.3-0.1,0.3-0.2c0-0.1-0.1-0.2-0.3-0.2
		c-0.2-0.1-0.5-0.1-0.9-0.1C23.2,37.9,22.9,37.9,22.7,38 M24.2,36.7v-0.3c-0.1,0-0.2,0-0.3,0c-0.1,0-0.2,0-0.3,0c-0.1,0-0.2,0-0.3,0
		c-0.1,0-0.2,0-0.3,0v0.3H24.2z"/>
	<path class="st2" d="M29.7,34.8v1.3c0,0.6-0.2,1.2-0.6,1.6c-0.4,0.4-0.9,0.7-1.7,1L27,38.3c0.5-0.2,1-0.4,1.3-0.7
		c0.4-0.4,0.5-0.8,0.5-1.3v-1h-1.7v-0.5H29.7z M31.5,34.7v1.7H32v0.5h-0.6V39h-0.8v-4.3H31.5z"/>
</g>
</svg>
