<?xml version="1.0" encoding="utf-8"?>
<!-- Generator: Adobe Illustrator 26.5.0, SVG Export Plug-In . SVG Version: 6.00 Build 0)  -->
<svg version="1.1" id="Layer_1" xmlns="http://www.w3.org/2000/svg" xmlns:xlink="http://www.w3.org/1999/xlink" x="0px" y="0px"
	 viewBox="0 0 35 41" style="enable-background:new 0 0 35 41;" xml:space="preserve">
<style type="text/css">
	.st0{fill:#0187AF;}
	.st1{fill:#FAC62E;}
	.st2{fill:#FFFFFF;}
	.st3{font-family:'H2hdrM';}
	.st4{font-size:5.6788px;}
	.st5{letter-spacing:1;}
	.st6{fill:#B4B6B5;}
</style>
<g>
	<path class="st0" d="M31.8,0H3.2C1.5,0,0.1,1.4,0.1,3.1v34.8c0,1.7,1.4,3.1,3.1,3.1h28.6c1.7,0,3-1.4,3.1-3.1V3.1
		C34.9,1.4,33.5,0,31.8,0"/>
	<path class="st1" d="M32.6,30.2c0,1.3-1,2.3-2.3,2.3H4.7c-1.2,0-2.3-1-2.3-2.3V4.5c0-1.3,1-2.3,2.3-2.3h25.6c1.2,0,2.3,1,2.3,2.3
		V30.2z"/>
	<path class="st2" d="M4.6,16.5H3.9v-0.3c0-0.2,0-0.3,0-0.3c0,0,0-0.1-0.1-0.1c0,0-0.1,0-0.1,0.1c0,0,0,0.1,0,0.3v1.3
		c0,0.1,0,0.2,0,0.2c0,0,0,0.1,0.1,0.1c0.1,0,0.1,0,0.1-0.1c0,0,0-0.1,0-0.3v-0.3H3.8v-0.4h0.8v1.5H4.2l-0.1-0.2
		c0,0.1-0.1,0.1-0.2,0.2c-0.1,0-0.2,0.1-0.3,0.1c-0.1,0-0.2,0-0.3-0.1c-0.1-0.1-0.2-0.1-0.2-0.2C3,18,3,17.9,3,17.8
		c0-0.1,0-0.2,0-0.4v-0.8c0-0.3,0-0.5,0-0.6c0-0.1,0.1-0.2,0.2-0.3c0.1-0.1,0.3-0.1,0.5-0.1c0.2,0,0.4,0,0.5,0.1
		c0.1,0.1,0.2,0.2,0.3,0.3c0,0.1,0.1,0.3,0.1,0.5V16.5z"/>
	<path class="st2" d="M4.9,15.5h0.5c0.3,0,0.6,0,0.7,0c0.1,0,0.2,0.1,0.3,0.2c0.1,0.1,0.1,0.3,0.1,0.5c0,0.2,0,0.4-0.1,0.4
		c-0.1,0.1-0.2,0.1-0.3,0.1c0.1,0,0.2,0.1,0.3,0.1c0,0.1,0.1,0.1,0.1,0.2c0,0,0,0.2,0,0.4v0.7H5.8v-0.9c0-0.1,0-0.2,0-0.3
		c0,0-0.1-0.1-0.2-0.1v1.3H4.9V15.5z M5.6,16v0.6c0.1,0,0.1,0,0.2,0c0,0,0-0.1,0-0.2v-0.2c0-0.1,0-0.1,0-0.2C5.7,16,5.7,16,5.6,16"
		/>
	<path class="st2" d="M7.9,15.5l0.4,2.8H7.6l0-0.5H7.3l0,0.5H6.5l0.4-2.8H7.9z M7.5,17.3c0-0.3-0.1-0.7-0.1-1.2
		c-0.1,0.5-0.1,0.9-0.1,1.2H7.5z"/>
	<path class="st2" d="M10.1,16.7H9.3v-0.5c0-0.1,0-0.2,0-0.3c0,0,0-0.1-0.1-0.1c-0.1,0-0.1,0-0.1,0.1c0,0,0,0.1,0,0.3v1.3
		c0,0.1,0,0.2,0,0.3c0,0,0.1,0.1,0.1,0.1c0.1,0,0.1,0,0.1-0.1c0,0,0-0.1,0-0.3v-0.3h0.7v0.1c0,0.3,0,0.5-0.1,0.6
		c0,0.1-0.1,0.2-0.3,0.3c-0.1,0.1-0.3,0.1-0.5,0.1c-0.2,0-0.4,0-0.5-0.1c-0.1-0.1-0.2-0.2-0.3-0.3c0-0.1-0.1-0.3-0.1-0.6v-0.8
		c0-0.2,0-0.3,0-0.4c0-0.1,0.1-0.2,0.1-0.3c0.1-0.1,0.2-0.2,0.3-0.2c0.1-0.1,0.3-0.1,0.4-0.1c0.2,0,0.4,0,0.5,0.1
		c0.1,0.1,0.2,0.2,0.3,0.3c0,0.1,0.1,0.3,0.1,0.6V16.7z"/>
	<text transform="matrix(1.0308 0 0 1 3.3906 38.5173)"><tspan x="0" y="0" class="st2 st3 st4 st5">등급면</tspan><tspan x="21.7" y="0" class="st2 st3 st4">제</tspan></text>
	<path class="st2" d="M32.6,30.1V30l-4.2-10c2-0.9,3.4-2.2,4.2-3.8V9.1c-0.2-0.4-0.4-0.8-0.6-1.2C31,6.5,29.9,5.5,28.5,5
		c-1.4-0.5-3.2-0.8-5.6-0.8H10.8v28.4h6.4V21.3h4.8l4.4,11.2h3.9C31.5,32.5,32.6,31.4,32.6,30.1 M25.7,14.9c-0.5,0.6-1,1.1-1.6,1.2
		c-0.6,0.2-1.6,0.3-2.9,0.3h-4.1V9.2h3.9c1.5,0,2.6,0.1,3.1,0.2c0.6,0.1,1.1,0.5,1.5,1.2c0.5,0.6,0.7,1.3,0.7,2.1
		C26.4,13.5,26.2,14.3,25.7,14.9"/>
	<polygon class="st6" points="29.5,20.7 22.2,20.7 22.2,23.7 28.9,23.7 28.9,26.2 22.2,26.2 22.2,30 29.8,30 29.8,32.5 19.3,32.5 
		19.3,18.2 29.5,18.2 	"/>
</g>
</svg>
