<?xml version="1.0" encoding="utf-8"?>
<!-- Generator: Adobe Illustrator 26.5.0, SVG Export Plug-In . SVG Version: 6.00 Build 0)  -->
<svg version="1.1" id="Layer_1" xmlns="http://www.w3.org/2000/svg" xmlns:xlink="http://www.w3.org/1999/xlink" x="0px" y="0px"
	 viewBox="0 0 35 41" style="enable-background:new 0 0 35 41;" xml:space="preserve">
<style type="text/css">
	.st0{fill:#FAB847;}
	.st1{fill:#9DA4AC;}
	.st2{fill:#FFFFFF;}
	.st3{fill:#231F20;}
</style>
<g>
	<rect x="0.9" y="1.2" class="st0" width="32.4" height="34.2"/>
	<path class="st1" d="M15.6,4.3C12.2,8.7,7.7,9,7.1,9v4c0,0,0.4,0,3.2,0c1.8,0,1.8,1.8,1.8,1.8v18.3h6.2h15.4v-3.1V22V7.8V4.3H15.6z
		"/>
	<path class="st2" d="M34.3,11.5V6.2H19v15.6h7.2v-1.6c0-0.9,0.7-1.6,1.4-1.6c0.7,0,1.4,0.7,1.4,1.6v9.8c0,0.9-0.7,1.6-1.4,1.6
		c-0.7,0-1.4-0.7-1.4-1.6v-0.6V25H19v1.5c0,6.7,0.3,8,6.4,8c0,0,8.3,0.8,8.3-4.9l0.1-8.5c0.1-5.9-0.2-7.2-3.2-7.2
		c-2.3,0-3.4,0.9-4.4,2v-4.3H34.3z"/>
	<path class="st3" d="M32.7,0H2.3C1.1,0-0.2,1.3-0.2,2.5v36c0,1.2,1.3,2.5,2.5,2.5h30.4c1.2,0,2.5-1.3,2.5-2.5v-36
		C35.2,1.3,33.9,0,32.7,0 M33,30.8c0,1-0.8,1.9-1.9,1.9H3.9c-1,0-1.9-0.8-1.9-1.9V4c0-1,0.8-1.9,1.9-1.9h27.2C32.1,2.1,33,3,33,4
		V30.8z"/>
	<path class="st2" d="M5,34.8v3.9H4.2v-2.4c0-0.1,0-0.2,0-0.3c0-0.1,0-0.1-0.1-0.1c-0.1,0-0.1-0.1-0.2-0.1c-0.1,0-0.2,0-0.4,0H3.4
		v-0.3c0.3,0,0.5-0.1,0.7-0.2c0.2-0.1,0.4-0.2,0.5-0.4H5z"/>
	<path class="st2" d="M8.4,34.8v0.5H6.6v1.1C6.8,36.1,7.1,36,7.5,36c0.8,0,1.2,0.3,1.2,1v0.4c0,0.4-0.1,0.7-0.3,0.9
		c-0.2,0.2-0.5,0.3-1,0.3c-0.9,0-1.4-0.4-1.4-1v-0.2h0.7v0.2c0,0.1,0,0.3,0.1,0.4c0.1,0.1,0.3,0.1,0.5,0.1c0.2,0,0.4-0.1,0.5-0.2
		c0.1-0.1,0.1-0.3,0.1-0.5V37c0-0.2-0.1-0.4-0.2-0.4c-0.1-0.1-0.3-0.1-0.5-0.1c-0.2,0-0.3,0-0.4,0.1c-0.1,0.1-0.2,0.2-0.2,0.3H5.9
		v-2.1H8.4z"/>
	<path class="st2" d="M11,34.6v1.4c0,0.5,0.1,1,0.3,1.4c0.2,0.4,0.4,0.6,0.6,0.8l-0.5,0.3c-0.2-0.1-0.4-0.3-0.5-0.5
		c-0.2-0.2-0.3-0.5-0.3-0.8c-0.1,0.3-0.2,0.5-0.3,0.8c-0.2,0.2-0.3,0.4-0.5,0.5l-0.5-0.3c0.2-0.2,0.4-0.4,0.6-0.8
		c0.2-0.4,0.3-0.9,0.3-1.4v-1.4H11z M13,34.6v4.3h-0.8v-2.2h-0.6v-0.5h0.6v-1.6H13z M14.2,38.9h-0.8v-4.3h0.8V38.9z"/>
	<path class="st2" d="M18,35.2c0.2,0.4,0.4,0.8,0.4,1.4c0,0.6-0.1,1.1-0.4,1.4c-0.3,0.4-0.6,0.6-1.1,0.6c-0.5,0-0.8-0.2-1.1-0.6
		c-0.2-0.4-0.4-0.8-0.4-1.4c0-0.6,0.1-1,0.4-1.4c0.3-0.4,0.6-0.6,1.1-0.6C17.4,34.6,17.8,34.8,18,35.2 M16.4,35.5
		c-0.1,0.3-0.2,0.6-0.2,1c0,0.5,0.1,0.8,0.2,1.1c0.1,0.3,0.3,0.5,0.5,0.5c0.2,0,0.4-0.2,0.5-0.5c0.1-0.3,0.2-0.7,0.2-1.1
		c0-0.4-0.1-0.8-0.2-1c-0.1-0.3-0.3-0.4-0.5-0.4C16.7,35.1,16.6,35.2,16.4,35.5 M19.9,38.9h-0.8v-4.3h0.8V38.9z"/>
	<path class="st2" d="M21.6,35.8c-0.1-0.1-0.2-0.2-0.2-0.4c0-0.2,0.2-0.5,0.5-0.6c0.4-0.2,0.9-0.3,1.6-0.3c0.7,0,1.2,0.1,1.6,0.3
		c0.4,0.2,0.5,0.4,0.5,0.6c0,0.1-0.1,0.2-0.2,0.4c-0.1,0.1-0.3,0.2-0.5,0.3v0.5h0.9v0.5h-4.7v-0.5h0.9v-0.5
		C21.9,36.1,21.7,35.9,21.6,35.8 M25.1,37.6c0.3,0.2,0.5,0.4,0.5,0.6c0,0.2-0.2,0.4-0.5,0.6c-0.4,0.2-0.9,0.3-1.5,0.3
		c-0.6,0-1.2-0.1-1.5-0.3c-0.3-0.2-0.5-0.3-0.5-0.6c0-0.2,0.2-0.4,0.5-0.6c0.4-0.2,0.9-0.3,1.5-0.3C24.2,37.3,24.7,37.4,25.1,37.6
		 M22.6,35.2c-0.2,0.1-0.3,0.2-0.3,0.3c0,0.1,0.1,0.2,0.3,0.3c0.2,0.1,0.5,0.1,1,0.1c0.4,0,0.7,0,1-0.1c0.2-0.1,0.3-0.2,0.3-0.3
		c0-0.1-0.1-0.2-0.3-0.3c-0.2-0.1-0.6-0.1-1-0.1C23.1,35.1,22.8,35.1,22.6,35.2 M22.6,37.9c-0.2,0.1-0.3,0.1-0.3,0.2
		c0,0.1,0.1,0.2,0.3,0.2c0.2,0.1,0.5,0.1,0.9,0.1c0.4,0,0.7,0,0.9-0.1c0.2-0.1,0.3-0.1,0.3-0.2c0-0.1-0.1-0.2-0.3-0.2
		c-0.2-0.1-0.5-0.1-0.9-0.1C23.2,37.8,22.9,37.9,22.6,37.9 M24.2,36.6v-0.3c-0.1,0-0.2,0-0.3,0c-0.1,0-0.2,0-0.3,0
		c-0.1,0-0.2,0-0.3,0c-0.1,0-0.2,0-0.3,0v0.3H24.2z"/>
	<path class="st2" d="M29.6,34.7V36c0,0.6-0.2,1.2-0.6,1.6c-0.4,0.4-0.9,0.7-1.7,1L27,38.2c0.5-0.2,1-0.4,1.3-0.7
		c0.4-0.4,0.5-0.8,0.5-1.3v-1h-1.7v-0.5H29.6z M31.4,34.6v1.7H32v0.5h-0.6v2.1h-0.8v-4.3H31.4z"/>
</g>
</svg>
