<?xml version="1.0" encoding="utf-8"?>
<!-- Generator: Adobe Illustrator 26.5.0, SVG Export Plug-In . SVG Version: 6.00 Build 0)  -->
<svg version="1.1" id="Layer_1" xmlns="http://www.w3.org/2000/svg" xmlns:xlink="http://www.w3.org/1999/xlink" x="0px" y="0px"
	 viewBox="0 0 35 41" style="enable-background:new 0 0 35 41;" xml:space="preserve">
<style type="text/css">
	.st0{fill:#A3173A;}
	.st1{fill:#9DA4AC;}
	.st2{fill:#FFFFFF;}
	.st3{fill:#231F20;}
</style>
<g>
	<rect x="0.9" y="1.2" class="st0" width="32.4" height="34.2"/>
	<path class="st1" d="M15.6,4.3C12.2,8.7,7.7,9,7.1,9v4c0,0,0.4,0,3.2,0c1.8,0,1.8,1.8,1.8,1.8v18.3h6.2h15.4v-3.1V22V7.8V4.3H15.6z
		"/>
	<path class="st2" d="M27.7,6c-5.1,0-8.9,1.9-8.9,7.4c0,3.7,0.9,4.8,2.3,5.8c-1.2,0.9-2.9,2.6-2.9,7.8c0,5.5,1,5.9,3,6.8h8.5
		c1.3,0,3.4,0.4,4,0.1V20V7.3C32.4,6.5,30.7,6,27.7,6 M29,30c0,1-0.5,1.8-1.3,1.8c-0.7,0-1.3-0.8-1.3-1.8v-5.7c0-1,0.5-1.8,1.3-1.8
		c0.7,0,1.3,0.8,1.3,1.8V30z M29,15.8c0,1-0.5,1.8-1.3,1.8c-0.7,0-1.3-0.8-1.3-1.8v-3.5c0-1,0.5-1.8,1.3-1.8c0.7,0,1.3,0.8,1.3,1.8
		V15.8z"/>
	<path class="st3" d="M32.7,0H2.3C1.1,0-0.2,1.3-0.2,2.5v36c0,1.2,1.3,2.5,2.5,2.5h30.4c1.2,0,2.5-1.3,2.5-2.5v-36
		C35.2,1.3,33.9,0,32.7,0 M33,30.8c0,1-0.8,1.9-1.9,1.9H3.9c-1,0-1.9-0.8-1.9-1.9V4c0-1,0.8-1.9,1.9-1.9h27.2C32.1,2.1,33,3,33,4
		V30.8z"/>
	<path class="st2" d="M3.3,34.8v-0.4H4v0.4h0.9v0.5H4c0,0.3,0.1,0.6,0.3,0.8c0.2,0.2,0.4,0.4,0.8,0.6l-0.3,0.4
		c-0.2-0.1-0.5-0.2-0.7-0.4c-0.2-0.2-0.4-0.3-0.4-0.5c-0.1,0.2-0.2,0.3-0.5,0.5C3,36.9,2.7,37,2.5,37.1l-0.2-0.4
		c0.3-0.2,0.6-0.3,0.7-0.6c0.2-0.3,0.3-0.5,0.3-0.8H2.4v-0.5H3.3z M5.7,37.5c0.3,0.2,0.4,0.4,0.4,0.7c0,0.3-0.1,0.5-0.4,0.7
		c-0.3,0.2-0.8,0.3-1.3,0.3c-0.5,0-1-0.1-1.3-0.3c-0.3-0.2-0.4-0.4-0.4-0.7c0-0.3,0.1-0.5,0.4-0.7c0.3-0.2,0.8-0.3,1.3-0.3
		C4.9,37.2,5.4,37.3,5.7,37.5 M3.6,37.9c-0.2,0.1-0.3,0.2-0.3,0.3c0,0.1,0.1,0.2,0.3,0.3c0.2,0.1,0.5,0.1,0.8,0.1
		c0.3,0,0.6,0,0.8-0.1c0.2-0.1,0.3-0.2,0.3-0.3c0-0.1-0.1-0.2-0.3-0.3c-0.2-0.1-0.5-0.1-0.8-0.1C4,37.7,3.8,37.8,3.6,37.9 M6,37.1
		H5.4v-0.9H4.6v-0.5h0.8v-1.2H6V37.1z"/>
	<path class="st2" d="M9.5,36c0.3,0.3,0.7,0.5,1.2,0.7l-0.3,0.4c-0.4-0.1-0.8-0.3-1-0.5c-0.3-0.2-0.5-0.4-0.7-0.7
		c-0.2,0.3-0.4,0.5-0.6,0.7c-0.3,0.2-0.6,0.4-1,0.5l-0.3-0.4c0.5-0.2,0.9-0.4,1.1-0.7c0.3-0.4,0.5-0.9,0.5-1.5h0.7
		C9.1,35.1,9.2,35.6,9.5,36 M8.4,38.2V37h0.7v1.3h1.6v0.5H6.8v-0.5H8.4z"/>
	<path class="st2" d="M14.3,36.2h-1.2v-0.5h1.2v-0.4h-1.2v-0.5h1.2v-0.3h0.7v3.3h-0.7v-0.7h-2.4c-0.2,0-0.3,0-0.4-0.1
		c-0.1-0.1-0.1-0.2-0.1-0.4v-2.1h0.7v2.1h2.2V36.2z M12.3,38.5H15V39h-2.8c-0.2,0-0.4,0-0.5-0.1c-0.1-0.1-0.1-0.2-0.1-0.4v-1h0.7
		V38.5z"/>
	<path class="st2" d="M17.9,35.1c0.2,0.4,0.3,0.9,0.3,1.5c0,0.6-0.1,1.1-0.3,1.5c-0.2,0.4-0.5,0.6-0.9,0.6c-0.4,0-0.7-0.2-0.9-0.6
		c-0.2-0.4-0.3-0.9-0.3-1.5c0-0.6,0.1-1.1,0.3-1.5c0.2-0.4,0.5-0.6,0.9-0.6C17.4,34.5,17.7,34.7,17.9,35.1 M16.6,35.4
		c-0.1,0.3-0.1,0.7-0.1,1.1c0,0.5,0,0.9,0.1,1.2c0.1,0.3,0.2,0.5,0.4,0.5c0.2,0,0.3-0.2,0.4-0.5c0.1-0.3,0.1-0.7,0.1-1.2
		c0-0.5,0-0.8-0.1-1.1C17.3,35.1,17.1,35,17,35C16.8,35,16.7,35.1,16.6,35.4 M19.4,39.1h-0.7v-4.6h0.7V39.1z"/>
	<path class="st2" d="M20.5,35.8c-0.1-0.1-0.1-0.2-0.1-0.4c0-0.3,0.1-0.5,0.4-0.7c0.3-0.2,0.7-0.3,1.3-0.3c0.5,0,1,0.1,1.3,0.3
		c0.3,0.2,0.4,0.4,0.4,0.7c0,0.1,0,0.3-0.1,0.4c-0.1,0.1-0.2,0.2-0.4,0.3v0.5H24v0.5h-3.9v-0.5h0.7v-0.5
		C20.7,36,20.6,35.9,20.5,35.8 M23.3,37.7c0.3,0.2,0.4,0.4,0.4,0.6c0,0.2-0.1,0.4-0.4,0.6c-0.3,0.2-0.7,0.3-1.2,0.3
		c-0.5,0-0.9-0.1-1.3-0.3c-0.3-0.2-0.4-0.4-0.4-0.6c0-0.2,0.1-0.5,0.4-0.6c0.3-0.2,0.7-0.3,1.3-0.3C22.6,37.4,23,37.5,23.3,37.7
		 M21.3,35.1c-0.2,0.1-0.3,0.2-0.3,0.3c0,0.1,0.1,0.2,0.3,0.3c0.2,0.1,0.4,0.1,0.8,0.1c0.3,0,0.6,0,0.8-0.1c0.2-0.1,0.3-0.2,0.3-0.3
		c0-0.1-0.1-0.2-0.3-0.3C22.7,35,22.4,35,22.1,35C21.7,35,21.5,35,21.3,35.1 M21.3,38c-0.2,0.1-0.2,0.2-0.2,0.3
		c0,0.1,0.1,0.2,0.2,0.3c0.2,0.1,0.4,0.1,0.8,0.1c0.3,0,0.6,0,0.7-0.1c0.2-0.1,0.3-0.2,0.3-0.3c0-0.1-0.1-0.2-0.3-0.3
		c-0.2-0.1-0.4-0.1-0.7-0.1C21.8,37.9,21.5,38,21.3,38 M22.6,36.6v-0.3c-0.1,0-0.2,0-0.3,0c-0.1,0-0.2,0-0.3,0c-0.1,0-0.2,0-0.3,0
		c-0.1,0-0.2,0-0.3,0v0.3H22.6z"/>
	<path class="st2" d="M28.4,36.7h-1.6v0.3h1.4v1.2h-2.8v0.2h2.8V39h-2.9c-0.2,0-0.3,0-0.5-0.1c-0.1-0.1-0.2-0.2-0.2-0.4v-0.7h2.8
		v-0.2h-2.8v-0.5h1.4v-0.3h-1.6v-0.5h3.9V36.7z M25.5,34.5v0.2h2.1v-0.2h0.7v1.6h-2.8c-0.2,0-0.4,0-0.5-0.1
		c-0.1-0.1-0.1-0.2-0.1-0.4v-1H25.5z M25.5,35.6h2.1v-0.3h-2.1V35.6z"/>
	<path class="st2" d="M31.2,34.6V36c0,0.7-0.2,1.2-0.5,1.7c-0.3,0.4-0.8,0.8-1.4,1L29,38.3c0.4-0.2,0.8-0.5,1-0.8
		c0.3-0.4,0.4-0.8,0.4-1.4v-1.1h-1.4v-0.5H31.2z M32.6,34.5v1.9h0.4v0.5h-0.4v2.2H32v-4.6H32.6z"/>
</g>
</svg>
