<?xml version="1.0" encoding="utf-8"?>
<!-- Generator: Adobe Illustrator 26.5.0, SVG Export Plug-In . SVG Version: 6.00 Build 0)  -->
<svg version="1.1" id="Layer_1" xmlns="http://www.w3.org/2000/svg" xmlns:xlink="http://www.w3.org/1999/xlink" x="0px" y="0px"
	 viewBox="0 0 35 41" style="enable-background:new 0 0 35 41;" xml:space="preserve">
<style type="text/css">
	.st0{clip-path:url(#SVGID_00000013906018252386983260000014131469601421985431_);fill:#158E30;}
	.st1{clip-path:url(#SVGID_00000013906018252386983260000014131469601421985431_);fill:#FFFFFF;}
	.st2{clip-path:url(#SVGID_00000013906018252386983260000014131469601421985431_);fill:#B2B2B2;}
	.st3{clip-path:url(#SVGID_00000013906018252386983260000014131469601421985431_);}
</style>
<g>
	<defs>
		<rect id="SVGID_1_" x="0.1" y="0" width="34.8" height="41"/>
	</defs>
	<clipPath id="SVGID_00000173867352400644854550000009982965209794719129_">
		<use xlink:href="#SVGID_1_"  style="overflow:visible;"/>
	</clipPath>
	<path style="clip-path:url(#SVGID_00000173867352400644854550000009982965209794719129_);fill:#158E30;" d="M33.2,30.8
		c0,1.3-1.1,2.4-2.4,2.4H4c-1.3,0-2.4-1.1-2.4-2.4V3.9c0-1.3,1.1-2.4,2.4-2.4h26.8c1.3,0,2.4,1.1,2.4,2.4V30.8z"/>
	<path style="clip-path:url(#SVGID_00000173867352400644854550000009982965209794719129_);fill:#158E30;" d="M33.2,30.7
		c0,1.3-1.1,2.4-2.4,2.4H4c-1.3,0-2.4-1.1-2.4-2.4V3.9c0-1.3,1.1-2.4,2.4-2.4h26.8c1.3,0,2.4,1.1,2.4,2.4V30.7z"/>
	<path style="clip-path:url(#SVGID_00000173867352400644854550000009982965209794719129_);fill:#FFFFFF;" d="M20,32.5l-0.1-1.1h-3.1
		l-0.1,1.1l-8.8,0l3.8-28h12.5l4.3,28L20,32.5z M19.7,25.5c-0.4-3.7-0.9-8.3-1.3-13.8c-0.9,6.3-1.4,10.9-1.6,13.8H19.7z"/>
	<polygon style="clip-path:url(#SVGID_00000173867352400644854550000009982965209794719129_);fill:#FFFFFF;" points="32,20.1 
		32,27.5 32.7,27.5 32.7,30.3 28.3,30.3 28.3,20.1 	"/>
	<polygon style="clip-path:url(#SVGID_00000173867352400644854550000009982965209794719129_);fill:#B2B2B2;" points="25.2,20.1 
		25.2,27.5 27.5,27.5 27.5,30.3 21.5,30.3 21.5,20.1 	"/>
	<path style="clip-path:url(#SVGID_00000173867352400644854550000009982965209794719129_);" d="M31.8,0H3.2C1.5,0,0.1,1.4,0.1,3.1
		v34.9c0,1.7,1.4,3.1,3.1,3.1h28.6c1.7,0,3-1.4,3.1-3.1V3.1C34.9,1.4,33.5,0,31.8,0 M31.5,32.5H3.6c-0.7,0-1.3-0.6-1.3-1.3l0-27.8
		c0-0.7,0.6-1.3,1.3-1.3h27.9c0.7,0,1.3,0.6,1.3,1.3l0,27.8C32.7,31.9,32.2,32.5,31.5,32.5"/>
	<path style="clip-path:url(#SVGID_00000173867352400644854550000009982965209794719129_);fill:#FFFFFF;" d="M7,34.4v0.5H5.9
		c0,0.4,0.1,0.8,0.4,1.1c0.2,0.2,0.5,0.4,0.9,0.6L6.9,37c-0.3-0.1-0.6-0.2-0.8-0.4c-0.3-0.2-0.5-0.3-0.6-0.5
		c-0.1,0.2-0.3,0.3-0.6,0.5c-0.2,0.2-0.5,0.3-0.8,0.4l-0.3-0.4c0.4-0.2,0.7-0.4,0.9-0.6c0.3-0.3,0.4-0.7,0.4-1.1H4v-0.5H7z
		 M5.1,38.1h3.4v0.5H5c-0.3,0-0.5,0-0.6-0.1c-0.1-0.1-0.2-0.2-0.2-0.4v-0.9h0.8V38.1z M8.5,37.5H7.6v-1.6H6.7v-0.5h0.9v-1h0.8V37.5z
		"/>
	<path style="clip-path:url(#SVGID_00000173867352400644854550000009982965209794719129_);fill:#FFFFFF;" d="M10.3,34.7v-0.4h0.8
		v0.4h0.8v0.5h-0.8v0.7c0,0.5,0.1,1,0.3,1.4c0.2,0.3,0.4,0.6,0.7,0.8l-0.5,0.3c-0.2-0.1-0.4-0.3-0.5-0.5c-0.2-0.2-0.3-0.5-0.3-0.8
		c-0.1,0.3-0.2,0.6-0.4,0.8c-0.2,0.2-0.3,0.4-0.6,0.5L9.3,38c0.3-0.2,0.5-0.4,0.7-0.8c0.2-0.4,0.3-0.8,0.3-1.4v-0.7H9.5v-0.5H10.3z
		 M11.5,36.5V36h0.7v-1.7h0.8v4.3h-0.8v-2.2H11.5z M14.3,38.7h-0.8v-4.3h0.8V38.7z"/>
	<path style="clip-path:url(#SVGID_00000173867352400644854550000009982965209794719129_);fill:#FFFFFF;" d="M18.1,34.9
		c0.3,0.4,0.4,0.8,0.4,1.4c0,0.6-0.1,1.1-0.4,1.5c-0.3,0.4-0.6,0.6-1.1,0.6c-0.5,0-0.9-0.2-1.1-0.6c-0.3-0.4-0.4-0.9-0.4-1.5
		c0-0.6,0.1-1,0.4-1.4c0.3-0.4,0.7-0.6,1.1-0.6C17.4,34.3,17.8,34.5,18.1,34.9 M16.4,35.2c-0.1,0.3-0.2,0.6-0.2,1.1
		c0,0.5,0.1,0.8,0.2,1.1c0.1,0.3,0.3,0.5,0.5,0.5c0.2,0,0.4-0.2,0.5-0.5c0.1-0.3,0.2-0.7,0.2-1.1c0-0.4-0.1-0.8-0.2-1.1
		c-0.1-0.3-0.3-0.4-0.5-0.4C16.7,34.8,16.6,34.9,16.4,35.2 M20,38.7h-0.8v-4.3H20V38.7z"/>
	<path style="clip-path:url(#SVGID_00000173867352400644854550000009982965209794719129_);fill:#FFFFFF;" d="M21.5,35.6
		c-0.1-0.1-0.2-0.2-0.2-0.4c0-0.2,0.2-0.5,0.5-0.6c0.4-0.2,0.9-0.3,1.6-0.3c0.7,0,1.2,0.1,1.6,0.3c0.4,0.2,0.5,0.4,0.5,0.6
		c0,0.1-0.1,0.3-0.2,0.4c-0.1,0.1-0.3,0.2-0.5,0.3v0.5H26v0.5h-4.9v-0.5H22v-0.5C21.8,35.8,21.7,35.7,21.5,35.6 M25.1,37.3
		c0.4,0.2,0.5,0.4,0.5,0.6c0,0.2-0.2,0.4-0.5,0.6c-0.4,0.2-0.9,0.3-1.6,0.3c-0.7,0-1.2-0.1-1.6-0.3c-0.3-0.2-0.5-0.4-0.5-0.6
		c0-0.2,0.2-0.4,0.5-0.6c0.4-0.2,0.9-0.3,1.6-0.3C24.2,37.1,24.7,37.2,25.1,37.3 M22.6,34.9c-0.2,0.1-0.3,0.2-0.3,0.3
		c0,0.1,0.1,0.2,0.3,0.3c0.2,0.1,0.6,0.1,1,0.1c0.4,0,0.7,0,1-0.1c0.2-0.1,0.3-0.2,0.3-0.3c0-0.1-0.1-0.2-0.3-0.3
		c-0.2-0.1-0.6-0.1-1-0.1C23.1,34.8,22.8,34.8,22.6,34.9 M22.6,37.7c-0.2,0.1-0.3,0.1-0.3,0.2c0,0.1,0.1,0.2,0.3,0.2
		c0.2,0.1,0.6,0.1,1,0.1c0.4,0,0.7,0,0.9-0.1c0.2-0.1,0.3-0.1,0.3-0.2c0-0.1-0.1-0.2-0.3-0.2c-0.2-0.1-0.5-0.1-0.9-0.1
		C23.2,37.6,22.8,37.6,22.6,37.7 M24.2,36.3v-0.3c-0.1,0-0.2,0-0.3,0c-0.1,0-0.2,0-0.4,0c-0.1,0-0.3,0-0.4,0c-0.1,0-0.2,0-0.3,0v0.3
		H24.2z"/>
	<path style="clip-path:url(#SVGID_00000173867352400644854550000009982965209794719129_);fill:#FFFFFF;" d="M29.6,34.4v1.3
		c0,0.6-0.2,1.2-0.6,1.6c-0.4,0.4-1,0.7-1.7,1L26.9,38c0.6-0.2,1-0.4,1.3-0.7c0.4-0.4,0.6-0.8,0.6-1.3v-1H27v-0.5H29.6z M31.4,34.3
		v1.8H32v0.5h-0.6v2.1h-0.8v-4.3H31.4z"/>
</g>
</svg>
