<?xml version="1.0" encoding="utf-8"?>
<!-- Generator: Adobe Illustrator 25.4.1, SVG Export Plug-In . SVG Version: 6.00 Build 0)  -->
<svg version="1.1" id="Layer_1" xmlns="http://www.w3.org/2000/svg" xmlns:xlink="http://www.w3.org/1999/xlink" x="0px" y="0px"
	 viewBox="0 0 100 93.7" style="enable-background:new 0 0 100 93.7;" xml:space="preserve">
<style type="text/css">
	.st0{fill:#D73534;}
	.st1{fill:url(#SVGID_1_);}
	.st2{fill:url(#SVGID_00000183935376955119312260000006797684655122998191_);}
	.st3{fill:url(#SVGID_00000106128857912001188080000009894039648239187594_);}
	.st4{fill:url(#SVGID_00000075146102964831229640000013281876032145880988_);}
</style>
<g>
	<path class="st0" d="M48.4,76.5L45,88.3l-2.3,0l3.5,5.4l-5.6,0l-3.5-5.4h0l-1.6,5.4l-4.7,0l4.9-17.1L48.4,76.5z M43,78.9l-3.3,0
		l-2,6.3l3.3,0L43,78.9z"/>
	<path class="st0" d="M55.4,76.5l-4.3,14.8l3.2,0l4.3-14.8l4.7,0l-4.9,17.1l-12.6,0l4.9-17.1L55.4,76.5z"/>
	<path class="st0" d="M78.2,76.5l-2,7l-4.7,0l1.3-4.7l-3.3,0L66,91.3l3.3,0l0.9-3l-1.6,0l0.7-3l6.3,0l-2.2,8.4l-12.6,0l4.9-17.1
		L78.2,76.5z"/>
	<path class="st0" d="M99.9,76.5L99.9,76.5l-12.1,0l0,0l3.1,0l-5.8,0l0,0l-4.6,0l-4.9,17.1l4.7,0l4.3-14.8l7.6,0l2.6,0l-1,3h-5.6
		l-2.3,0l-3.4,11.8l12.6,0L99.9,76.5L99.9,76.5z M87.8,91.3l1.8-6l3.2,0l-1.9,6L87.8,91.3z"/>
	<path class="st0" d="M21.2,91.3l1-3h5.1h0.5h1.5l0,0c0.4,0,0.8,0,0.8,0l0.4-1.4l3-10.4l-12.6,0l-4.9,17.1H16l0,0l12.1,0l0,0l-3.1,0
		l5.8,0l0.7-2.4l-7.7,0L21.2,91.3z M26.3,85.2l-3.3,0l1.9-6.2h3.3L26.3,85.2z"/>
	<path class="st0" d="M5.1,93.6l1.6-5.4l8.6,0L19,76.5l-13.7,0L0,93.6H5.1z M9.6,80l3.5,0l-1.8,5.1H7.7L9.6,80z"/>
	<path class="st0" d="M50,11.8L30.5,23.7l0,23.2l6.3,3.3V27.3L50.1,35l19.4-11.2L50,11.8z M50,28l-7-4.1l7-4.2l7,4.2L50,28z"/>
	<linearGradient id="SVGID_1_" gradientUnits="userSpaceOnUse" x1="19.6843" y1="35.0054" x2="80.3157" y2="35.0054">
		<stop  offset="0" style="stop-color:#929292"/>
		<stop  offset="0.6397" style="stop-color:#FFFFFF"/>
	</linearGradient>
	<path class="st1" d="M50,0L19.7,17.5v35L50,70l30.3-17.5v-35L50,0z M26.4,21.4L50,7.7l23.6,13.6v27.3L50,62.3L26.4,48.6V21.4z"/>
	
		<linearGradient id="SVGID_00000160912453618741514690000001556627448256252860_" gradientUnits="userSpaceOnUse" x1="19.6843" y1="43.7567" x2="50.1493" y2="43.7567">
		<stop  offset="0.4832" style="stop-color:#FFFFFF"/>
		<stop  offset="1" style="stop-color:#737373"/>
	</linearGradient>
	<polygon style="fill:url(#SVGID_00000160912453618741514690000001556627448256252860_);" points="50,62.3 26.4,48.6 26.4,21.4 
		26.4,21.4 19.7,17.5 19.7,52.5 50,70 50.1,69.9 50.1,62.2 	"/>
	
		<linearGradient id="SVGID_00000007423734756459814700000015126949062965115818_" gradientUnits="userSpaceOnUse" x1="33.6277" y1="23.7379" x2="33.6277" y2="50.1658">
		<stop  offset="0" style="stop-color:#98221F"/>
		<stop  offset="1" style="stop-color:#D73534"/>
	</linearGradient>
	<polygon style="fill:url(#SVGID_00000007423734756459814700000015126949062965115818_);" points="30.5,46.9 36.8,50.2 36.8,27.3 
		30.5,23.7 	"/>
	
		<linearGradient id="SVGID_00000135677681486514610210000018361898093879804071_" gradientUnits="userSpaceOnUse" x1="80.3157" y1="43.7567" x2="50" y2="43.7567">
		<stop  offset="0" style="stop-color:#929292"/>
		<stop  offset="0.6453" style="stop-color:#FFFFFF"/>
	</linearGradient>
	<polygon style="fill:url(#SVGID_00000135677681486514610210000018361898093879804071_);" points="73.6,21.4 73.6,21.4 73.6,48.6 
		50,62.3 50,70 80.3,52.5 80.3,17.5 	"/>
</g>
</svg>
