<svg width="109" height="60" viewBox="0 0 109 60" fill="none" xmlns="http://www.w3.org/2000/svg">
<path d="M4.72408 46.6741C4.72408 48.3038 3.93634 49.0836 2.35866 49.0836C1.56873 49.0836 0.9626 48.9018 0.608114 48.479C0.193132 47.992 -0.0232864 47.3663 0.00198853 46.7267V34.4098C0.00198853 32.8392 0.791922 32.055 2.30833 32.055H7.09169C8.00437 32.0406 8.91112 32.2043 9.76127 32.5369C10.4745 32.8152 11.1172 33.2484 11.6431 33.8052C12.1312 34.3024 12.5046 34.9005 12.7372 35.5576C12.9747 36.1954 13.0977 36.8702 13.1004 37.5509C13.0892 38.2258 12.9876 38.8962 12.7985 39.5442C12.5722 40.1774 12.244 40.7694 11.8269 41.2966C11.3833 41.7971 10.8477 42.2075 10.2492 42.5057C9.58753 42.828 8.86038 42.9929 8.12451 42.9876H7.33677C5.87944 42.9876 5.21205 42.3304 5.21205 41.0556C5.21205 40.5715 5.27331 40.2692 5.45493 40.0283C5.61747 39.7856 5.84818 39.5966 6.11795 39.4851C6.38955 39.3689 6.67487 39.2879 6.96697 39.2441C7.27112 39.1828 7.57528 39.1214 7.81817 39.0623C8.05478 38.9765 8.27634 38.8538 8.47462 38.6987C8.57678 38.5963 8.65641 38.4736 8.70841 38.3385C8.76041 38.2035 8.78364 38.0591 8.77659 37.9145C8.77659 37.069 8.293 36.6462 7.26018 36.6462H4.72408V46.6741V46.6741Z" fill="#34C5EF"/>
<path d="M13.9735 46.5777V34.2017C13.9735 32.6246 14.7715 31.836 16.3674 31.836H24.4636C24.7951 31.8208 25.126 31.8779 25.4332 32.0035C25.7404 32.1291 26.0166 32.3201 26.2426 32.5632C26.6398 33.04 26.8573 33.6412 26.8573 34.2619C26.8573 34.8827 26.6398 35.4838 26.2426 35.9606C25.805 36.4469 25.2601 36.69 24.4636 36.69H18.7612V38.1445H23.3039C23.6356 38.1291 23.9667 38.1864 24.274 38.3124C24.5812 38.4383 24.8573 38.63 25.0829 38.8739C25.48 39.3507 25.6975 39.9518 25.6975 40.5726C25.6975 41.1934 25.48 41.7945 25.0829 42.2713C24.6453 42.7554 24.1004 42.9985 23.3039 42.9985H18.7612V44.4661H24.4702C24.8017 44.4509 25.1325 44.508 25.4397 44.6336C25.7469 44.7592 26.0231 44.9502 26.2492 45.1934C26.6463 45.6702 26.8638 46.2713 26.8638 46.8921C26.8638 47.5128 26.6463 48.114 26.2492 48.5908C25.8116 49.077 25.2667 49.3202 24.4702 49.3202H16.3739C14.7722 49.3092 13.9735 48.1549 13.9735 46.5777Z" fill="#34C5EF"/>
<path d="M36.8552 46.7201C36.8552 47.5109 36.6101 48.0563 36.1178 48.4725C35.6436 48.8872 35.0292 49.105 34.4001 49.0814C33.7911 49.0937 33.1998 48.8764 32.7436 48.4725C32.2513 48.0475 32.0062 47.5021 32.0062 46.7201V36.6966H30.3497C30.0177 36.7119 29.6864 36.6546 29.3788 36.5286C29.0711 36.4027 28.7946 36.2111 28.5686 35.9672C28.1727 35.489 27.9561 34.8874 27.9561 34.2663C27.9561 33.6452 28.1727 33.0437 28.5686 32.5654C29.0062 32.0792 29.551 31.836 30.3497 31.836H38.446C38.778 31.8207 39.1094 31.878 39.417 32.004C39.7246 32.13 40.0011 32.3216 40.2272 32.5654C40.623 33.0437 40.8397 33.6452 40.8397 34.2663C40.8397 34.8874 40.623 35.489 40.2272 35.9672C39.7895 36.4535 39.2447 36.6966 38.446 36.6966H36.8508V46.7201H36.8552Z" fill="#34C5EF"/>
<path d="M46.8904 46.6741C46.8904 48.3038 46.1004 49.0836 44.5227 49.0836C43.7328 49.0836 43.1267 48.9018 42.7722 48.479C42.3557 47.9927 42.1383 47.3667 42.1639 46.7267V34.4098C42.1639 32.8392 42.9538 32.055 44.4702 32.055H49.2645C50.1779 32.0404 51.0854 32.2041 51.9363 32.5369C52.6486 32.8158 53.2905 33.2489 53.8159 33.8052C54.3048 34.3018 54.6783 34.9001 54.91 35.5576C55.1482 36.1952 55.272 36.8701 55.2755 37.5509C55.2634 38.2259 55.1611 38.8963 54.9713 39.5442C54.7459 40.1778 54.4177 40.7699 53.9998 41.2965C53.5566 41.7976 53.0209 42.2081 52.4221 42.5057C51.7611 42.8277 51.0347 42.9926 50.2995 42.9876H49.5096C48.0545 42.9876 47.3871 42.3304 47.3871 41.0556C47.3871 40.5715 47.4462 40.2692 47.6278 40.0283C47.7928 39.7853 48.0257 39.5964 48.2974 39.485C48.5688 39.3683 48.8541 39.2873 49.1464 39.2441C49.4483 39.1828 49.7525 39.1214 49.9954 39.0623C50.2358 38.9776 50.4612 38.8548 50.6628 38.6987C50.7653 38.5964 50.8454 38.4738 50.8977 38.3388C50.9501 38.2037 50.9737 38.0592 50.9669 37.9145C50.9669 37.069 50.4812 36.6462 49.4483 36.6462H46.8904V46.6741V46.6741Z" fill="#2E3C48"/>
<path d="M55.702 40.3547C55.703 39.1907 55.9258 38.0376 56.3585 36.9573C57.2525 34.8492 58.9324 33.1731 61.0412 32.285C62.1134 31.8234 63.2726 31.5992 64.4394 31.6279C65.6036 31.6289 66.7569 31.8519 67.8377 32.285C69.9423 33.1763 71.6183 34.8517 72.5116 36.9573C72.9769 38.0281 73.2046 39.1872 73.179 40.3547C73.1801 41.5199 72.9534 42.674 72.5116 43.752C71.6192 45.8577 69.9428 47.5327 67.8377 48.4221C66.7663 48.8875 65.6071 49.1154 64.4394 49.0902C63.274 49.0913 62.1196 48.8643 61.0412 48.4221C58.9361 47.5334 57.2601 45.8581 56.3694 43.752C55.9391 42.6706 55.7129 41.5187 55.702 40.3547V40.3547ZM60.4963 40.4138C60.4968 40.9347 60.5994 41.4504 60.7983 41.9318C60.9949 42.4085 61.2839 42.8415 61.6486 43.2058C62.0133 43.5701 62.4464 43.8585 62.923 44.0543C63.4056 44.2481 63.9196 44.3513 64.4394 44.3588C64.9792 44.3514 65.5133 44.2484 66.0171 44.0543C66.4978 43.865 66.9328 43.5753 67.2928 43.2044C67.6433 42.8295 67.9301 42.3996 68.1418 41.9318C68.3356 41.4488 68.4387 40.9342 68.446 40.4138C68.4385 39.8742 68.3355 39.3403 68.1418 38.8367C67.9526 38.3568 67.6632 37.9228 67.2928 37.564C66.9172 37.2123 66.4862 36.9252 66.0171 36.7141C65.5133 36.5201 64.9792 36.417 64.4394 36.4097C63.9189 36.411 63.4038 36.5145 62.923 36.7141C62.4464 36.91 62.0133 37.1984 61.6486 37.5627C61.2839 37.927 60.9949 38.36 60.7983 38.8367C60.6054 39.3404 60.5031 39.8744 60.4963 40.4138Z" fill="#2E3C48"/>
<path d="M64.4156 43.1171C64.8951 43.1166 65.3636 42.9739 65.7621 42.7069C66.1605 42.44 66.4709 42.0608 66.6541 41.6172C66.8373 41.1737 66.885 40.6857 66.7912 40.2151C66.6974 39.7444 66.4663 39.3121 66.1271 38.9729C65.7879 38.6337 65.3559 38.4027 64.8856 38.3092C64.4154 38.2158 63.928 38.264 63.485 38.4477C63.0421 38.6315 62.6636 38.9426 62.3972 39.3417C62.1309 39.7408 61.9888 40.21 61.9888 40.6899C61.9888 41.0088 62.0516 41.3246 62.1735 41.6192C62.2955 41.9139 62.4743 42.1815 62.6997 42.4069C62.9251 42.6324 63.1926 42.8111 63.4871 42.9329C63.7815 43.0548 64.097 43.1174 64.4156 43.1171V43.1171Z" fill="#34C5EF"/>
<path d="M79.5137 46.5164C79.5137 47.3006 79.2709 47.8438 78.7851 48.2687C78.3325 48.6696 77.7459 48.8854 77.1418 48.8733C76.5175 48.8956 75.9082 48.6794 75.4372 48.2687C74.9514 47.846 74.7085 47.3027 74.7085 46.5164V34.1929C74.7085 33.4065 74.9514 32.8633 75.4372 32.4405C75.9082 32.0298 76.5175 31.8137 77.1418 31.836C77.7459 31.8239 78.3325 32.0397 78.7851 32.4405C79.2709 32.8633 79.5137 33.4065 79.5137 34.1929V46.5164Z" fill="#2E3C48"/>
<path d="M86.0258 46.7113C86.0258 47.5043 85.7851 48.0541 85.3015 48.479C84.8388 48.8928 84.2344 49.1117 83.6144 49.0902C83.0138 49.1014 82.4315 48.8828 81.9864 48.479C81.5028 48.0541 81.2621 47.5043 81.2621 46.7113V34.274C81.2621 33.481 81.5028 32.9334 81.9864 32.5063C82.4317 32.1031 83.014 31.8853 83.6144 31.8973H83.7347C84.104 31.8771 84.4713 31.9641 84.7923 32.1479C85.1134 32.3318 85.3745 32.6045 85.5444 32.9334L89.8244 39.4566V34.2126C89.8244 33.4219 90.0673 32.8721 90.5487 32.4449C90.9941 32.0417 91.5764 31.8239 92.1767 31.836C92.7972 31.8133 93.4024 32.0315 93.866 32.4449C94.3474 32.8721 94.5881 33.4219 94.5881 34.2126V46.6566C94.5881 47.4495 94.3474 47.9993 93.866 48.4265C93.4017 48.8388 92.797 49.0568 92.1767 49.0354C91.8912 49.0292 91.6076 48.988 91.3321 48.9127C91.1146 48.8489 90.9107 48.7457 90.7303 48.6083C90.5805 48.5189 90.4555 48.393 90.3671 48.2425C90.2694 48.1561 90.1879 48.053 90.1264 47.938L86.0258 41.7193V46.7179V46.7113Z" fill="#2E3C48"/>
<path d="M104.367 46.7201C104.367 47.5108 104.122 48.0563 103.63 48.4724C103.156 48.8871 102.541 49.1049 101.912 49.0814C101.303 49.0937 100.712 48.8763 100.256 48.4724C99.7633 48.0475 99.5183 47.5021 99.5183 46.7201V36.6966H97.8618C97.5298 36.7119 97.1984 36.6546 96.8908 36.5286C96.5832 36.4026 96.3067 36.211 96.0806 35.9672C95.6848 35.4889 95.4681 34.8874 95.4681 34.2663C95.4681 33.6452 95.6848 33.0436 96.0806 32.5654C96.5183 32.0791 97.0631 31.836 97.8618 31.836H105.958C106.29 31.8204 106.622 31.8776 106.929 32.0036C107.237 32.1296 107.513 32.3213 107.739 32.5654C108.135 33.0436 108.352 33.6452 108.352 34.2663C108.352 34.8874 108.135 35.4889 107.739 35.9672C107.513 36.2113 107.237 36.403 106.929 36.529C106.622 36.655 106.29 36.7122 105.958 36.6966H104.367V46.7201Z" fill="#2E3C48"/>
<g opacity="0.6">
<path opacity="0.6" d="M32.2272 56.5138V58.2247C32.2318 58.258 32.2287 58.2919 32.218 58.3238C32.2074 58.3557 32.1896 58.3848 32.166 58.4087C32.1423 58.432 32.1137 58.4497 32.0822 58.4603C32.0507 58.4709 32.0173 58.4742 31.9843 58.47C31.9511 58.4743 31.9174 58.4709 31.8857 58.4601C31.854 58.4493 31.8252 58.4313 31.8015 58.4076C31.7778 58.3839 31.7599 58.3551 31.7491 58.3234C31.7383 58.2917 31.7349 58.2579 31.7392 58.2247V54.7416C31.744 54.3857 31.8535 54.039 32.0542 53.7451C32.2548 53.4512 32.5375 53.223 32.8671 53.0892C33.1966 52.9553 33.5583 52.9218 33.9068 52.9927C34.2552 53.0637 34.5751 53.2359 34.8263 53.4879C35.0774 53.74 35.2487 54.0606 35.3188 54.4096C35.3888 54.7586 35.3544 55.1205 35.2199 55.4501C35.0854 55.7796 34.8568 56.0622 34.5627 56.2623C34.2686 56.4624 33.9221 56.5712 33.5665 56.5752L32.2272 56.5138V56.5138ZM32.2272 56.0253H33.5665C33.824 56.0288 34.0766 55.9554 34.2923 55.8144C34.5079 55.6735 34.6766 55.4714 34.777 55.234C34.8773 54.9966 34.9047 54.7346 34.8556 54.4815C34.8066 54.2285 34.6833 53.9958 34.5015 53.8132C34.3197 53.6306 34.0877 53.5064 33.8351 53.4564C33.5824 53.4064 33.3207 53.433 33.0832 53.5326C32.8457 53.6322 32.6432 53.8005 32.5017 54.0158C32.3601 54.2312 32.2859 54.4839 32.2885 54.7416L32.2272 56.0253Z" fill="black"/>
<path opacity="0.6" d="M39.5972 55.5981C39.5972 55.6572 39.6562 55.7186 39.5972 55.7799C39.5951 55.8118 39.5815 55.8418 39.559 55.8644C39.5364 55.8869 39.5064 55.9005 39.4746 55.9026C39.1092 56.0866 38.6234 56.2684 38.0741 56.5138C37.3432 56.8182 36.8574 57.0636 36.5423 57.1863C36.6821 57.3964 36.8724 57.5681 37.0956 57.6856C37.3189 57.8031 37.5681 57.8626 37.8203 57.8588C38.1466 57.8413 38.462 57.7353 38.7328 57.5521C38.9808 57.3641 39.1704 57.1097 39.2799 56.8182C39.3411 56.6978 39.4024 56.6364 39.525 56.6364C39.5862 56.6364 39.6453 56.6978 39.7066 56.7591C39.7679 56.8204 39.7679 56.8796 39.7066 57.0023C39.5777 57.4005 39.3207 57.7448 38.9757 57.9814C38.6376 58.2201 38.2339 58.3479 37.8203 58.3473C37.556 58.357 37.2929 58.3071 37.0505 58.2013C36.808 58.0956 36.5925 57.9365 36.4198 57.7361C36.2306 57.5535 36.0794 57.3352 35.975 57.0939C35.8706 56.8525 35.815 56.5928 35.8114 56.3297C35.8011 56.065 35.8504 55.8013 35.9557 55.5582C36.061 55.3152 36.2196 55.099 36.4198 54.9256C36.6008 54.7355 36.8179 54.5835 37.0584 54.4785C37.2989 54.3736 37.5579 54.3178 37.8203 54.3144C38.2037 54.3293 38.5783 54.4336 38.9144 54.6189C39.1891 54.9098 39.4191 55.2397 39.5972 55.5981V55.5981ZM37.8312 54.9256C37.6374 54.9111 37.4428 54.9422 37.2631 55.0164C37.0834 55.0906 36.9235 55.2057 36.7961 55.3528C36.6569 55.4872 36.5463 55.6486 36.471 55.827C36.3958 56.0055 36.3575 56.1974 36.3585 56.3911C36.3574 56.5164 36.3782 56.6409 36.4198 56.7591L39.0982 55.5368C38.6781 55.1687 38.2535 54.9256 37.8268 54.9256H37.8312Z" fill="black"/>
<path opacity="0.6" d="M40.5663 52.9081C40.5994 52.9042 40.6329 52.9079 40.6643 52.9188C40.6957 52.9298 40.7242 52.9478 40.7476 52.9715C40.771 52.9951 40.7888 53.0238 40.7994 53.0553C40.8101 53.0869 40.8135 53.1204 40.8093 53.1535V54.4963H41.5992C41.6324 54.492 41.6662 54.4954 41.6979 54.5062C41.7296 54.517 41.7584 54.5349 41.782 54.5586C41.8057 54.5823 41.8236 54.6112 41.8344 54.6429C41.8452 54.6746 41.8486 54.7084 41.8443 54.7416C41.8486 54.7749 41.8452 54.8087 41.8344 54.8404C41.8236 54.8721 41.8057 54.9009 41.782 54.9246C41.7584 54.9483 41.7296 54.9663 41.6979 54.9771C41.6662 54.9879 41.6324 54.9913 41.5992 54.987H40.8093V57.4908C40.8222 57.6208 40.8632 57.7464 40.9296 57.8588C40.9771 57.9058 41.0348 57.9413 41.0981 57.9626C41.1615 57.9839 41.2288 57.9903 41.2951 57.9815H41.5992C41.6323 57.9774 41.6659 57.9806 41.6976 57.9908C41.7294 58.001 41.7585 58.018 41.783 58.0406C41.8067 58.0645 41.8245 58.0936 41.8351 58.1255C41.8458 58.1574 41.8489 58.1913 41.8443 58.2246C41.8486 58.2579 41.8452 58.2917 41.8344 58.3234C41.8236 58.3551 41.8057 58.3839 41.782 58.4076C41.7584 58.4313 41.7296 58.4493 41.6979 58.4601C41.6662 58.4709 41.6324 58.4743 41.5992 58.47H41.2951C41.042 58.452 40.8039 58.343 40.6249 58.163C40.4459 57.983 40.3381 57.7442 40.3213 57.4908V53.1535C40.3167 53.1202 40.3198 53.0862 40.3304 53.0543C40.3411 53.0224 40.3589 52.9934 40.3825 52.9695C40.4438 52.9081 40.4438 52.9081 40.5663 52.9081V52.9081Z" fill="black"/>
<path opacity="0.6" d="M42.7569 57.9812L42.2689 59.1422H41.9647L42.2689 58.0469H42.7569V57.9812Z" fill="black"/>
<path opacity="0.6" d="M46.8357 55.0461C47.2166 55.4157 47.4354 55.9215 47.444 56.4524V58.2246C47.4483 58.2578 47.445 58.2916 47.4342 58.3233C47.4234 58.355 47.4054 58.3839 47.3818 58.4076C47.3581 58.4313 47.3293 58.4492 47.2976 58.46C47.2659 58.4708 47.2322 58.4742 47.199 58.4699C47.1659 58.4739 47.1324 58.4702 47.101 58.4592C47.0696 58.4483 47.0411 58.4303 47.0177 58.4066C46.9943 58.3829 46.9765 58.3543 46.9659 58.3227C46.9552 58.2912 46.9518 58.2576 46.9561 58.2246V57.7974C46.4702 58.2246 45.9823 58.4699 45.4352 58.4699C45.1709 58.4798 44.9077 58.43 44.6653 58.3242C44.4228 58.2184 44.2073 58.0593 44.0347 57.8588C43.8457 57.676 43.6947 57.4577 43.5903 57.2164C43.4859 56.975 43.4301 56.7154 43.4263 56.4524C43.4163 56.1874 43.4657 55.9235 43.571 55.6801C43.6763 55.4367 43.8347 55.2201 44.0347 55.0461C44.2161 54.8564 44.4333 54.7048 44.6737 54.5998C44.9141 54.4949 45.1729 54.4389 45.4352 54.4349C45.9823 54.4349 46.409 54.6802 46.8357 55.0461ZM44.3388 55.4185C44.2015 55.5538 44.093 55.7156 44.0196 55.894C43.9463 56.0725 43.9097 56.2639 43.9121 56.4568C43.8982 56.6511 43.9295 56.846 44.0035 57.0262C44.0776 57.2063 44.1923 57.3669 44.3388 57.4951C44.4725 57.6348 44.6333 57.7457 44.8112 57.821C44.9892 57.8963 45.1807 57.9345 45.3739 57.9332C45.5686 57.9462 45.7637 57.9133 45.9434 57.8372C46.1232 57.7611 46.2826 57.644 46.409 57.4951C46.5483 57.3607 46.6589 57.1993 46.7341 57.0208C46.8093 56.8424 46.8476 56.6505 46.8466 56.4568C46.8592 56.2616 46.8262 56.0661 46.7503 55.8859C46.6743 55.7057 46.5575 55.5456 46.409 55.4185C46.2754 55.2787 46.1146 55.1677 45.9366 55.0924C45.7587 55.017 45.5672 54.9789 45.3739 54.9803C45.1789 54.9645 44.9829 54.9961 44.8027 55.0724C44.6225 55.1486 44.4634 55.2674 44.3388 55.4185Z" fill="black"/>
<path opacity="0.6" d="M48.538 58.2246C48.5421 58.2577 48.5389 58.2913 48.5287 58.3231C48.5185 58.3549 48.5015 58.384 48.4789 58.4086C48.4551 58.4322 48.4261 58.4501 48.3942 58.4607C48.3623 58.4714 48.3284 58.4745 48.2951 58.4699C48.2622 58.4742 48.2287 58.4708 48.1972 58.4602C48.1658 58.4496 48.1371 58.4319 48.1135 58.4086C48.0898 58.3847 48.072 58.3556 48.0614 58.3237C48.0508 58.2918 48.0476 58.2579 48.0522 58.2246V56.1479C48.0739 55.7269 48.2563 55.3302 48.5617 55.0399C48.8672 54.7495 49.2723 54.5877 49.6934 54.5877C50.1146 54.5877 50.5197 54.7495 50.8251 55.0399C51.1305 55.3302 51.3129 55.7269 51.3347 56.1479V58.2246C51.3389 58.2576 51.3355 58.2912 51.3249 58.3227C51.3142 58.3543 51.2965 58.3829 51.273 58.4066C51.2496 58.4303 51.2211 58.4483 51.1897 58.4592C51.1583 58.4702 51.1248 58.4739 51.0918 58.4699V58.4699C51.0586 58.4742 51.0248 58.4708 50.9931 58.46C50.9614 58.4492 50.9326 58.4313 50.909 58.4076C50.8853 58.3839 50.8674 58.355 50.8566 58.3233C50.8458 58.2916 50.8424 58.2578 50.8467 58.2246V56.1479C50.8486 55.8532 50.7382 55.5689 50.5381 55.3527C50.4397 55.2394 50.3184 55.1483 50.1822 55.0852C50.0461 55.0222 49.8982 54.9887 49.7482 54.9869C49.5968 54.9824 49.4465 55.013 49.3091 55.0765C49.1716 55.14 49.0507 55.2346 48.956 55.3527C48.8509 55.4554 48.7692 55.5796 48.7167 55.7169C48.6642 55.8542 48.6421 56.0012 48.6518 56.1479V58.2246H48.538Z" fill="black"/>
<path opacity="0.6" d="M52.4943 56.6977C52.4922 56.991 52.6009 57.2742 52.7985 57.4907C52.8974 57.6043 53.019 57.6957 53.1555 57.7591C53.2919 57.8225 53.4402 57.8565 53.5907 57.8587C53.7421 57.8627 53.8924 57.8315 54.0298 57.7677C54.1672 57.7038 54.2881 57.609 54.3828 57.4907C54.4955 57.3914 54.586 57.2694 54.6486 57.1328C54.7111 56.9962 54.7444 56.848 54.7461 56.6977V54.6802C54.7418 54.647 54.7452 54.6132 54.756 54.5815C54.7668 54.5497 54.7847 54.5209 54.8084 54.4972C54.832 54.4735 54.8608 54.4556 54.8925 54.4448C54.9242 54.434 54.958 54.4306 54.9912 54.4349C55.0242 54.4309 55.0577 54.4346 55.0891 54.4456C55.1205 54.4565 55.149 54.4745 55.1724 54.4982C55.1959 54.5218 55.2136 54.5505 55.2243 54.5821C55.2349 54.6136 55.2383 54.6472 55.2341 54.6802V58.3472C55.2284 58.783 55.0534 59.1995 54.7461 59.5082C54.6058 59.6591 54.4367 59.7801 54.2487 59.864C54.0607 59.9479 53.8577 59.9931 53.6519 59.9967C53.3293 60.0183 53.0086 59.9328 52.7394 59.7536C52.4765 59.5917 52.2648 59.3585 52.1289 59.0811C52.1152 59.07 52.1041 59.056 52.0965 59.04C52.0889 59.0241 52.085 59.0067 52.085 58.9891C52.085 58.9714 52.0889 58.954 52.0965 58.9381C52.1041 58.9222 52.1152 58.9081 52.1289 58.8971C52.1309 58.8652 52.1445 58.8352 52.1671 58.8126C52.1896 58.79 52.2196 58.7765 52.2514 58.7744H52.433C52.4649 58.7765 52.4949 58.79 52.5174 58.8126C52.54 58.8352 52.5535 58.8652 52.5556 58.8971C52.6639 59.0867 52.809 59.2528 52.9823 59.3856C53.1829 59.5108 53.4156 59.5748 53.6519 59.5696C53.9506 59.5441 54.2306 59.4135 54.4421 59.2009C54.6537 58.9884 54.7831 58.7076 54.8074 58.4086V57.9201C54.4788 58.1842 54.0732 58.3342 53.6519 58.3472C53.2171 58.3419 52.8017 58.1666 52.4943 57.8587C52.3376 57.7093 52.2136 57.529 52.13 57.3292C52.0464 57.1293 52.005 56.9143 52.0085 56.6977V54.6802C52.0039 54.6469 52.0071 54.613 52.0177 54.5811C52.0283 54.5491 52.0461 54.5201 52.0698 54.4962C52.0934 54.4729 52.1221 54.4552 52.1535 54.4446C52.185 54.4339 52.2185 54.4306 52.2514 54.4349C52.2844 54.4306 52.3178 54.4339 52.3493 54.4446C52.3808 54.4552 52.4094 54.4729 52.433 54.4962C52.4567 54.5201 52.4745 54.5491 52.4851 54.5811C52.4958 54.613 52.4989 54.6469 52.4943 54.6802V56.6977V56.6977Z" fill="black"/>
<path opacity="0.6" d="M56.4462 56.8182C56.4442 57.1121 56.5528 57.396 56.7504 57.6134C56.8522 57.7191 56.9758 57.8013 57.1126 57.8543C57.2495 57.9072 57.3962 57.9297 57.5425 57.9201C57.8353 57.9224 58.1178 57.8127 58.3325 57.6134C58.4385 57.5113 58.5209 57.3872 58.5738 57.2498C58.6267 57.1125 58.6489 56.9651 58.6389 56.8182V54.6802C58.6348 54.6471 58.638 54.6135 58.6482 54.5817C58.6584 54.55 58.6754 54.5208 58.698 54.4962C58.7218 54.4726 58.7508 54.4547 58.7827 54.4441C58.8146 54.4335 58.8485 54.4303 58.8818 54.4349C58.9147 54.4307 58.9482 54.434 58.9797 54.4446C59.0111 54.4552 59.0398 54.4729 59.0634 54.4962C59.087 54.5201 59.1049 54.5492 59.1155 54.5811C59.1261 54.613 59.1293 54.6469 59.1247 54.6802V56.8182C59.1227 57.1121 59.2313 57.396 59.4289 57.6134C59.5306 57.7192 59.6542 57.8015 59.791 57.8545C59.9279 57.9075 60.0746 57.9299 60.221 57.9201C60.5138 57.9224 60.7963 57.8127 61.011 57.6134C61.1167 57.5112 61.1988 57.387 61.2513 57.2497C61.3039 57.1123 61.3257 56.965 61.3152 56.8182V54.6802C61.3109 54.647 61.3143 54.6132 61.3251 54.5815C61.3358 54.5498 61.3538 54.521 61.3775 54.4973C61.4011 54.4736 61.4299 54.4556 61.4616 54.4448C61.4933 54.434 61.5271 54.4306 61.5603 54.4349C61.5933 54.431 61.6268 54.4346 61.6582 54.4456C61.6896 54.4566 61.7181 54.4746 61.7415 54.4982C61.7649 54.5219 61.7827 54.5506 61.7933 54.5821C61.804 54.6136 61.8074 54.6472 61.8032 54.6802V56.8182C61.7978 57.2548 61.6228 57.672 61.3152 57.9814C61.1669 58.1386 60.9876 58.2631 60.7887 58.3472C60.5898 58.4313 60.3756 58.4731 60.1597 58.4699C59.6127 58.4699 59.186 58.2246 58.7592 57.7361C58.6023 57.9625 58.393 58.1475 58.1491 58.2753C57.9052 58.4031 57.634 58.4699 57.3587 58.4699C56.9247 58.4641 56.5101 58.2888 56.2033 57.9814C56.0462 57.8318 55.9217 57.6511 55.8377 57.451C55.7537 57.2508 55.712 57.0353 55.7153 56.8182V54.6802C55.711 54.647 55.7144 54.6132 55.7252 54.5815C55.736 54.5498 55.7539 54.521 55.7776 54.4973C55.8013 54.4736 55.8301 54.4556 55.8618 54.4448C55.8934 54.434 55.9272 54.4306 55.9604 54.4349C55.9933 54.4307 56.0268 54.434 56.0583 54.4446C56.0897 54.4552 56.1184 54.4729 56.142 54.4962C56.1657 54.5201 56.1835 54.5492 56.1941 54.5811C56.2047 54.613 56.2079 54.6469 56.2033 54.6802V56.8182H56.4462Z" fill="black"/>
<path opacity="0.6" d="M62.9035 52.9081C62.9365 52.9042 62.97 52.9079 63.0014 52.9188C63.0328 52.9298 63.0613 52.9478 63.0847 52.9715C63.1082 52.9951 63.1259 53.0238 63.1365 53.0553C63.1472 53.0869 63.1506 53.1204 63.1464 53.1535V54.9804C63.4734 54.712 63.8792 54.5581 64.3018 54.5423C64.7372 54.5474 65.1532 54.7233 65.4605 55.0321C65.7678 55.341 65.9418 55.7581 65.9452 56.194V58.2706C65.9498 58.304 65.9466 58.3379 65.936 58.3698C65.9254 58.4017 65.9076 58.4308 65.8839 58.4547C65.8603 58.478 65.8316 58.4957 65.8002 58.5063C65.7687 58.5169 65.7352 58.5202 65.7023 58.516C65.6694 58.5202 65.6359 58.5169 65.6044 58.5063C65.5729 58.4957 65.5443 58.478 65.5207 58.4547C65.497 58.4308 65.4792 58.4017 65.4686 58.3698C65.4579 58.3379 65.4548 58.304 65.4594 58.2706V56.194C65.4565 55.9069 65.3482 55.6309 65.1552 55.4185C65.0564 55.305 64.9347 55.2135 64.7983 55.1501C64.6618 55.0867 64.5135 55.0528 64.3631 55.0505C64.2119 55.0464 64.0619 55.0775 63.9248 55.1414C63.7877 55.2052 63.6673 55.3001 63.5731 55.4185C63.4671 55.5206 63.3847 55.6447 63.3318 55.7821C63.2789 55.9195 63.2566 56.0668 63.2667 56.2137V58.2904C63.2708 58.3235 63.2676 58.3571 63.2574 58.3889C63.2472 58.4207 63.2302 58.4498 63.2076 58.4744C63.1838 58.498 63.1547 58.5159 63.1229 58.5265C63.091 58.5372 63.0571 58.5403 63.0238 58.5357V58.5357C62.9909 58.54 62.9574 58.5366 62.9259 58.526C62.8945 58.5154 62.8658 58.4977 62.8422 58.4744C62.8185 58.4505 62.8007 58.4214 62.7901 58.3895C62.7795 58.3576 62.7763 58.3237 62.7809 58.2904V53.2148C62.7763 53.1815 62.7795 53.1476 62.7901 53.1157C62.8007 53.0837 62.8185 53.0547 62.8422 53.0308C62.7196 52.9081 62.7809 52.9081 62.9035 52.9081V52.9081Z" fill="black"/>
<path opacity="0.6" d="M70.2669 55.5981C70.2669 55.6572 70.3281 55.7186 70.2669 55.7799C70.2649 55.8114 70.2516 55.8412 70.2295 55.8637C70.2074 55.8862 70.1779 55.9 70.1465 55.9026C69.7811 56.0866 69.2931 56.2684 68.746 56.5138C68.0151 56.8182 67.5271 57.0636 67.2142 57.1863C67.3545 57.3964 67.5452 57.5681 67.7688 57.6856C67.9924 57.8031 68.2418 57.8626 68.4943 57.8588C68.8207 57.8413 69.1361 57.7353 69.4069 57.5521C69.6542 57.3635 69.8438 57.1093 69.9539 56.8182C70.0152 56.6978 70.0765 56.6364 70.1968 56.6364C70.2581 56.6364 70.3194 56.6978 70.3806 56.7591C70.4419 56.8204 70.4419 56.8796 70.3806 57.0023C70.251 57.4001 69.9942 57.7442 69.6498 57.9814C69.3114 58.2195 68.9079 58.3473 68.4943 58.3473C68.23 58.3572 67.9669 58.3074 67.7245 58.2016C67.482 58.0958 67.2665 57.9367 67.0938 57.7361C66.9047 57.5535 66.7535 57.3352 66.6491 57.0939C66.5447 56.8525 66.4891 56.5928 66.4855 56.3297C66.4751 56.065 66.5244 55.8013 66.6298 55.5582C66.7351 55.3152 66.8937 55.099 67.0938 54.9256C67.2748 54.7355 67.492 54.5835 67.7325 54.4785C67.973 54.3736 68.232 54.3178 68.4943 54.3144C68.8777 54.3293 69.2524 54.4336 69.5885 54.6189C69.8401 54.9804 70.0852 55.2914 70.2669 55.5981ZM68.4418 54.9256C68.248 54.9111 68.0534 54.9422 67.8737 55.0164C67.694 55.0906 67.5341 55.2057 67.4068 55.3528C67.2694 55.4881 67.1609 55.6499 67.0875 55.8283C67.0142 56.0068 66.9777 56.1982 66.98 56.3911C66.979 56.5164 66.9997 56.6409 67.0413 56.7591L69.7198 55.5368C69.2931 55.1687 68.9189 54.9256 68.4418 54.9256V54.9256Z" fill="black"/>
<path opacity="0.6" d="M72.6386 54.4349C72.6715 54.4306 72.705 54.434 72.7365 54.4446C72.7679 54.4552 72.7966 54.4729 72.8202 54.4962C72.8439 54.5201 72.8617 54.5492 72.8723 54.5811C72.8829 54.613 72.8861 54.6469 72.8815 54.6802C72.8861 54.7135 72.8829 54.7475 72.8723 54.7794C72.8617 54.8113 72.8439 54.8403 72.8202 54.8642C72.7966 54.8876 72.7679 54.9052 72.7365 54.9159C72.705 54.9265 72.6715 54.9298 72.6386 54.9256H72.3979C72.1448 54.9426 71.9066 55.051 71.7274 55.2307C71.5483 55.4105 71.4405 55.6492 71.4241 55.9026V58.1632C71.4284 58.1965 71.425 58.2303 71.4142 58.262C71.4034 58.2937 71.3855 58.3225 71.3618 58.3462C71.3381 58.3699 71.3093 58.3879 71.2776 58.3987C71.246 58.4095 71.2122 58.4129 71.179 58.4086C71.146 58.4125 71.1125 58.4089 71.0811 58.3979C71.0496 58.3869 71.0211 58.3689 70.9977 58.3453C70.9743 58.3216 70.9566 58.2929 70.9459 58.2614C70.9352 58.2298 70.9319 58.1963 70.9361 58.1632V55.9026C70.9352 55.71 70.9724 55.5191 71.0455 55.3409C71.1186 55.1627 71.2262 55.0008 71.362 54.8644C71.4979 54.728 71.6594 54.6198 71.8371 54.5461C72.0149 54.4724 72.2055 54.4346 72.3979 54.4349H72.6386Z" fill="black"/>
<path opacity="0.6" d="M76.8401 55.5981C76.8401 55.6572 76.9014 55.7186 76.8401 55.7799C76.838 55.8118 76.8245 55.8418 76.8019 55.8644C76.7794 55.8869 76.7494 55.9005 76.7176 55.9026C76.3543 56.0866 75.8663 56.2684 75.3192 56.5138C74.5883 56.8182 74.1003 57.0636 73.7874 57.1863C73.9277 57.3964 74.1184 57.5681 74.342 57.6856C74.5656 57.8031 74.8151 57.8626 75.0676 57.8588C75.3939 57.8413 75.7094 57.7353 75.9801 57.5521C76.2275 57.3635 76.417 57.1093 76.5272 56.8182C76.5884 56.6978 76.6497 56.6364 76.7701 56.6364C76.8313 56.6364 76.8926 56.6978 76.9539 56.7591C77.0152 56.8204 77.0152 56.8796 76.9539 57.0023C76.8243 57.4001 76.5674 57.7442 76.223 57.9814C75.8847 58.2195 75.4812 58.3473 75.0676 58.3473C74.8033 58.3572 74.5401 58.3074 74.2977 58.2016C74.0552 58.0958 73.8397 57.9367 73.6671 57.7361C73.4779 57.5535 73.3267 57.3352 73.2223 57.0939C73.1179 56.8525 73.0623 56.5928 73.0587 56.3297C73.0484 56.065 73.0977 55.8013 73.203 55.5582C73.3083 55.3152 73.4669 55.099 73.6671 54.9256C73.8481 54.7355 74.0652 54.5835 74.3057 54.4785C74.5462 54.3736 74.8052 54.3178 75.0676 54.3144C75.451 54.3293 75.8256 54.4336 76.1617 54.6189C76.4348 54.9101 76.6634 55.24 76.8401 55.5981V55.5981ZM75.0763 54.9256C74.8825 54.9111 74.6879 54.9422 74.5082 55.0164C74.3285 55.0906 74.1686 55.2057 74.0413 55.3528C73.902 55.4872 73.7914 55.6486 73.7162 55.827C73.6409 56.0055 73.6026 56.1974 73.6036 56.3911C73.6025 56.5164 73.6233 56.6409 73.6649 56.7591L76.3587 55.5368C75.921 55.1687 75.5009 54.9256 75.0763 54.9256Z" fill="black"/>
</g>
<path d="M64.9209 39.3909C65.0212 39.3263 65.1157 39.253 65.2032 39.1718C65.2032 39.1718 75.7918 29.7529 78.7699 20.2901C79.273 18.7921 79.5208 17.2201 79.5029 15.6398C79.5029 7.44533 72.7436 0.801697 64.4045 0.801697C56.0653 0.801697 49.306 7.44533 49.306 15.6398V15.8063C49.3629 17.4666 49.5883 19.0722 50.1507 20.5114C53.1922 29.869 63.6102 39.1718 63.6102 39.1718C63.6759 39.2356 63.7494 39.2908 63.829 39.3361C63.9819 39.4423 64.1545 39.5168 64.3366 39.5551C64.5417 39.5478 64.742 39.4915 64.9209 39.3909V39.3909Z" fill="url(#paint0_linear_2_87)"/>
<path d="M64.9209 39.3909C65.0212 39.3263 65.1157 39.253 65.2032 39.1718C65.2032 39.1718 75.7918 29.7529 78.7699 20.2901C79.273 18.7921 79.5208 17.2201 79.5029 15.6398C79.5029 7.44533 72.7436 0.801697 64.4045 0.801697C56.0653 0.801697 49.306 7.44533 49.306 15.6398V15.8063C49.3629 17.4666 49.5883 19.0722 50.1507 20.5114C53.1922 29.869 63.6102 39.1718 63.6102 39.1718C63.6759 39.2356 63.7494 39.2908 63.829 39.3361C63.9819 39.4423 64.1545 39.5168 64.3366 39.5551C64.5417 39.5478 64.742 39.4915 64.9209 39.3909V39.3909Z" fill="url(#paint1_linear_2_87)"/>
<path d="M64.9209 39.3909C65.0212 39.3263 65.1157 39.253 65.2032 39.1718C65.2032 39.1718 75.7918 29.7529 78.7699 20.2901C79.273 18.7921 79.5208 17.2201 79.5029 15.6398C79.5029 7.44533 72.7436 0.801697 64.4045 0.801697C56.0653 0.801697 49.306 7.44533 49.306 15.6398V15.8063C49.3629 17.4666 49.5883 19.0722 50.1507 20.5114C53.1922 29.869 63.6102 39.1718 63.6102 39.1718C63.6759 39.2356 63.7494 39.2908 63.829 39.3361C63.9819 39.4423 64.1545 39.5168 64.3366 39.5551C64.5417 39.5478 64.742 39.4915 64.9209 39.3909V39.3909Z" fill="#19E7DA"/>
<path d="M64.9209 39.3909C65.0212 39.3263 65.1157 39.253 65.2032 39.1718C65.2032 39.1718 75.7918 29.7529 78.7699 20.2901C79.273 18.7921 79.5208 17.2201 79.5029 15.6398C79.5029 7.44533 72.7436 0.801697 64.4045 0.801697C56.0653 0.801697 49.306 7.44533 49.306 15.6398V15.8063C49.3629 17.4666 49.5883 19.0722 50.1507 20.5114C53.1922 29.869 63.6102 39.1718 63.6102 39.1718C63.6759 39.2356 63.7494 39.2908 63.829 39.3361C63.9819 39.4423 64.1545 39.5168 64.3366 39.5551C64.5417 39.5478 64.742 39.4915 64.9209 39.3909V39.3909Z" fill="url(#paint2_linear_2_87)"/>
<path d="M64.9209 39.3909C65.0212 39.3263 65.1157 39.253 65.2032 39.1718C65.2032 39.1718 75.7918 29.7529 78.7699 20.2901C79.273 18.7921 79.5208 17.2201 79.5029 15.6398C79.5029 7.44533 72.7436 0.801697 64.4045 0.801697C56.0653 0.801697 49.306 7.44533 49.306 15.6398V15.8063C49.3629 17.4666 49.5883 19.0722 50.1507 20.5114C53.1922 29.869 63.6102 39.1718 63.6102 39.1718C63.6759 39.2356 63.7494 39.2908 63.829 39.3361C63.9819 39.4423 64.1545 39.5168 64.3366 39.5551C64.5417 39.5478 64.742 39.4915 64.9209 39.3909V39.3909Z" fill="url(#paint3_linear_2_87)"/>
<path d="M64.9209 39.3909C65.0212 39.3263 65.1157 39.253 65.2032 39.1718C65.2032 39.1718 75.7918 29.7529 78.7699 20.2901C79.273 18.7921 79.5208 17.2201 79.5029 15.6398C79.5029 7.44533 72.7436 0.801697 64.4045 0.801697C56.0653 0.801697 49.306 7.44533 49.306 15.6398V15.8063C49.3629 17.4666 49.5883 19.0722 50.1507 20.5114C53.1922 29.869 63.6102 39.1718 63.6102 39.1718C63.6759 39.2356 63.7494 39.2908 63.829 39.3361C63.9819 39.4423 64.1545 39.5168 64.3366 39.5551C64.5417 39.5478 64.742 39.4915 64.9209 39.3909V39.3909Z" fill="#34C5EF"/>
<path d="M64.8201 27.7683C71.7013 27.7683 77.2796 22.2676 77.2796 15.4821C77.2796 8.69661 71.7013 3.19588 64.8201 3.19588C57.9389 3.19588 52.3606 8.69661 52.3606 15.4821C52.3606 22.2676 57.9389 27.7683 64.8201 27.7683Z" fill="#F2F8FF" stroke="#979797"/>
<path d="M64.4153 40.7555H64.2468C63.9848 40.7214 63.7344 40.6261 63.516 40.4773C63.3475 40.3656 63.2337 40.3108 63.2337 40.2583C62.796 39.8706 52.5116 30.5283 49.4109 20.91C48.8314 19.3051 48.5273 17.6136 48.5116 15.907V15.7384C48.5116 7.06201 55.6473 0 64.4153 0C73.1833 0 80.319 7.06201 80.319 15.734C80.3131 17.4142 80.0474 19.0834 79.5312 20.6822C76.4962 30.3574 66.0455 39.8662 65.6516 40.2539L65.3146 40.4729C65.0355 40.6226 64.7301 40.717 64.4153 40.7511V40.7555ZM64.3584 39.6428H64.4153C64.4974 39.6272 64.5733 39.5884 64.6341 39.531L64.6888 39.4763C64.7605 39.4391 64.8192 39.381 64.8573 39.3098C64.9711 39.1981 75.5356 29.6346 78.4568 20.2376C78.9548 18.7508 79.2069 17.1926 79.203 15.6245C79.203 7.56143 72.5728 0.948465 64.3672 0.948465C56.1615 0.948465 49.5313 7.51981 49.5313 15.6245V15.791C49.564 17.3778 49.8295 18.9513 50.319 20.461V20.461C53.3519 29.8011 63.7501 39.2529 63.8617 39.3098C63.9126 39.3544 63.9693 39.392 64.0302 39.4215L64.0871 39.4763C64.2468 39.588 64.3015 39.6471 64.3584 39.6471V39.6428Z" fill="#3D404A"/>
<path d="M76.9494 15.6792C76.9494 22.4302 71.3542 27.9457 64.5139 27.9457C57.619 27.9457 52.0785 22.4696 52.0785 15.6792C52.0785 8.92824 57.6759 3.41269 64.5139 3.41269C71.4111 3.40393 76.9494 8.87348 76.9494 15.6792Z" fill="white"/>
<path d="M64.5139 28.4014C57.3935 28.4014 51.5708 22.6537 51.5708 15.6245C51.5708 8.59535 57.3935 2.84761 64.5139 2.84761C71.6342 2.84761 77.4526 8.59316 77.4526 15.6245C77.4526 22.7106 71.6364 28.4014 64.5139 28.4014ZM64.5139 3.90779C57.9493 3.90779 52.5314 9.20649 52.5314 15.7362C52.5314 22.2068 57.9012 27.5646 64.5139 27.5646C71.1266 27.5646 76.4986 22.2638 76.4986 15.7362C76.4986 9.15172 71.1288 3.90779 64.5139 3.90779V3.90779Z" fill="#3D404A"/>
<path d="M64.5246 28.121C58.3583 28.121 53.3364 24.2242 53.3364 19.4688C53.3364 14.7133 58.3692 10.8165 64.5246 10.8165C70.6799 10.8165 75.7128 14.7111 75.7128 19.4688C75.7128 24.2264 70.6909 28.121 64.5246 28.121ZM64.5246 11.789C58.9032 11.789 54.3189 15.228 54.3189 19.4688C54.3189 23.7095 58.9141 27.1463 64.5246 27.1463C70.1351 27.1463 74.7303 23.7095 74.7303 19.4688C74.7303 15.228 70.2007 11.789 64.5246 11.789V11.789Z" fill="#3D404A"/>
<path d="M59.2491 11.5876C59.2491 12.5011 58.7699 13.1845 58.236 13.1845C57.702 13.1845 57.2228 12.4441 57.2228 11.5876C57.2228 10.6741 57.702 9.98847 58.236 9.98847C58.7699 9.98847 59.2491 10.7333 59.2491 11.5876Z" fill="#3D404A"/>
<path d="M72.2141 11.5876C72.2141 12.5011 71.7349 13.1845 71.2009 13.1845C70.667 13.1845 70.1899 12.4441 70.1899 11.5876C70.1899 10.6741 70.6692 9.98847 71.2009 9.98847C71.7874 9.98847 72.2141 10.7333 72.2141 11.5876Z" fill="#3D404A"/>
<path d="M64.6652 13.5545C59.9188 13.5545 57.9646 16.0802 60.3652 19.1667C62.711 22.2532 66.6194 22.2532 69.0221 19.1667C71.368 16.0233 69.4116 13.5545 64.6652 13.5545ZM67.626 16.4154C67.49 16.2342 67.3124 16.0887 67.1082 15.991C66.904 15.8934 66.6792 15.8466 66.453 15.8546C65.7834 15.9115 65.7834 14.8447 66.453 14.7878C67.2343 14.733 68.0724 15.2259 68.5188 15.8546C68.8536 16.4723 67.9608 16.9762 67.626 16.4154Z" fill="#3D404A"/>
<path d="M54.3958 13.25C54.3368 15.1033 53.5709 16.7352 52.6255 18.3081C52.3301 18.8141 53.1573 19.2632 53.4527 18.7462C54.514 17.0594 55.3412 15.261 55.4003 13.2391C55.3412 12.6214 54.3958 12.6214 54.3958 13.2391V13.25Z" fill="#3D404A"/>
<path d="M73.8354 13.25C73.8945 15.2215 74.6626 17.0704 75.783 18.7571C76.0785 19.2631 76.9056 18.8141 76.6102 18.319C75.6649 16.7462 74.8399 15.1142 74.8399 13.261C74.7808 12.6432 73.8354 12.6432 73.8354 13.261V13.25Z" fill="#3D404A"/>
<defs>
<linearGradient id="paint0_linear_2_87" x1="64.3242" y1="0.461388" x2="64.3242" y2="49.6838" gradientUnits="userSpaceOnUse">
<stop stop-color="#FFB88C"/>
<stop offset="0.51" stop-color="#EE808F"/>
<stop offset="1" stop-color="#EC7F8D"/>
</linearGradient>
<linearGradient id="paint1_linear_2_87" x1="64.3242" y1="0.461388" x2="64.3242" y2="39.2192" gradientUnits="userSpaceOnUse">
<stop stop-color="#5983E9"/>
<stop offset="0.49" stop-color="#3AB4E1"/>
<stop offset="1" stop-color="#19E6DA"/>
</linearGradient>
<linearGradient id="paint2_linear_2_87" x1="64.3242" y1="0.461388" x2="64.3242" y2="39.2192" gradientUnits="userSpaceOnUse">
<stop stop-color="#FF5B6E"/>
<stop offset="1" stop-color="#FF8465"/>
</linearGradient>
<linearGradient id="paint3_linear_2_87" x1="64.3242" y1="0.461388" x2="64.3242" y2="39.2192" gradientUnits="userSpaceOnUse">
<stop stop-color="#5054C8"/>
<stop offset="0.48" stop-color="#5A82E9"/>
<stop offset="1" stop-color="#1BE3DA"/>
</linearGradient>
</defs>
</svg>
