<svg width="231" height="44" viewBox="0 0 231 44" fill="none" xmlns="http://www.w3.org/2000/svg">
<g clip-path="url(#clip0_614_3373)">
<path d="M16.5618 11.3187L25.6688 36.298C25.8835 36.9788 26.1993 37.6235 26.6055 38.2105C26.9288 38.563 27.3429 38.8196 27.8025 38.9521L29.7149 39.5245V40.3962C27.9326 40.3962 26.2803 40.3962 24.7581 40.3962C23.2359 40.3962 21.3755 40.3962 19.2679 40.3962L19.1898 39.5245L21.1283 38.9521C21.3404 38.893 21.5362 38.7862 21.7007 38.6398C21.766 38.5655 21.8157 38.4789 21.847 38.385C21.8783 38.2912 21.8905 38.192 21.8829 38.0934C21.8623 37.7288 21.7877 37.3693 21.6617 37.0266C21.5186 36.5843 21.3234 35.9858 21.0632 35.2572L19.1247 29.728H9.28914L7.14249 35.1792C6.85627 35.9468 6.6351 36.5582 6.46596 37.0006C6.33009 37.3416 6.24674 37.7013 6.21877 38.0674C6.21259 38.163 6.2268 38.2588 6.26044 38.3486C6.29408 38.4383 6.3464 38.5198 6.41392 38.5878C6.58634 38.724 6.78599 38.8216 6.99938 38.874L8.89884 39.4855V40.3962C6.97335 40.3962 5.38613 40.3962 4.16318 40.3962C2.94024 40.3962 1.56117 40.3962 0.0650153 40.3962L-0.0390625 39.5245L2.05556 38.835C2.51022 38.7172 2.9129 38.4518 3.20044 38.0804C3.53048 37.5827 3.80532 37.0504 4.02007 36.4932L14.4281 11.5789L16.5618 11.3187ZM10.0567 27.9196H18.4742L14.4802 16.7179L10.0567 27.9196Z" fill="#0A1931"/>
<path d="M46.6282 13.6085C45.3723 13.1685 44.0554 12.9271 42.7252 12.8929C41.1859 12.8106 39.6665 13.271 38.4318 14.1939C37.9009 14.6326 37.4798 15.1892 37.202 15.8194C36.9242 16.4496 36.7974 17.1359 36.8316 17.8237C36.8113 18.6356 37.0042 19.4385 37.391 20.1525C37.7516 20.8277 38.2372 21.4282 38.8221 21.9219C39.4924 22.4262 40.2116 22.862 40.9688 23.2229C41.7754 23.6132 42.6081 24.0035 43.4667 24.3808C44.3254 24.7581 45.3141 25.2264 46.1988 25.6818C47.0603 26.1203 47.868 26.6573 48.6057 27.282C49.3181 27.894 49.9018 28.6413 50.323 29.4807C50.7677 30.4188 50.9861 31.4482 50.9605 32.4861C51.0171 33.7073 50.754 34.9221 50.1972 36.0104C49.6405 37.0988 48.8094 38.0231 47.7861 38.6919C45.3236 40.2181 42.458 40.9663 39.5637 40.8385C37.1112 40.8226 34.6726 40.468 32.3171 39.7847L32.187 39.6286L33.1888 32.6812L34.1125 32.5381L35.5436 38.3406C36.9499 38.9061 38.4513 39.1976 39.967 39.1992C41.6515 39.3149 43.3254 38.8563 44.7157 37.8982C45.5538 37.1451 46.1211 36.1373 46.3304 35.0301C46.5396 33.9229 46.3791 32.7776 45.8736 31.7705C45.5072 31.1026 45.0014 30.5213 44.3904 30.0662C43.7315 29.5656 43.0256 29.1299 42.2828 28.7652C41.4892 28.3749 40.6696 27.9846 39.8239 27.6073C38.9783 27.23 37.9505 26.7616 37.0528 26.3063C36.1863 25.8102 35.3826 25.2118 34.6589 24.5239C33.9208 23.8786 33.3268 23.0851 32.9156 22.1951C32.4642 21.1851 32.242 20.0877 32.2651 18.9816C32.2273 17.8404 32.4942 16.7097 33.0385 15.7059C33.5827 14.702 34.3845 13.8613 35.3615 13.2702C37.6593 11.8519 40.3257 11.1457 43.0244 11.2406C45.2952 11.2579 47.558 11.5108 49.7766 11.9952L49.9327 12.1383L48.7228 18.5133L47.9032 18.6564L46.6282 13.6085Z" fill="#0A1931"/>
<path d="M65.2192 40.3441C63.5539 40.3441 61.6935 40.3441 59.6769 40.3441L59.6379 39.5245L62.6692 38.6268C62.8173 38.5992 62.9508 38.52 63.0461 38.4033C63.1413 38.2866 63.1922 38.1399 63.1896 37.9893C63.1896 36.9615 63.1896 35.6345 63.1896 34.0863V13.6475H55.9691L54.1607 19.0857L53.341 19.2288L52.8076 11.9172L52.9507 11.748C56.3073 11.8088 59.5121 11.8391 62.5652 11.8391H68.0164C71.0737 11.8391 74.2872 11.8391 77.6828 11.748L77.7999 11.9172L76.4989 19.0857L75.6923 19.2288L74.3913 13.6475H67.1837V34.0343C67.1837 35.6345 67.1837 36.9615 67.1837 37.9373C67.1843 38.0891 67.2379 38.2359 67.3353 38.3523C67.4327 38.4688 67.5678 38.5475 67.7171 38.5748L70.7355 39.4725V40.3441C68.7449 40.3572 66.8455 40.3441 65.2192 40.3441Z" fill="#0A1931"/>
<path d="M88.1563 34.0733C88.1563 34.893 88.1563 35.6215 88.1563 36.272C88.1563 36.9225 88.1563 37.573 88.1563 38.0544C88.1423 38.2275 88.1875 38.4003 88.2844 38.5444C88.3812 38.6886 88.5242 38.7956 88.6897 38.848L90.9535 39.5245L91.0185 40.3962C89.4053 40.3962 87.779 40.3962 86.1658 40.3962C84.5525 40.3962 82.8222 40.3962 81.0919 40.3962L81.0138 39.5245L83.5247 38.7699C83.6747 38.7392 83.8105 38.6602 83.9115 38.5451C84.0125 38.4301 84.0731 38.2852 84.0842 38.1325C84.0842 37.586 84.0842 36.9876 84.0842 36.311C84.0842 35.6345 84.0842 34.893 84.0842 34.0733V17.5115C84.0842 16.822 84.0842 16.2105 84.0842 15.6381C84.0842 15.0656 84.0842 14.5713 84.0842 14.1159C84.0861 13.9633 84.0392 13.814 83.9502 13.69C83.8613 13.5659 83.735 13.4735 83.5898 13.4264L80.9878 12.6328V11.7481C82.7442 11.7481 84.4615 11.8391 86.1918 11.8391H87.4928H89.3532L91.2137 11.7741H92.3846C94.8658 11.5986 97.3389 12.2135 99.4491 13.5304C100.231 14.127 100.855 14.9063 101.265 15.8C101.676 16.6937 101.861 17.6745 101.804 18.6564C101.881 20.4433 101.303 22.1967 100.178 23.5872C98.8471 25.0016 97.1413 26.0079 95.2598 26.4885C96.1315 27.7895 96.9251 29.0905 97.6537 30.2744L99.6962 33.631C100.321 34.6458 100.906 35.5435 101.427 36.311C101.848 36.971 102.336 37.5857 102.884 38.1455C103.097 38.3672 103.328 38.5717 103.573 38.7569C103.803 38.9178 104.047 39.0572 104.302 39.1733C104.56 39.2843 104.825 39.3798 105.095 39.4595L106.019 39.7067V40.6044C105.199 40.7127 104.374 40.7735 103.547 40.7865C102.988 40.7865 102.506 40.7865 102.077 40.7865C101.696 40.7615 101.317 40.7049 100.945 40.6174C100.636 40.5449 100.335 40.4402 100.048 40.3051C99.7642 40.1673 99.4979 39.997 99.2539 39.7977C98.5979 39.2913 98.0344 38.675 97.5886 37.9763C97.0422 37.1827 96.4698 36.272 95.8843 35.2703C95.2988 34.2685 94.6874 33.1886 94.0499 32.0568C93.4124 30.9249 92.7489 29.806 92.0463 28.7132C91.8382 28.3879 91.669 28.1277 91.5129 27.9326C91.3837 27.759 91.2252 27.6093 91.0446 27.4902C90.8605 27.3801 90.6576 27.3051 90.4461 27.2691C90.2119 27.2691 89.9257 27.2691 89.5614 27.178H88.1303L88.1563 34.0733ZM88.1563 25.4607C88.989 25.4607 89.7566 25.4607 90.4721 25.4607C92.3323 25.6242 94.1869 25.091 95.6761 23.9645C96.2525 23.3446 96.6936 22.6115 96.9713 21.8119C97.249 21.0123 97.3574 20.1637 97.2894 19.3199C97.3638 18.4967 97.2619 17.6671 96.9904 16.8864C96.719 16.1057 96.2842 15.3919 95.7152 14.7924C94.3103 13.7216 92.5574 13.2115 90.7974 13.3613H89.5744L88.1563 13.4784V25.4607Z" fill="#0A1931"/>
<path d="M170.224 18.8776L169.404 19.0077L167.999 13.6475C166.476 13.2348 164.906 13.0163 163.328 12.997C161.824 12.9202 160.322 13.1926 158.941 13.793C157.56 14.3934 156.336 15.3055 155.366 16.4577C153.317 19.2043 152.303 22.5862 152.504 26.0071C152.319 29.5335 153.424 33.0067 155.613 35.7776C156.642 36.9797 157.931 37.9314 159.383 38.5604C160.835 39.1893 162.411 39.479 163.992 39.4074C165.164 39.4067 166.332 39.2536 167.465 38.9521V31.6404C167.465 31.081 167.465 30.5736 167.465 30.1052C167.476 29.9557 167.434 29.8072 167.346 29.6858C167.258 29.5645 167.13 29.4781 166.984 29.4417L164.382 28.6351V27.7634C166.138 27.7634 167.817 27.8285 169.43 27.8285C171.043 27.8285 172.656 27.8285 174.179 27.7634L174.283 28.6351L172.058 29.2986C171.914 29.3317 171.784 29.4103 171.688 29.5228C171.592 29.6352 171.535 29.7756 171.525 29.9231C171.525 30.4695 171.525 31.0289 171.525 31.5884C171.525 32.1478 171.525 32.7723 171.525 33.4228V39.9278L171.407 40.0709C168.897 40.7023 166.32 41.0385 163.732 41.0727C158.957 41.0727 155.145 39.7717 152.322 37.2738C150.884 35.923 149.759 34.2738 149.026 32.4421C148.294 30.6103 147.971 28.6404 148.08 26.6706C148.08 21.8569 149.551 18.0839 152.491 15.3518C155.431 12.6197 159.443 11.2537 164.525 11.2537C166.848 11.2722 169.162 11.5559 171.42 12.0993L171.551 12.2554L170.224 18.8776Z" fill="#0A1931"/>
<path d="M191.729 11.3187L200.836 36.298C201.048 36.9777 201.359 37.6222 201.76 38.2105C202.083 38.563 202.497 38.8196 202.957 38.9521L204.869 39.5245V40.3962C203.074 40.3962 201.422 40.3962 199.9 40.3962C198.377 40.3962 196.517 40.3962 194.409 40.3962L194.331 39.5245L196.27 38.9521C196.484 38.8983 196.681 38.7908 196.842 38.6398C196.907 38.5655 196.957 38.4789 196.988 38.385C197.02 38.2912 197.032 38.192 197.024 38.0934C197.004 37.7288 196.929 37.3693 196.803 37.0266C196.66 36.5843 196.465 35.9858 196.205 35.2572L194.305 29.728H184.457L182.31 35.1792C182.024 35.9468 181.803 36.5582 181.633 37.0006C181.5 37.3419 181.421 37.7018 181.399 38.0674C181.392 38.1631 181.406 38.2592 181.44 38.349C181.473 38.4389 181.526 38.5203 181.594 38.5878C181.76 38.7268 181.956 38.8248 182.167 38.874L184.066 39.4335V40.3442C182.141 40.3442 180.554 40.3442 179.331 40.3442C178.108 40.3442 176.729 40.3442 175.233 40.3442L175.128 39.4725L177.184 38.835C177.639 38.7172 178.041 38.4518 178.329 38.0804C178.659 37.5827 178.934 37.0504 179.149 36.4932L189.557 11.5789L191.729 11.3187ZM185.224 27.9196H193.642L189.648 16.7179L185.224 27.9196Z" fill="#0A1931"/>
<path d="M207.042 40.3962L206.964 39.5245L222.706 13.6475H209.696L208.395 16.822L207.276 11.9172L207.419 11.748C210.802 11.748 214.028 11.8391 217.073 11.8391H221.886C223.825 11.8391 225.789 11.8391 227.728 11.748L227.806 12.6327L213.495 36.1549C212.285 38.4187 213.222 40.2401 218.361 40.3962H212.363C210.555 40.3441 208.707 40.3571 207.042 40.3962Z" fill="#0A1931"/>
<path d="M205.728 23.314L207.029 23.1189C207.314 23.0774 207.577 22.9425 207.777 22.7353C207.978 22.5281 208.103 22.2603 208.135 21.974L208.317 20.5819C208.317 20.5646 208.324 20.5481 208.336 20.5359C208.348 20.5237 208.365 20.5168 208.382 20.5168C208.399 20.5168 208.416 20.5237 208.428 20.5359C208.44 20.5481 208.447 20.5646 208.447 20.5819L208.629 21.974C208.661 22.2603 208.787 22.5281 208.987 22.7353C209.187 22.9425 209.45 23.0774 209.735 23.1189L211.036 23.314C211.114 23.314 211.114 23.4441 211.036 23.4441L209.735 23.6393C209.448 23.6813 209.183 23.8182 208.983 24.0279C208.783 24.2377 208.658 24.5085 208.629 24.7972L208.447 26.1762C208.447 26.1935 208.44 26.21 208.428 26.2222C208.416 26.2344 208.399 26.2413 208.382 26.2413C208.365 26.2413 208.348 26.2344 208.336 26.2222C208.324 26.21 208.317 26.1935 208.317 26.1762L208.135 24.7972C208.106 24.5085 207.982 24.2377 207.781 24.0279C207.581 23.8182 207.316 23.6813 207.029 23.6393L205.728 23.4441C205.728 23.4441 205.728 23.327 205.728 23.314Z" fill="#0A1931"/>
<path d="M223.175 40.3182L224.866 40.136C225.223 40.0793 225.553 39.9076 225.804 39.6471C226.055 39.3865 226.214 39.0512 226.258 38.6919L226.492 36.9356C226.499 36.9187 226.511 36.9042 226.526 36.894C226.541 36.8838 226.559 36.8783 226.577 36.8783C226.595 36.8783 226.613 36.8838 226.628 36.894C226.643 36.9042 226.655 36.9187 226.661 36.9356L226.895 38.6919C226.94 39.0486 227.099 39.3814 227.347 39.6414C227.595 39.9014 227.92 40.0748 228.275 40.136L229.953 40.3832C229.97 40.39 229.984 40.4017 229.994 40.4167C230.005 40.4318 230.01 40.4496 230.01 40.4678C230.01 40.486 230.005 40.5038 229.994 40.5189C229.984 40.5339 229.97 40.5456 229.953 40.5524L228.275 40.7996C227.918 40.8583 227.59 41.0306 227.339 41.2908C227.088 41.551 226.928 41.8852 226.882 42.2437L226.648 44C226.642 44.0169 226.63 44.0314 226.615 44.0416C226.6 44.0518 226.582 44.0573 226.564 44.0573C226.546 44.0573 226.528 44.0518 226.513 44.0416C226.498 44.0314 226.486 44.0169 226.479 44L226.245 42.2437C226.216 41.8746 226.064 41.5259 225.814 41.2526C225.565 40.9793 225.231 40.797 224.866 40.7345L223.188 40.4873C223.171 40.4806 223.156 40.4689 223.146 40.4538C223.136 40.4387 223.13 40.421 223.13 40.4027C223.13 40.3845 223.136 40.3668 223.146 40.3517C223.156 40.3366 223.171 40.3249 223.188 40.3182H223.175Z" fill="#0A1931"/>
<path d="M206.417 26.8527H206.782C206.862 26.8393 206.936 26.8004 206.992 26.7418C207.048 26.6832 207.084 26.608 207.094 26.5274V26.1501V26.5274C207.101 26.607 207.135 26.6819 207.189 26.7406C207.243 26.7994 207.315 26.8388 207.393 26.8527H207.771H207.393C207.317 26.8659 207.246 26.9034 207.192 26.9596C207.138 27.0158 207.104 27.0877 207.094 27.1649V27.5552V27.1649C207.081 27.0867 207.044 27.0144 206.988 26.9584C206.932 26.9023 206.86 26.8653 206.782 26.8527H206.417Z" fill="#0A1931"/>
<path d="M205.637 25.0053H205.832C205.875 24.9999 205.915 24.9803 205.945 24.9497C205.976 24.9191 205.996 24.8792 206.001 24.8362V24.6281V24.8362C206.006 24.8792 206.026 24.9191 206.057 24.9497C206.087 24.9803 206.127 24.9999 206.17 25.0053H206.365H206.17C206.126 25.0135 206.086 25.0356 206.055 25.0684C206.025 25.1012 206.006 25.143 206.001 25.1875V25.3956V25.1875C205.996 25.143 205.977 25.1012 205.947 25.0684C205.916 25.0356 205.876 25.0135 205.832 25.0053H205.637Z" fill="#0A1931"/>
<path d="M209.618 25.4997H209.878C209.934 25.4918 209.986 25.466 210.026 25.4261C210.066 25.3862 210.092 25.3344 210.1 25.2786V25.0054V25.2786C210.105 25.3334 210.128 25.3848 210.166 25.4249C210.203 25.465 210.253 25.4913 210.308 25.4997H210.568H210.308C210.253 25.5082 210.203 25.5345 210.166 25.5746C210.128 25.6147 210.105 25.6661 210.1 25.7209V25.9811V25.7209C210.092 25.6651 210.066 25.6133 210.026 25.5734C209.986 25.5335 209.934 25.5077 209.878 25.4997H209.618Z" fill="#0A1931"/>
<path d="M125.755 41.8794C134.564 41.8794 141.705 34.7382 141.705 25.9291C141.705 17.12 134.564 9.97876 125.755 9.97876C116.946 9.97876 109.805 17.12 109.805 25.9291C109.805 34.7382 116.946 41.8794 125.755 41.8794Z" fill="#0A1931"/>
<path d="M138.661 20.8942C138.261 24.0349 136.73 26.9221 134.354 29.0147C131.979 31.1074 128.921 32.2619 125.755 32.2619C122.589 32.2619 119.532 31.1074 117.156 29.0147C114.78 26.9221 113.249 24.0349 112.849 20.8942C112.393 22.2572 112.16 23.6851 112.16 25.1224C112.16 28.7282 113.592 32.1863 116.142 34.7359C118.691 37.2856 122.149 38.7179 125.755 38.7179C129.361 38.7179 132.819 37.2856 135.369 34.7359C137.918 32.1863 139.351 28.7282 139.351 25.1224C139.35 23.6851 139.117 22.2572 138.661 20.8942Z" fill="#FFC947"/>
<path d="M125.859 24.9923C129.243 24.9923 131.987 22.2488 131.987 18.8646C131.987 15.4803 129.243 12.7368 125.859 12.7368C122.475 12.7368 119.731 15.4803 119.731 18.8646C119.731 22.2488 122.475 24.9923 125.859 24.9923Z" fill="#FBFFE3"/>
<path d="M122.412 18.7735L124.116 18.5393C124.474 18.4891 124.807 18.3236 125.063 18.0677C125.318 17.8118 125.484 17.4796 125.534 17.1212L125.781 15.4169C125.781 15.3962 125.79 15.3764 125.804 15.3617C125.819 15.3471 125.839 15.3389 125.859 15.3389C125.88 15.3389 125.9 15.3471 125.915 15.3617C125.929 15.3764 125.937 15.3962 125.937 15.4169L126.185 17.1212C126.235 17.4796 126.4 17.8118 126.656 18.0677C126.912 18.3236 127.244 18.4891 127.603 18.5393L129.307 18.7735C129.324 18.7803 129.338 18.792 129.349 18.807C129.359 18.8221 129.364 18.8399 129.364 18.8581C129.364 18.8763 129.359 18.8941 129.349 18.9092C129.338 18.9242 129.324 18.9359 129.307 18.9427L127.603 19.1768C127.241 19.2284 126.905 19.3977 126.649 19.6587C126.393 19.9198 126.23 20.2579 126.185 20.621L125.99 22.3123C125.99 22.4033 125.846 22.4033 125.833 22.3123L125.534 20.621C125.484 20.2626 125.318 19.9304 125.063 19.6745C124.807 19.4186 124.474 19.2531 124.116 19.2029L122.412 18.9687C122.395 18.9619 122.38 18.9503 122.37 18.9352C122.36 18.9201 122.354 18.9023 122.354 18.8841C122.354 18.8659 122.36 18.8481 122.37 18.833C122.38 18.818 122.395 18.8063 122.412 18.7995V18.7735Z" fill="#0A1931"/>
<path d="M125.755 6.51804V0.494385" stroke="#0A1931" stroke-width="0.75" stroke-miterlimit="10" stroke-linecap="round"/>
<path d="M116.974 8.63867L113.968 3.2395" stroke="#0A1931" stroke-width="0.75" stroke-miterlimit="10" stroke-linecap="round"/>
<path d="M134.146 8.63867L137.152 3.2395" stroke="#0A1931" stroke-width="0.75" stroke-miterlimit="10" stroke-linecap="round"/>
<path d="M208.421 16.5227V20.6079" stroke="#0A1931" stroke-width="0.1" stroke-miterlimit="10"/>
</g>
<defs>
<clipPath id="clip0_614_3373">
<rect width="230.018" height="44" fill="white"/>
</clipPath>
</defs>
</svg>
