<svg width="170" height="32" viewBox="0 0 170 32" fill="none" xmlns="http://www.w3.org/2000/svg">
<g clip-path="url(#clip0_949_6003)">
<path d="M12.2404 8.23182L18.9712 26.3986C19.1299 26.8937 19.3633 27.3626 19.6635 27.7895C19.9024 28.0458 20.2085 28.2324 20.5481 28.3288L21.9616 28.7451V29.3791C20.6443 29.3791 19.4231 29.3791 18.2981 29.3791C17.1731 29.3791 15.7981 29.3791 14.2404 29.3791L14.1827 28.7451L15.6154 28.3288C15.7722 28.2858 15.9169 28.2082 16.0385 28.1017C16.0867 28.0477 16.1235 27.9846 16.1466 27.9164C16.1697 27.8482 16.1787 27.776 16.1731 27.7043C16.1579 27.4392 16.1028 27.1777 16.0097 26.9284C15.9039 26.6067 15.7597 26.1715 15.5673 25.6416L14.1347 21.6203H6.86542L5.27888 25.5849C5.06735 26.1431 4.90388 26.5878 4.77888 26.9095C4.67846 27.1576 4.61686 27.4192 4.59619 27.6854C4.59162 27.7549 4.60212 27.8246 4.62699 27.8899C4.65185 27.9551 4.69051 28.0144 4.74042 28.0639C4.86785 28.1629 5.01541 28.2339 5.17311 28.272L6.57696 28.7167V29.3791C5.15388 29.3791 3.98081 29.3791 3.07696 29.3791C2.17311 29.3791 1.15388 29.3791 0.0481126 29.3791L-0.0288086 28.7451L1.51927 28.2436C1.8553 28.158 2.15291 27.9649 2.36542 27.6949C2.60935 27.3329 2.81247 26.9458 2.97119 26.5405L10.6635 8.42105L12.2404 8.23182ZM7.43273 20.3051H13.6539L10.702 12.1585L7.43273 20.3051Z" fill="white"/>
<path d="M34.4616 9.89711C33.5334 9.57716 32.5602 9.40159 31.577 9.3767C30.4394 9.3168 29.3164 9.65165 28.404 10.3229C28.0116 10.6419 27.7003 11.0467 27.495 11.505C27.2897 11.9633 27.196 12.4625 27.2213 12.9627C27.2062 13.5532 27.3488 14.1371 27.6347 14.6564C27.9012 15.1475 28.2601 15.5842 28.6924 15.9432C29.1878 16.31 29.7193 16.627 30.279 16.8894C30.8751 17.1733 31.4905 17.4571 32.1251 17.7315C32.7597 18.0059 33.4905 18.3465 34.1443 18.6777C34.7811 18.9966 35.378 19.3871 35.9232 19.8415C36.4497 20.2866 36.8811 20.8301 37.1924 21.4406C37.5211 22.1228 37.6825 22.8715 37.6636 23.6263C37.7054 24.5144 37.5109 25.3979 37.0994 26.1894C36.688 26.981 36.0737 27.6532 35.3174 28.1396C33.4975 29.2496 31.3796 29.7937 29.2405 29.7008C27.4279 29.6892 25.6256 29.4313 23.8847 28.9344L23.7886 28.8208L24.529 23.7682L25.2116 23.6641L26.2693 27.8841C27.3087 28.2954 28.4183 28.5073 29.5386 28.5086C30.7835 28.5927 32.0207 28.2591 33.0482 27.5624C33.6676 27.0146 34.0869 26.2817 34.2415 25.4765C34.3962 24.6712 34.2776 23.8383 33.904 23.1059C33.6332 22.6201 33.2593 22.1973 32.8078 21.8664C32.3208 21.5023 31.7991 21.1854 31.2501 20.9202C30.6636 20.6363 30.0578 20.3525 29.4328 20.0781C28.8078 19.8037 28.0482 19.463 27.3847 19.1319C26.7443 18.7711 26.1504 18.3359 25.6155 17.8356C25.07 17.3663 24.631 16.7892 24.327 16.1419C23.9934 15.4074 23.8292 14.6092 23.8463 13.8048C23.8183 12.9749 24.0156 12.1525 24.4179 11.4225C24.8201 10.6924 25.4127 10.081 26.1347 9.65109C27.833 8.61957 29.8037 8.10597 31.7982 8.17505C33.4765 8.18762 35.1489 8.37153 36.7886 8.72383L36.904 8.82791L36.0097 13.4642L35.404 13.5683L34.4616 9.89711Z" fill="white"/>
<path d="M48.2019 29.3412C46.9711 29.3412 45.5961 29.3412 44.1057 29.3412L44.0769 28.7451L46.3173 28.0923C46.4267 28.0721 46.5254 28.0146 46.5958 27.9297C46.6662 27.8448 46.7038 27.7382 46.7019 27.6286C46.7019 26.8811 46.7019 25.916 46.7019 24.7901V9.92549H41.3653L40.0288 13.8805L39.423 13.9846L39.0288 8.66706L39.1346 8.54406C41.6153 8.58822 43.9839 8.61029 46.2403 8.61029H50.2692C52.5288 8.61029 54.9038 8.61029 57.4134 8.54406L57.5 8.66706L56.5384 13.8805L55.9423 13.9846L54.9807 9.92549H49.6538V24.7522C49.6538 25.916 49.6538 26.8811 49.6538 27.5908C49.6542 27.7012 49.6939 27.808 49.7659 27.8926C49.8379 27.9773 49.9377 28.0345 50.048 28.0544L52.2788 28.7073V29.3412C50.8077 29.3507 49.4038 29.3412 48.2019 29.3412Z" fill="white"/>
<path d="M65.154 24.7806C65.154 25.3767 65.154 25.9066 65.154 26.3797C65.154 26.8527 65.154 27.3258 65.154 27.6759C65.1437 27.8018 65.177 27.9275 65.2487 28.0323C65.3203 28.1371 65.4259 28.215 65.5483 28.2531L67.2213 28.7451L67.2694 29.3791C66.0771 29.3791 64.8752 29.3791 63.6829 29.3791C62.4906 29.3791 61.2117 29.3791 59.9329 29.3791L59.8752 28.7451L61.731 28.1963C61.8418 28.1739 61.9422 28.1165 62.0168 28.0328C62.0914 27.9491 62.1363 27.8438 62.1444 27.7327C62.1444 27.3353 62.1444 26.9001 62.1444 26.408C62.1444 25.916 62.1444 25.3767 62.1444 24.7806V12.7357C62.1444 12.2342 62.1444 11.7895 62.1444 11.3731C62.1444 10.9568 62.1444 10.5973 62.1444 10.2661C62.1458 10.1551 62.1111 10.0466 62.0454 9.95634C61.9797 9.86611 61.8863 9.79894 61.779 9.76464L59.856 9.18746V8.54406C61.154 8.54406 62.4233 8.61029 63.7021 8.61029H64.6636H66.0386L67.4136 8.56298H68.279C70.1128 8.43536 71.9406 8.88253 73.5002 9.84033C74.0781 10.2742 74.539 10.841 74.8424 11.4909C75.1458 12.1409 75.2826 12.8542 75.2406 13.5683C75.2975 14.8678 74.87 16.1431 74.0386 17.1543C73.0553 18.183 71.7946 18.9149 70.404 19.2643C71.0483 20.2105 71.6348 21.1567 72.1733 22.0177L73.6829 24.4589C74.1444 25.1969 74.5771 25.8498 74.9617 26.408C75.2732 26.888 75.634 27.335 76.0386 27.7422C76.1963 27.9034 76.3667 28.0521 76.5483 28.1869C76.7179 28.3039 76.8981 28.4053 77.0867 28.4897C77.2779 28.5704 77.4737 28.6399 77.6733 28.6978L78.356 28.8776V29.5305C77.7501 29.6092 77.1401 29.6535 76.529 29.6629C76.1156 29.6629 75.7598 29.6629 75.4425 29.6629C75.1607 29.6447 74.8809 29.6036 74.606 29.5399C74.3774 29.4872 74.155 29.4111 73.9425 29.3128C73.7331 29.2126 73.5363 29.0887 73.3559 28.9438C72.8711 28.5755 72.4547 28.1273 72.1252 27.6192C71.7213 27.042 71.2983 26.3797 70.8656 25.6511C70.4329 24.9225 69.9809 24.1372 69.5098 23.314C69.0386 22.4908 68.5483 21.6771 68.029 20.8823C67.8752 20.6458 67.7502 20.4565 67.6348 20.3146C67.5393 20.1884 67.4222 20.0795 67.2886 19.9929C67.1526 19.9128 67.0026 19.8582 66.8463 19.8321C66.6733 19.8321 66.4617 19.8321 66.1925 19.7658H65.1348L65.154 24.7806ZM65.154 18.5169C65.7694 18.5169 66.3367 18.5169 66.8656 18.5169C68.2404 18.6358 69.611 18.248 70.7117 17.4287C71.1377 16.9779 71.4637 16.4447 71.6689 15.8632C71.8742 15.2817 71.9543 14.6645 71.904 14.0509C71.959 13.4522 71.8837 12.8488 71.6831 12.2811C71.4825 11.7133 71.1612 11.1941 70.7406 10.7581C69.7023 9.97934 68.4068 9.60835 67.1059 9.71732H66.2021L65.154 9.80248V18.5169Z" fill="white"/>
<path d="M125.808 13.7292L125.202 13.8238L124.163 9.92549C123.038 9.62535 121.878 9.46639 120.711 9.45239C119.6 9.39653 118.49 9.59468 117.469 10.0313C116.448 10.468 115.544 11.1313 114.827 11.9692C113.312 13.9668 112.563 16.4263 112.711 18.9143C112.575 21.479 113.392 24.0049 115.01 26.0201C115.77 26.8943 116.723 27.5865 117.796 28.0439C118.869 28.5014 120.034 28.712 121.202 28.66C122.069 28.6594 122.932 28.5481 123.769 28.3288V23.0112C123.769 22.6044 123.769 22.2354 123.769 21.8947C123.777 21.786 123.746 21.678 123.681 21.5897C123.615 21.5015 123.521 21.4386 123.413 21.4122L121.49 20.8255V20.1916C122.788 20.1916 124.029 20.2389 125.221 20.2389C126.413 20.2389 127.606 20.2389 128.731 20.1916L128.808 20.8255L127.163 21.3081C127.057 21.3322 126.961 21.3894 126.89 21.4711C126.819 21.5529 126.777 21.655 126.769 21.7623C126.769 22.1597 126.769 22.5665 126.769 22.9734C126.769 23.3802 126.769 23.8344 126.769 24.3075V29.0384L126.683 29.1425C124.827 29.6017 122.923 29.8462 121.01 29.8711C117.481 29.8711 114.663 28.9249 112.577 27.1082C111.514 26.1258 110.683 24.9264 110.141 23.5943C109.6 22.2621 109.361 20.8294 109.442 19.3968C109.442 15.8959 110.529 13.152 112.702 11.165C114.875 9.178 117.84 8.18451 121.596 8.18451C123.313 8.19799 125.023 8.40433 126.692 8.79953L126.788 8.91307L125.808 13.7292Z" fill="white"/>
<path d="M141.702 8.23182L148.433 26.3986C148.589 26.8929 148.819 27.3616 149.115 27.7895C149.354 28.0458 149.66 28.2324 150 28.3288L151.413 28.7451V29.3791C150.086 29.3791 148.865 29.3791 147.74 29.3791C146.615 29.3791 145.24 29.3791 143.683 29.3791L143.625 28.7451L145.058 28.3288C145.216 28.2897 145.362 28.2115 145.481 28.1017C145.529 28.0477 145.566 27.9846 145.589 27.9164C145.612 27.8482 145.621 27.776 145.615 27.7043C145.6 27.4392 145.545 27.1777 145.452 26.9284C145.346 26.6067 145.202 26.1715 145.01 25.6416L143.606 21.6203H136.327L134.74 25.5849C134.529 26.1431 134.365 26.5878 134.24 26.9095C134.142 27.1577 134.084 27.4195 134.067 27.6854C134.062 27.755 134.072 27.8249 134.097 27.8902C134.122 27.9556 134.161 28.0148 134.211 28.0639C134.334 28.1649 134.479 28.2362 134.635 28.272L136.038 28.6789V29.3412C134.615 29.3412 133.442 29.3412 132.538 29.3412C131.635 29.3412 130.615 29.3412 129.51 29.3412L129.433 28.7073L130.952 28.2436C131.288 28.158 131.585 27.9649 131.798 27.6949C132.042 27.3329 132.245 26.9458 132.404 26.5405L140.096 8.42105L141.702 8.23182ZM136.894 20.3051H143.115L140.163 12.1585L136.894 20.3051Z" fill="white"/>
<path d="M153.019 29.3791L152.961 28.7451L164.596 9.92549H154.981L154.019 12.2342L153.192 8.66706L153.298 8.54406C155.798 8.54406 158.183 8.61029 160.433 8.61029H163.99C165.423 8.61029 166.875 8.61029 168.308 8.54406L168.365 9.18747L157.788 26.2945C156.894 27.9409 157.586 29.2655 161.384 29.3791H156.952C155.615 29.3412 154.25 29.3507 153.019 29.3791Z" fill="white"/>
<path d="M152.048 16.9556L153.009 16.8137C153.22 16.7836 153.415 16.6854 153.563 16.5347C153.71 16.3841 153.803 16.1893 153.827 15.9811L153.961 14.9687C153.961 14.9561 153.966 14.9441 153.975 14.9352C153.984 14.9263 153.997 14.9213 154.009 14.9213C154.022 14.9213 154.034 14.9263 154.043 14.9352C154.052 14.9441 154.057 14.9561 154.057 14.9687L154.192 15.9811C154.215 16.1893 154.308 16.3841 154.456 16.5347C154.604 16.6854 154.799 16.7836 155.009 16.8137L155.971 16.9556C156.029 16.9556 156.029 17.0503 155.971 17.0503L155.009 17.1922C154.797 17.2228 154.602 17.3223 154.454 17.4749C154.305 17.6275 154.213 17.8244 154.192 18.0343L154.057 19.0373C154.057 19.0498 154.052 19.0618 154.043 19.0707C154.034 19.0796 154.022 19.0846 154.009 19.0846C153.997 19.0846 153.984 19.0796 153.975 19.0707C153.966 19.0618 153.961 19.0498 153.961 19.0373L153.827 18.0343C153.805 17.8244 153.713 17.6275 153.565 17.4749C153.417 17.3223 153.222 17.2228 153.009 17.1922L152.048 17.0503C152.048 17.0503 152.048 16.9651 152.048 16.9556Z" fill="white"/>
<path d="M164.942 29.3223L166.192 29.1898C166.457 29.1486 166.7 29.0237 166.886 28.8342C167.071 28.6447 167.189 28.4009 167.221 28.1396L167.394 26.8622C167.399 26.8499 167.408 26.8394 167.419 26.832C167.43 26.8245 167.443 26.8206 167.457 26.8206C167.47 26.8206 167.483 26.8245 167.495 26.832C167.506 26.8394 167.514 26.8499 167.519 26.8622L167.692 28.1396C167.726 28.399 167.843 28.641 168.026 28.8301C168.209 29.0192 168.45 29.1453 168.712 29.1898L169.952 29.3696C169.964 29.3745 169.975 29.383 169.983 29.394C169.99 29.4049 169.994 29.4179 169.994 29.4311C169.994 29.4443 169.99 29.4573 169.983 29.4682C169.975 29.4792 169.964 29.4877 169.952 29.4926L168.712 29.6724C168.448 29.7151 168.206 29.8404 168.02 30.0296C167.835 30.2189 167.716 30.4619 167.683 30.7227L167.51 32C167.505 32.0123 167.496 32.0228 167.485 32.0303C167.474 32.0377 167.461 32.0417 167.447 32.0417C167.434 32.0417 167.421 32.0377 167.409 32.0303C167.398 32.0228 167.39 32.0123 167.385 32L167.212 30.7227C167.19 30.4542 167.078 30.2006 166.893 30.0018C166.709 29.8031 166.462 29.6705 166.192 29.6251L164.952 29.4453C164.94 29.4404 164.929 29.4319 164.921 29.4209C164.914 29.41 164.91 29.397 164.91 29.3838C164.91 29.3706 164.914 29.3576 164.921 29.3467C164.929 29.3357 164.94 29.3272 164.952 29.3223H164.942Z" fill="white"/>
<path d="M152.558 19.5293H152.827C152.886 19.5195 152.94 19.4913 152.982 19.4487C153.024 19.406 153.05 19.3513 153.058 19.2927V19.0183V19.2927C153.063 19.3506 153.088 19.405 153.128 19.4478C153.168 19.4905 153.221 19.5191 153.279 19.5293H153.558H153.279C153.222 19.5389 153.17 19.5662 153.13 19.607C153.09 19.6479 153.065 19.7002 153.058 19.7564V20.0402V19.7564C153.048 19.6994 153.021 19.6469 152.98 19.6061C152.938 19.5654 152.885 19.5385 152.827 19.5293H152.558Z" fill="white"/>
<path d="M151.981 18.1857H152.125C152.157 18.1817 152.186 18.1675 152.209 18.1452C152.232 18.123 152.246 18.0939 152.25 18.0627V17.9113V18.0627C152.254 18.0939 152.269 18.123 152.291 18.1452C152.314 18.1675 152.343 18.1817 152.375 18.1857H152.519H152.375C152.343 18.1916 152.313 18.2077 152.29 18.2315C152.268 18.2554 152.254 18.2858 152.25 18.3182V18.4695V18.3182C152.247 18.2858 152.233 18.2554 152.21 18.2315C152.187 18.2077 152.158 18.1916 152.125 18.1857H151.981Z" fill="white"/>
<path d="M154.923 18.5452H155.115C155.156 18.5395 155.195 18.5207 155.224 18.4917C155.254 18.4627 155.273 18.425 155.279 18.3844V18.1857V18.3844C155.282 18.4242 155.3 18.4617 155.327 18.4908C155.355 18.5199 155.392 18.5391 155.432 18.5452H155.625H155.432C155.392 18.5514 155.355 18.5705 155.327 18.5997C155.3 18.6288 155.282 18.6663 155.279 18.7061V18.8953V18.7061C155.273 18.6655 155.254 18.6278 155.224 18.5988C155.195 18.5698 155.156 18.551 155.115 18.5452H154.923Z" fill="white"/>
<path d="M92.9423 30.4577C99.4529 30.4577 104.731 25.2641 104.731 18.8575C104.731 12.4508 99.4529 7.25724 92.9423 7.25724C86.4317 7.25724 81.1538 12.4508 81.1538 18.8575C81.1538 25.2641 86.4317 30.4577 92.9423 30.4577Z" fill="white"/>
<path d="M102.481 15.1957C102.185 17.4799 101.054 19.5797 99.2976 21.1016C97.5417 22.6235 95.2821 23.4632 92.9421 23.4632C90.6022 23.4632 88.3425 22.6235 86.5866 21.1016C84.8307 19.5797 83.699 17.4799 83.4037 15.1957C83.0665 16.187 82.8944 17.2255 82.894 18.2708C82.894 20.8932 83.9527 23.4082 85.8371 25.2625C87.7214 27.1168 90.2772 28.1585 92.9421 28.1585C95.607 28.1585 98.1628 27.1168 100.047 25.2625C101.932 23.4082 102.99 20.8932 102.99 18.2708C102.99 17.2255 102.818 16.187 102.481 15.1957V15.1957Z" fill="#FFC947"/>
<path d="M93.0191 18.1762C95.5203 18.1762 97.5479 16.181 97.5479 13.7197C97.5479 11.2584 95.5203 9.26316 93.0191 9.26316C90.5179 9.26316 88.4902 11.2584 88.4902 13.7197C88.4902 16.181 90.5179 18.1762 93.0191 18.1762Z" fill="#0A1931"/>
<path d="M90.471 13.6535L91.7307 13.4831C91.9955 13.4466 92.241 13.3262 92.4302 13.1401C92.6193 12.9541 92.7416 12.7124 92.7787 12.4518L92.9614 11.2123C92.9614 11.1972 92.9675 11.1828 92.9783 11.1722C92.9891 11.1615 93.0038 11.1555 93.0191 11.1555C93.0344 11.1555 93.0491 11.1615 93.0599 11.1722C93.0707 11.1828 93.0768 11.1972 93.0768 11.2123L93.2595 12.4518C93.2966 12.7124 93.419 12.9541 93.6081 13.1401C93.7972 13.3262 94.0427 13.4466 94.3076 13.4831L95.5672 13.6535C95.5797 13.6584 95.5904 13.6669 95.5979 13.6778C95.6055 13.6888 95.6095 13.7017 95.6095 13.715C95.6095 13.7282 95.6055 13.7411 95.5979 13.7521C95.5904 13.7631 95.5797 13.7715 95.5672 13.7765L94.3076 13.9468C94.0399 13.9843 93.7922 14.1074 93.6028 14.2973C93.4134 14.4871 93.2927 14.733 93.2595 14.997L93.1153 16.2271C93.1153 16.2933 93.0095 16.2933 92.9999 16.2271L92.7787 14.997C92.7416 14.7364 92.6193 14.4948 92.4302 14.3087C92.241 14.1226 91.9955 14.0022 91.7307 13.9657L90.471 13.7954C90.4585 13.7905 90.4478 13.782 90.4403 13.771C90.4327 13.7601 90.4287 13.7471 90.4287 13.7339C90.4287 13.7206 90.4327 13.7077 90.4403 13.6967C90.4478 13.6858 90.4585 13.6773 90.471 13.6724V13.6535Z" fill="white"/>
<path d="M92.9424 4.74039V0.35955" stroke="white" stroke-width="0.75" stroke-miterlimit="10" stroke-linecap="round"/>
<path d="M86.4521 6.28267L84.231 2.356" stroke="white" stroke-width="0.75" stroke-miterlimit="10" stroke-linecap="round"/>
<path d="M99.144 6.28267L101.365 2.356" stroke="white" stroke-width="0.75" stroke-miterlimit="10" stroke-linecap="round"/>
<path d="M154.039 12.0166V14.9876" stroke="white" stroke-width="0.1" stroke-miterlimit="10"/>
</g>
<defs>
<clipPath id="clip0_949_6003">
<rect width="170" height="32" fill="white"/>
</clipPath>
</defs>
</svg>
