<?xml version="1.0" encoding="utf-8"?>
<!-- Generator: Adobe Illustrator 27.3.1, SVG Export Plug-In . SVG Version: 6.00 Build 0)  -->
<svg version="1.1" id="Isolation_Mode" xmlns="http://www.w3.org/2000/svg" xmlns:xlink="http://www.w3.org/1999/xlink" x="0px"
	 y="0px" viewBox="0 0 197.98 32.15" style="enable-background:new 0 0 197.98 32.15;" xml:space="preserve">
<style type="text/css">
	.st0{fill:#1D2088;}
</style>
<g>
	<g>
		<path class="st0" d="M24.83,13.05h5.44c0.92,0,1.67-0.75,1.67-1.67V4.79C31.95,2.14,29.8,0,27.16,0H0v16.82h4.94
			c0.87,0,1.69,0.34,2.31,0.96c0.61,0.62,0.95,1.43,0.94,2.3c-0.01,0.73-0.21,3.12-2.56,3.12H3.69c-0.36,0-0.64,0.29-0.64,0.64v0
			c0,0.36,0.29,0.64,0.64,0.64h1.93c1.76,0,3.88,1.43,3.88,3.2c0,1.77-1.44,3.17-3.22,3.17h-5v-6.99c0-0.36-0.29-0.64-0.64-0.64h0
			C0.29,23.23,0,23.51,0,23.87l0,8.28h6.28c2.48,0,4.5-1.98,4.5-4.46c0-1.75-1.27-3.2-2.85-3.95c0.96-0.75,1.53-2.02,1.54-3.65
			c0.01-1.21-0.46-2.35-1.31-3.21c-0.86-0.87-2-1.34-3.22-1.34H1.29V1.29h25.87c1.93,0,3.5,1.57,3.5,3.5v6.59
			c0,0.21-0.17,0.39-0.39,0.39h-5.44c-0.92,0-1.67,0.75-1.67,1.67v5.27c0,0.92,0.75,1.67,1.67,1.67h5.44c0.21,0,0.39,0.17,0.39,0.39
			v6.59c0,1.93-1.57,3.5-3.5,3.5h-5.44l-4.84-14.81c-0.11-0.35-0.6-0.35-0.72,0L11.12,31.3c-0.14,0.42,0.17,0.84,0.61,0.84h0
			c0.28,0,0.52-0.18,0.61-0.44l4.19-12.63l4.27,13.07h6.37c2.64,0,4.79-2.14,4.79-4.79v-6.59c0-0.92-0.75-1.67-1.67-1.67h-5.44
			c-0.21,0-0.39-0.17-0.39-0.39v-5.27C24.44,13.22,24.62,13.05,24.83,13.05z"/>
		<path class="st0" d="M31.9,13.88h-6.22c-0.24,0-0.43,0.18-0.43,0.41v3.57c0,0.22,0.19,0.41,0.43,0.41h6.22
			c0.24,0,0.43-0.18,0.43-0.41v-3.57C32.33,14.07,32.14,13.88,31.9,13.88z M29.97,17.18c-0.65,0-1.18-0.49-1.18-1.1
			s0.53-1.1,1.18-1.1s1.18,0.49,1.18,1.1S30.62,17.18,29.97,17.18z"/>
	</g>
	<g>
		<path d="M51.02,7.43c3.82,0,5.98,1.83,5.98,4.79c0,1.62-1.12,3.2-2.68,3.56c1.96,0.39,3.5,1.92,3.5,4.06
			c0,2.98-2.27,4.88-6.15,4.88h-7.71V7.43H51.02z M54.71,12.22c0-1.83-1.36-2.83-3.76-2.83h-4.73v5.66h4.73
			C53.35,15.05,54.71,14.06,54.71,12.22z M55.53,19.84c0-1.9-1.51-2.91-3.93-2.91h-5.38v5.83h5.38
			C54.02,22.76,55.53,21.74,55.53,19.84z"/>
		<path d="M70.77,20.45h-8.31l-1.73,4.27h-2.37l7.12-17.29h2.4l7.1,17.29H72.5L70.77,20.45z M69.97,18.44l-3.35-8.35l-3.37,8.35
			H69.97z"/>
		<path d="M89.68,7.43l-7.32,17.29H79.9L72.59,7.43h2.48l6.11,14.62l6.11-14.62H89.68z"/>
		<path d="M93.85,24.72h-2.27V7.43h2.27V24.72z"/>
		<path d="M124.89,7.43l-5.27,17.29h-2.29l-4.17-13.79l-4.19,13.79h-2.29l-5.25-17.29h2.35l4.1,13.86l4.08-13.86h2.42l4.1,13.9
			l4.1-13.9H124.89z"/>
		<path d="M135.52,20.45h-8.31l-1.73,4.27h-2.37l7.12-17.29h2.4l7.1,17.29h-2.48L135.52,20.45z M134.72,18.44l-3.35-8.35l-3.37,8.35
			H134.72z"/>
		<path d="M143.87,22.67h9.5v2.05h-11.77V7.43h2.27V22.67z"/>
		<path d="M157.76,22.67h9.5v2.05h-11.77V7.43h2.27V22.67z"/>
		<path d="M181.65,7.43v2.01h-10.02v5.44h9.26v2.01h-9.26v5.83h10.21v2.01h-12.48V7.43H181.65z"/>
		<path d="M191.78,9.46v15.26h-2.27V9.46h-6.22V7.43h14.68v2.03H191.78z"/>
	</g>
</g>
</svg>
