<?xml version="1.0" encoding="utf-8"?>
<!-- Generator: Adobe Illustrator 25.4.1, SVG Export Plug-In . SVG Version: 6.00 Build 0)  -->
<svg version="1.1" id="Layer_1" xmlns="http://www.w3.org/2000/svg" xmlns:xlink="http://www.w3.org/1999/xlink" x="0px" y="0px"
	 viewBox="0 0 146.2 146.2" style="enable-background:new 0 0 146.2 146.2;" xml:space="preserve">
<style type="text/css">
	.st0{clip-path:url(#SVGID_00000116193870412481746410000013294010503696057499_);fill:#FFFFFF;}
	.st1{clip-path:url(#SVGID_00000163051691455684529900000000963452904864077223_);fill:#DF3636;}
	.st2{clip-path:url(#SVGID_00000163051691455684529900000000963452904864077223_);fill:#293186;}
	.st3{clip-path:url(#SVGID_00000163051691455684529900000000963452904864077223_);}
</style>
<g>
	<defs>
		
			<ellipse id="SVGID_1_" transform="matrix(0.7071 -0.7071 0.7071 0.7071 -30.2803 73.1024)" cx="73.1" cy="73.1" rx="73.1" ry="73.1"/>
	</defs>
	<clipPath id="SVGID_00000018934592615627705250000008726033486277939852_">
		<use xlink:href="#SVGID_1_"  style="overflow:visible;"/>
	</clipPath>
	
		<rect x="-25.2" y="-25.2" transform="matrix(0.8909 -0.4541 0.4541 0.8909 -25.2248 41.1698)" style="clip-path:url(#SVGID_00000018934592615627705250000008726033486277939852_);fill:#FFFFFF;" width="196.7" height="196.7"/>
</g>
<g>
	<defs>
		<rect id="SVGID_00000142871586940731320570000000284422395678351024_" width="146.2" height="146.2"/>
	</defs>
	<clipPath id="SVGID_00000173867067971235190900000007020858239880704642_">
		<use xlink:href="#SVGID_00000142871586940731320570000000284422395678351024_"  style="overflow:visible;"/>
	</clipPath>
	<path style="clip-path:url(#SVGID_00000173867067971235190900000007020858239880704642_);fill:#DF3636;" d="M99.6,73.1
		c0-14.6-11.8-26.5-26.5-26.5c-8.9,0-16.8,4.4-21.6,11.2c-0.3,0.4-0.6,0.8-0.8,1.3c-1.1,2-1.8,4.3-1.8,6.7c0,7.3,5.9,13.3,13.3,13.3
		c4.2,0,7.9-1.9,10.3-4.9c0.4-0.8,0.9-1.5,1.4-2.2c2.4-3,6.1-4.9,10.3-4.9c7.3,0,13.3,5.9,13.3,13.3c0,2.6-0.8,5.1-2.1,7.1
		C98,83.3,99.6,78.4,99.6,73.1"/>
	<path style="clip-path:url(#SVGID_00000173867067971235190900000007020858239880704642_);fill:#293186;" d="M84.1,67.1
		c-4.2,0-7.9,1.9-10.3,4.9c-0.5,0.7-1,1.4-1.4,2.2c-2.4,3-6.1,4.9-10.3,4.9c-7.3,0-13.3-5.9-13.3-13.3c0-2.4,0.7-4.7,1.8-6.7
		c-2.5,4.1-4,8.8-4,14c0,14.6,11.8,26.5,26.5,26.5c9.1,0,17.2-4.6,22-11.7c0.1-0.1,0.2-0.2,0.2-0.4c1.3-2.1,2.1-4.5,2.1-7.1
		C97.4,73,91.4,67.1,84.1,67.1"/>
	
		<rect x="110.6" y="33.8" transform="matrix(0.83 -0.5577 0.5577 0.83 -6.8982 70.8565)" style="clip-path:url(#SVGID_00000173867067971235190900000007020858239880704642_);" width="4.4" height="25.9"/>
	<polygon style="clip-path:url(#SVGID_00000173867067971235190900000007020858239880704642_);" points="98.1,40.9 104.7,50.8 
		108.4,48.3 101.8,38.4 	"/>
	<polygon style="clip-path:url(#SVGID_00000173867067971235190900000007020858239880704642_);" points="106,52.5 112.6,62.4 
		116.3,60 109.7,50 	"/>
	<polygon style="clip-path:url(#SVGID_00000173867067971235190900000007020858239880704642_);" points="109.1,33.5 115.7,43.5 
		119.3,41 112.7,31.1 	"/>
	<polygon style="clip-path:url(#SVGID_00000173867067971235190900000007020858239880704642_);" points="117,45.2 123.5,55.1 
		127.2,52.7 120.6,42.7 	"/>
	<polygon style="clip-path:url(#SVGID_00000173867067971235190900000007020858239880704642_);" points="98.1,105.3 104.7,95.4 
		108.4,97.9 101.8,107.8 	"/>
	<polygon style="clip-path:url(#SVGID_00000173867067971235190900000007020858239880704642_);" points="106,93.7 112.6,83.8 
		116.3,86.2 109.7,96.2 	"/>
	<polygon style="clip-path:url(#SVGID_00000173867067971235190900000007020858239880704642_);" points="109.1,112.7 115.7,102.7 
		119.3,105.2 112.7,115.1 	"/>
	<polygon style="clip-path:url(#SVGID_00000173867067971235190900000007020858239880704642_);" points="117,101 123.5,91.1 
		127.2,93.6 120.6,103.5 	"/>
	<polygon style="clip-path:url(#SVGID_00000173867067971235190900000007020858239880704642_);" points="103.6,109.1 110.2,99.2 
		113.9,101.6 107.3,111.6 	"/>
	<polygon style="clip-path:url(#SVGID_00000173867067971235190900000007020858239880704642_);" points="111.5,97.5 118.1,87.5 
		121.8,90 115.2,99.9 	"/>
	
		<rect x="15.1" y="40.9" transform="matrix(0.5577 -0.83 0.83 0.5577 -23.3614 42.351)" style="clip-path:url(#SVGID_00000173867067971235190900000007020858239880704642_);" width="25.9" height="4.4"/>
	
		<rect x="20.7" y="44.5" transform="matrix(0.5577 -0.83 0.83 0.5577 -23.9044 48.6308)" style="clip-path:url(#SVGID_00000173867067971235190900000007020858239880704642_);" width="25.9" height="4.4"/>
	
		<rect x="26.3" y="48.2" transform="matrix(0.5577 -0.8301 0.8301 0.5577 -24.4461 54.9123)" style="clip-path:url(#SVGID_00000173867067971235190900000007020858239880704642_);" width="25.9" height="4.4"/>
	
		<rect x="25.9" y="90.1" transform="matrix(0.83 -0.5577 0.5577 0.83 -52.7252 33.2151)" style="clip-path:url(#SVGID_00000173867067971235190900000007020858239880704642_);" width="4.4" height="25.9"/>
	
		<rect x="37.2" y="82.8" transform="matrix(0.83 -0.5577 0.5577 0.83 -46.7439 38.245)" style="clip-path:url(#SVGID_00000173867067971235190900000007020858239880704642_);" width="4.4" height="25.9"/>
	<polygon style="clip-path:url(#SVGID_00000173867067971235190900000007020858239880704642_);" points="42.6,109.1 36,99.2 
		32.3,101.6 38.9,111.6 	"/>
	<polygon style="clip-path:url(#SVGID_00000173867067971235190900000007020858239880704642_);" points="34.7,97.5 28.1,87.5 
		24.4,90 31,99.9 	"/>
</g>
</svg>
