<?xml version="1.0" encoding="utf-8"?>
<!-- Generator: Adobe Illustrator 25.4.1, SVG Export Plug-In . SVG Version: 6.00 Build 0)  -->
<svg version="1.1" id="Layer_1" xmlns="http://www.w3.org/2000/svg" xmlns:xlink="http://www.w3.org/1999/xlink" x="0px" y="0px"
	 viewBox="0 0 146.2 146.2" style="enable-background:new 0 0 146.2 146.2;" xml:space="preserve">
<style type="text/css">
	.st0{clip-path:url(#SVGID_00000076606032743296445150000002923117910998888601_);}
	.st1{clip-path:url(#SVGID_00000127008714909099038170000005901428210469082533_);}
	.st2{clip-path:url(#SVGID_00000157280613587710620570000005916308680179574943_);}
	
		.st3{clip-path:url(#SVGID_00000052076468233462827410000005082108076100885176_);fill:url(#SVGID_00000038393275143546731700000003480795010805086872_);}
	.st4{clip-path:url(#SVGID_00000024705536984159738580000017887172300564494249_);fill:#FFFFFF;}
	.st5{clip-path:url(#SVGID_00000024705536984159738580000017887172300564494249_);fill:#DF3636;}
	.st6{clip-path:url(#SVGID_00000024705536984159738580000017887172300564494249_);fill:#293186;}
</style>
<g>
	<defs>
		<rect id="SVGID_1_" x="-29.5" y="-1.3" width="221.3" height="147.5"/>
	</defs>
	<clipPath id="SVGID_00000145743747533563216490000008589644640960219534_">
		<use xlink:href="#SVGID_1_"  style="overflow:visible;"/>
	</clipPath>
	<g style="clip-path:url(#SVGID_00000145743747533563216490000008589644640960219534_);">
		<defs>
			<rect id="SVGID_00000138574931831152360920000006436010297683163277_" x="-29.5" y="-1.3" width="221.3" height="147.5"/>
		</defs>
		<clipPath id="SVGID_00000102504600568066231020000002498202970601160322_">
			<use xlink:href="#SVGID_00000138574931831152360920000006436010297683163277_"  style="overflow:visible;"/>
		</clipPath>
		<g style="clip-path:url(#SVGID_00000102504600568066231020000002498202970601160322_);">
			<g>
				<defs>
					<rect id="SVGID_00000111913678979409882410000010627541352799778969_" x="0" y="0" width="146.2" height="146.2"/>
				</defs>
				<clipPath id="SVGID_00000012459395277411246100000009734676517523746220_">
					<use xlink:href="#SVGID_00000111913678979409882410000010627541352799778969_"  style="overflow:visible;"/>
				</clipPath>
				<g style="clip-path:url(#SVGID_00000012459395277411246100000009734676517523746220_);">
					<defs>
						<path id="SVGID_00000078743103255345190540000017823713601685504901_" d="M0,73.1C0,32.7,32.7,0,73.1,0
							c40.4,0,73.1,32.7,73.1,73.1s-32.7,73.1-73.1,73.1C32.7,146.2,0,113.5,0,73.1"/>
					</defs>
					<clipPath id="SVGID_00000104684918619891793220000003690635034749992126_">
						<use xlink:href="#SVGID_00000078743103255345190540000017823713601685504901_"  style="overflow:visible;"/>
					</clipPath>
					
						<linearGradient id="SVGID_00000092443820778455546060000001509096603678786955_" gradientUnits="userSpaceOnUse" x1="-29.546" y1="146.2565" x2="-28.546" y2="146.2565" gradientTransform="matrix(-20.7 -55.8 -55.8 20.7 7656.1709 -4512.6196)">
						<stop  offset="0" style="stop-color:#C8C8C8"/>
						<stop  offset="1" style="stop-color:#AAAAAA"/>
					</linearGradient>
					
						<polygon style="clip-path:url(#SVGID_00000104684918619891793220000003690635034749992126_);fill:url(#SVGID_00000092443820778455546060000001509096603678786955_);" points="
						17.7,193.9 -47.7,17.7 128.5,-47.7 193.9,128.5 					"/>
				</g>
			</g>
		</g>
	</g>
	<g style="clip-path:url(#SVGID_00000145743747533563216490000008589644640960219534_);">
		<defs>
			<path id="SVGID_00000060742819867874685000000013143478853807438257_" d="M0,73.1c0,40.4,32.7,73.1,73.1,73.1
				s73.1-32.7,73.1-73.1C146.2,32.7,113.5,0,73.1,0S0,32.7,0,73.1"/>
		</defs>
		<clipPath id="SVGID_00000165195100968049628580000008673245660725277608_">
			<use xlink:href="#SVGID_00000060742819867874685000000013143478853807438257_"  style="overflow:visible;"/>
		</clipPath>
		
			<rect x="-29.5" y="-1.3" style="clip-path:url(#SVGID_00000165195100968049628580000008673245660725277608_);fill:#FFFFFF;" width="221.3" height="147.5"/>
		
			<rect x="-29.5" y="-1.3" style="clip-path:url(#SVGID_00000165195100968049628580000008673245660725277608_);fill:#DF3636;" width="221.3" height="11.4"/>
		
			<rect x="-29.5" y="21.4" style="clip-path:url(#SVGID_00000165195100968049628580000008673245660725277608_);fill:#DF3636;" width="221.3" height="11.4"/>
		
			<rect x="-29.5" y="44.1" style="clip-path:url(#SVGID_00000165195100968049628580000008673245660725277608_);fill:#DF3636;" width="221.3" height="11.4"/>
		
			<rect x="-29.5" y="66.8" style="clip-path:url(#SVGID_00000165195100968049628580000008673245660725277608_);fill:#DF3636;" width="221.3" height="11.4"/>
		
			<rect x="-29.5" y="89.5" style="clip-path:url(#SVGID_00000165195100968049628580000008673245660725277608_);fill:#DF3636;" width="221.3" height="11.4"/>
		
			<rect x="-29.5" y="112.2" style="clip-path:url(#SVGID_00000165195100968049628580000008673245660725277608_);fill:#DF3636;" width="221.3" height="11.4"/>
		
			<rect x="-29.5" y="134.9" style="clip-path:url(#SVGID_00000165195100968049628580000008673245660725277608_);fill:#DF3636;" width="221.3" height="11.4"/>
		
			<rect x="-29.5" y="-1.3" style="clip-path:url(#SVGID_00000165195100968049628580000008673245660725277608_);fill:#293186;" width="102.3" height="79.5"/>
		<polygon style="clip-path:url(#SVGID_00000165195100968049628580000008673245660725277608_);fill:#FFFFFF;" points="63.8,4.5 
			64.9,7.1 67.7,7.3 65.5,9.1 66.2,11.8 63.8,10.4 61.5,11.8 62.1,9.1 60,7.3 62.8,7.1 		"/>
		<polygon style="clip-path:url(#SVGID_00000165195100968049628580000008673245660725277608_);fill:#FFFFFF;" points="63.8,19.7 
			64.9,22.3 67.7,22.5 65.5,24.3 66.2,27 63.8,25.5 61.5,27 62.1,24.3 60,22.5 62.8,22.3 		"/>
		<polygon style="clip-path:url(#SVGID_00000165195100968049628580000008673245660725277608_);fill:#FFFFFF;" points="63.8,34.8 
			64.9,37.4 67.7,37.6 65.5,39.4 66.2,42.1 63.8,40.6 61.5,42.1 62.1,39.4 60,37.6 62.8,37.4 		"/>
		<polygon style="clip-path:url(#SVGID_00000165195100968049628580000008673245660725277608_);fill:#FFFFFF;" points="63.8,50 
			64.9,52.5 67.7,52.7 65.5,54.5 66.2,57.3 63.8,55.8 61.5,57.3 62.1,54.5 60,52.7 62.8,52.5 		"/>
		<polygon style="clip-path:url(#SVGID_00000165195100968049628580000008673245660725277608_);fill:#FFFFFF;" points="63.8,65.1 
			64.9,67.7 67.7,67.9 65.5,69.7 66.2,72.4 63.8,70.9 61.5,72.4 62.1,69.7 60,67.9 62.8,67.7 		"/>
		<polygon style="clip-path:url(#SVGID_00000165195100968049628580000008673245660725277608_);fill:#FFFFFF;" points="-3.7,4.5 
			-2.7,7.1 0.1,7.3 -2,9.1 -1.4,11.8 -3.7,10.4 -6.1,11.8 -5.4,9.1 -7.6,7.3 -4.8,7.1 		"/>
		<polygon style="clip-path:url(#SVGID_00000165195100968049628580000008673245660725277608_);fill:#FFFFFF;" points="-3.7,19.7 
			-2.7,22.3 0.1,22.5 -2,24.3 -1.4,27 -3.7,25.5 -6.1,27 -5.4,24.3 -7.6,22.5 -4.8,22.3 		"/>
		<polygon style="clip-path:url(#SVGID_00000165195100968049628580000008673245660725277608_);fill:#FFFFFF;" points="-3.7,34.8 
			-2.7,37.4 0.1,37.6 -2,39.4 -1.4,42.1 -3.7,40.6 -6.1,42.1 -5.4,39.4 -7.6,37.6 -4.8,37.4 		"/>
		<polygon style="clip-path:url(#SVGID_00000165195100968049628580000008673245660725277608_);fill:#FFFFFF;" points="-3.7,50 
			-2.7,52.5 0.1,52.7 -2,54.5 -1.4,57.3 -3.7,55.8 -6.1,57.3 -5.4,54.5 -7.6,52.7 -4.8,52.5 		"/>
		<polygon style="clip-path:url(#SVGID_00000165195100968049628580000008673245660725277608_);fill:#FFFFFF;" points="-3.7,65.1 
			-2.7,67.7 0.1,67.9 -2,69.7 -1.4,72.4 -3.7,70.9 -6.1,72.4 -5.4,69.7 -7.6,67.9 -4.8,67.7 		"/>
		<polygon style="clip-path:url(#SVGID_00000165195100968049628580000008673245660725277608_);fill:#FFFFFF;" points="4.7,12.1 
			5.8,14.7 8.6,14.9 6.4,16.7 7.1,19.4 4.7,17.9 2.4,19.4 3,16.7 0.9,14.9 3.7,14.7 		"/>
		<polygon style="clip-path:url(#SVGID_00000165195100968049628580000008673245660725277608_);fill:#FFFFFF;" points="4.7,27.3 
			5.8,29.8 8.6,30 6.4,31.8 7.1,34.5 4.7,33.1 2.4,34.5 3,31.8 0.9,30 3.7,29.8 		"/>
		<polygon style="clip-path:url(#SVGID_00000165195100968049628580000008673245660725277608_);fill:#FFFFFF;" points="4.7,42.4 
			5.8,45 8.6,45.2 6.4,47 7.1,49.7 4.7,48.2 2.4,49.7 3,47 0.9,45.2 3.7,45 		"/>
		<polygon style="clip-path:url(#SVGID_00000165195100968049628580000008673245660725277608_);fill:#FFFFFF;" points="4.7,57.5 
			5.8,60.1 8.6,60.3 6.4,62.1 7.1,64.8 4.7,63.4 2.4,64.8 3,62.1 0.9,60.3 3.7,60.1 		"/>
		<polygon style="clip-path:url(#SVGID_00000165195100968049628580000008673245660725277608_);fill:#FFFFFF;" points="13.2,4.5 
			14.2,7.1 17,7.3 14.9,9.1 15.5,11.8 13.2,10.4 10.8,11.8 11.5,9.1 9.3,7.3 12.1,7.1 		"/>
		<polygon style="clip-path:url(#SVGID_00000165195100968049628580000008673245660725277608_);fill:#FFFFFF;" points="13.2,19.7 
			14.2,22.3 17,22.5 14.9,24.3 15.5,27 13.2,25.5 10.8,27 11.5,24.3 9.3,22.5 12.1,22.3 		"/>
		<polygon style="clip-path:url(#SVGID_00000165195100968049628580000008673245660725277608_);fill:#FFFFFF;" points="13.2,34.8 
			14.2,37.4 17,37.6 14.9,39.4 15.5,42.1 13.2,40.6 10.8,42.1 11.5,39.4 9.3,37.6 12.1,37.4 		"/>
		<polygon style="clip-path:url(#SVGID_00000165195100968049628580000008673245660725277608_);fill:#FFFFFF;" points="13.2,50 
			14.2,52.5 17,52.7 14.9,54.5 15.5,57.3 13.2,55.8 10.8,57.3 11.5,54.5 9.3,52.7 12.1,52.5 		"/>
		<polygon style="clip-path:url(#SVGID_00000165195100968049628580000008673245660725277608_);fill:#FFFFFF;" points="13.2,65.1 
			14.2,67.7 17,67.9 14.9,69.7 15.5,72.4 13.2,70.9 10.8,72.4 11.5,69.7 9.3,67.9 12.1,67.7 		"/>
		<polygon style="clip-path:url(#SVGID_00000165195100968049628580000008673245660725277608_);fill:#FFFFFF;" points="21.6,12.1 
			22.7,14.7 25.4,14.9 23.3,16.7 24,19.4 21.6,17.9 19.2,19.4 19.9,16.7 17.8,14.9 20.6,14.7 		"/>
		<polygon style="clip-path:url(#SVGID_00000165195100968049628580000008673245660725277608_);fill:#FFFFFF;" points="21.6,27.3 
			22.7,29.8 25.4,30 23.3,31.8 24,34.5 21.6,33.1 19.2,34.5 19.9,31.8 17.8,30 20.6,29.8 		"/>
		<polygon style="clip-path:url(#SVGID_00000165195100968049628580000008673245660725277608_);fill:#FFFFFF;" points="21.6,42.4 
			22.7,45 25.4,45.2 23.3,47 24,49.7 21.6,48.2 19.2,49.7 19.9,47 17.8,45.2 20.6,45 		"/>
		<polygon style="clip-path:url(#SVGID_00000165195100968049628580000008673245660725277608_);fill:#FFFFFF;" points="21.6,57.5 
			22.7,60.1 25.4,60.3 23.3,62.1 24,64.8 21.6,63.4 19.2,64.8 19.9,62.1 17.8,60.3 20.6,60.1 		"/>
		<polygon style="clip-path:url(#SVGID_00000165195100968049628580000008673245660725277608_);fill:#FFFFFF;" points="30.1,4.5 
			31.1,7.1 33.9,7.3 31.8,9.1 32.4,11.8 30.1,10.4 27.7,11.8 28.3,9.1 26.2,7.3 29,7.1 		"/>
		<polygon style="clip-path:url(#SVGID_00000165195100968049628580000008673245660725277608_);fill:#FFFFFF;" points="30.1,19.7 
			31.1,22.3 33.9,22.5 31.8,24.3 32.4,27 30.1,25.5 27.7,27 28.3,24.3 26.2,22.5 29,22.3 		"/>
		<polygon style="clip-path:url(#SVGID_00000165195100968049628580000008673245660725277608_);fill:#FFFFFF;" points="30.1,34.8 
			31.1,37.4 33.9,37.6 31.8,39.4 32.4,42.1 30.1,40.6 27.7,42.1 28.3,39.4 26.2,37.6 29,37.4 		"/>
		<polygon style="clip-path:url(#SVGID_00000165195100968049628580000008673245660725277608_);fill:#FFFFFF;" points="30.1,50 
			31.1,52.5 33.9,52.7 31.8,54.5 32.4,57.3 30.1,55.8 27.7,57.3 28.3,54.5 26.2,52.7 29,52.5 		"/>
		<polygon style="clip-path:url(#SVGID_00000165195100968049628580000008673245660725277608_);fill:#FFFFFF;" points="30.1,65.1 
			31.1,67.7 33.9,67.9 31.8,69.7 32.4,72.4 30.1,70.9 27.7,72.4 28.3,69.7 26.2,67.9 29,67.7 		"/>
		<polygon style="clip-path:url(#SVGID_00000165195100968049628580000008673245660725277608_);fill:#FFFFFF;" points="38.5,12.1 
			39.6,14.7 42.3,14.9 40.2,16.7 40.9,19.4 38.5,17.9 36.1,19.4 36.8,16.7 34.7,14.9 37.4,14.7 		"/>
		<polygon style="clip-path:url(#SVGID_00000165195100968049628580000008673245660725277608_);fill:#FFFFFF;" points="38.5,27.3 
			39.6,29.8 42.3,30 40.2,31.8 40.9,34.5 38.5,33.1 36.1,34.5 36.8,31.8 34.7,30 37.4,29.8 		"/>
		<polygon style="clip-path:url(#SVGID_00000165195100968049628580000008673245660725277608_);fill:#FFFFFF;" points="38.5,42.4 
			39.6,45 42.3,45.2 40.2,47 40.9,49.7 38.5,48.2 36.1,49.7 36.8,47 34.7,45.2 37.4,45 		"/>
		<polygon style="clip-path:url(#SVGID_00000165195100968049628580000008673245660725277608_);fill:#FFFFFF;" points="38.5,57.5 
			39.6,60.1 42.3,60.3 40.2,62.1 40.9,64.8 38.5,63.4 36.1,64.8 36.8,62.1 34.7,60.3 37.4,60.1 		"/>
		<polygon style="clip-path:url(#SVGID_00000165195100968049628580000008673245660725277608_);fill:#FFFFFF;" points="46.9,4.5 
			48,7.1 50.8,7.3 48.7,9.1 49.3,11.8 46.9,10.4 44.6,11.8 45.2,9.1 43.1,7.3 45.9,7.1 		"/>
		<polygon style="clip-path:url(#SVGID_00000165195100968049628580000008673245660725277608_);fill:#FFFFFF;" points="46.9,19.7 
			48,22.3 50.8,22.5 48.7,24.3 49.3,27 46.9,25.5 44.6,27 45.2,24.3 43.1,22.5 45.9,22.3 		"/>
		<polygon style="clip-path:url(#SVGID_00000165195100968049628580000008673245660725277608_);fill:#FFFFFF;" points="46.9,34.8 
			48,37.4 50.8,37.6 48.7,39.4 49.3,42.1 46.9,40.6 44.6,42.1 45.2,39.4 43.1,37.6 45.9,37.4 		"/>
		<polygon style="clip-path:url(#SVGID_00000165195100968049628580000008673245660725277608_);fill:#FFFFFF;" points="46.9,50 
			48,52.5 50.8,52.7 48.7,54.5 49.3,57.3 46.9,55.8 44.6,57.3 45.2,54.5 43.1,52.7 45.9,52.5 		"/>
		<polygon style="clip-path:url(#SVGID_00000165195100968049628580000008673245660725277608_);fill:#FFFFFF;" points="46.9,65.1 
			48,67.7 50.8,67.9 48.7,69.7 49.3,72.4 46.9,70.9 44.6,72.4 45.2,69.7 43.1,67.9 45.9,67.7 		"/>
		<polygon style="clip-path:url(#SVGID_00000165195100968049628580000008673245660725277608_);fill:#FFFFFF;" points="55.4,12.1 
			56.4,14.7 59.2,14.9 57.1,16.7 57.8,19.4 55.4,17.9 53,19.4 53.7,16.7 51.6,14.9 54.3,14.7 		"/>
		<polygon style="clip-path:url(#SVGID_00000165195100968049628580000008673245660725277608_);fill:#FFFFFF;" points="55.4,27.3 
			56.4,29.8 59.2,30 57.1,31.8 57.8,34.5 55.4,33.1 53,34.5 53.7,31.8 51.6,30 54.3,29.8 		"/>
		<polygon style="clip-path:url(#SVGID_00000165195100968049628580000008673245660725277608_);fill:#FFFFFF;" points="55.4,42.4 
			56.4,45 59.2,45.2 57.1,47 57.8,49.7 55.4,48.2 53,49.7 53.7,47 51.6,45.2 54.3,45 		"/>
		<polygon style="clip-path:url(#SVGID_00000165195100968049628580000008673245660725277608_);fill:#FFFFFF;" points="55.4,57.5 
			56.4,60.1 59.2,60.3 57.1,62.1 57.8,64.8 55.4,63.4 53,64.8 53.7,62.1 51.6,60.3 54.3,60.1 		"/>
	</g>
</g>
</svg>
