<?xml version="1.0" encoding="utf-8"?>
<!-- Generator: Adobe Illustrator 26.5.0, SVG Export Plug-In . SVG Version: 6.00 Build 0)  -->
<svg version="1.1" id="Layer_1" xmlns="http://www.w3.org/2000/svg" xmlns:xlink="http://www.w3.org/1999/xlink" x="0px" y="0px"
	 viewBox="0 0 146.2 146.2" style="enable-background:new 0 0 146.2 146.2;" xml:space="preserve">
<style type="text/css">
	.st0{clip-path:url(#SVGID_00000057865696976064665680000001990228653460396439_);}
	.st1{fill:#231F20;}
	.st2{fill:#FFFFFF;}
	.st3{fill:#007CC2;}
	.st4{clip-path:url(#SVGID_00000057865696976064665680000001990228653460396439_);fill:none;}
</style>
<g>
	<defs>
		<path id="SVGID_1_" d="M4.7,47.4c-3,8-4.7,16.7-4.7,25.7C0,82,1.6,90.5,4.5,98.4c10.3,27.9,37.1,47.8,68.6,47.8
			s58.3-19.9,68.6-47.8c2.9-7.9,4.5-16.4,4.5-25.3c0-9-1.7-17.7-4.7-25.7C131.1,19.7,104.4,0,73.1,0S15.1,19.7,4.7,47.4"/>
	</defs>
	<clipPath id="SVGID_00000175313734285868045730000012829549427594837639_">
		<use xlink:href="#SVGID_1_"  style="overflow:visible;"/>
	</clipPath>
	<g style="clip-path:url(#SVGID_00000175313734285868045730000012829549427594837639_);">
		<path class="st1" d="M-38.5,147.6v-149h223.1v148.6v0.5H-38.5z M184.2,147.2v-0.5V147.2z M-37.5,146.7h221.3l0-147.2H-37.5V146.7z
			"/>
		<rect x="-38" y="97.8" class="st2" width="222.2" height="49.4"/>
		<rect x="-38" y="48.4" width="222.2" height="49.4"/>
		<rect x="-38" y="-1" class="st3" width="222.2" height="49.4"/>
	</g>
	<path style="clip-path:url(#SVGID_00000175313734285868045730000012829549427594837639_);fill:none;" d="M4.7,47.4
		c-3,8-4.7,16.7-4.7,25.7C0,82,1.6,90.5,4.5,98.4c10.3,27.9,37.1,47.8,68.6,47.8s58.3-19.9,68.6-47.8c2.9-7.9,4.5-16.4,4.5-25.3
		c0-9-1.7-17.7-4.7-25.7C131.1,19.7,104.4,0,73.1,0S15.1,19.7,4.7,47.4"/>
	<path style="clip-path:url(#SVGID_00000175313734285868045730000012829549427594837639_);fill:none;" d="M4.7,47.4
		c-3,8-4.7,16.7-4.7,25.7C0,82,1.6,90.5,4.5,98.4c10.3,27.9,37.1,47.8,68.6,47.8s58.3-19.9,68.6-47.8c2.9-7.9,4.5-16.4,4.5-25.3
		c0-9-1.7-17.7-4.7-25.7C131.1,19.7,104.4,0,73.1,0S15.1,19.7,4.7,47.4"/>
	<path style="clip-path:url(#SVGID_00000175313734285868045730000012829549427594837639_);fill:none;" d="M4.7,47.4
		c-3,8-4.7,16.7-4.7,25.7C0,82,1.6,90.5,4.5,98.4c10.3,27.9,37.1,47.8,68.6,47.8s58.3-19.9,68.6-47.8c2.9-7.9,4.5-16.4,4.5-25.3
		c0-9-1.7-17.7-4.7-25.7C131.1,19.7,104.4,0,73.1,0S15.1,19.7,4.7,47.4"/>
	<path style="clip-path:url(#SVGID_00000175313734285868045730000012829549427594837639_);fill:none;" d="M4.7,47.4
		c-3,8-4.7,16.7-4.7,25.7C0,82,1.6,90.5,4.5,98.4c10.3,27.9,37.1,47.8,68.6,47.8s58.3-19.9,68.6-47.8c2.9-7.9,4.5-16.4,4.5-25.3
		c0-9-1.7-17.7-4.7-25.7C131.1,19.7,104.4,0,73.1,0S15.1,19.7,4.7,47.4"/>
	<path style="clip-path:url(#SVGID_00000175313734285868045730000012829549427594837639_);fill:none;" d="M4.7,47.4
		c-3,8-4.7,16.7-4.7,25.7C0,82,1.6,90.5,4.5,98.4c10.3,27.9,37.1,47.8,68.6,47.8s58.3-19.9,68.6-47.8c2.9-7.9,4.5-16.4,4.5-25.3
		c0-9-1.7-17.7-4.7-25.7C131.1,19.7,104.4,0,73.1,0S15.1,19.7,4.7,47.4"/>
	<path style="clip-path:url(#SVGID_00000175313734285868045730000012829549427594837639_);fill:none;" d="M4.7,47.4
		c-3,8-4.7,16.7-4.7,25.7C0,82,1.6,90.5,4.5,98.4c10.3,27.9,37.1,47.8,68.6,47.8s58.3-19.9,68.6-47.8c2.9-7.9,4.5-16.4,4.5-25.3
		c0-9-1.7-17.7-4.7-25.7C131.1,19.7,104.4,0,73.1,0S15.1,19.7,4.7,47.4"/>
	<path style="clip-path:url(#SVGID_00000175313734285868045730000012829549427594837639_);fill:none;" d="M4.7,47.4
		c-3,8-4.7,16.7-4.7,25.7C0,82,1.6,90.5,4.5,98.4c10.3,27.9,37.1,47.8,68.6,47.8s58.3-19.9,68.6-47.8c2.9-7.9,4.5-16.4,4.5-25.3
		c0-9-1.7-17.7-4.7-25.7C131.1,19.7,104.4,0,73.1,0S15.1,19.7,4.7,47.4"/>
	<path style="clip-path:url(#SVGID_00000175313734285868045730000012829549427594837639_);fill:none;" d="M4.7,47.4
		c-3,8-4.7,16.7-4.7,25.7C0,82,1.6,90.5,4.5,98.4c10.3,27.9,37.1,47.8,68.6,47.8s58.3-19.9,68.6-47.8c2.9-7.9,4.5-16.4,4.5-25.3
		c0-9-1.7-17.7-4.7-25.7C131.1,19.7,104.4,0,73.1,0S15.1,19.7,4.7,47.4"/>
	<path style="clip-path:url(#SVGID_00000175313734285868045730000012829549427594837639_);fill:none;" d="M4.7,47.4
		c-3,8-4.7,16.7-4.7,25.7C0,82,1.6,90.5,4.5,98.4c10.3,27.9,37.1,47.8,68.6,47.8s58.3-19.9,68.6-47.8c2.9-7.9,4.5-16.4,4.5-25.3
		c0-9-1.7-17.7-4.7-25.7C131.1,19.7,104.4,0,73.1,0S15.1,19.7,4.7,47.4"/>
	<path style="clip-path:url(#SVGID_00000175313734285868045730000012829549427594837639_);fill:none;" d="M4.7,47.4
		c-3,8-4.7,16.7-4.7,25.7C0,82,1.6,90.5,4.5,98.4c10.3,27.9,37.1,47.8,68.6,47.8s58.3-19.9,68.6-47.8c2.9-7.9,4.5-16.4,4.5-25.3
		c0-9-1.7-17.7-4.7-25.7C131.1,19.7,104.4,0,73.1,0S15.1,19.7,4.7,47.4"/>
</g>
</svg>
