<?xml version="1.0" encoding="utf-8"?>
<!-- Generator: Adobe Illustrator 25.4.1, SVG Export Plug-In . SVG Version: 6.00 Build 0)  -->
<svg version="1.1" id="Layer_1" xmlns="http://www.w3.org/2000/svg" xmlns:xlink="http://www.w3.org/1999/xlink" x="0px" y="0px"
	 viewBox="0 0 146.2 146.2" style="enable-background:new 0 0 146.2 146.2;" xml:space="preserve">
<style type="text/css">
	.st0{fill:#FF2405;}
	.st1{fill:#FFDE00;}
</style>
<g>
	<path class="st0" d="M73.1,0C32.7,0,0,32.7,0,73.1s32.7,73.1,73.1,73.1s73.1-32.7,73.1-73.1S113.5,0,73.1,0"/>
	<polygon class="st1" points="41.3,27.9 45.1,40.9 58.6,40.4 47.4,48 52,60.7 41.3,52.4 30.6,60.7 35.2,48 24,40.4 37.6,40.9 	"/>
	<polygon class="st1" points="74,22.4 73.4,26.5 77.3,28.2 73.1,28.9 72.8,33.1 70.8,29.3 66.7,30.3 69.7,27.3 67.5,23.7 71.3,25.6 
			"/>
	<polygon class="st1" points="74,64.5 73.4,68.7 77.3,70.3 73.1,71 72.8,75.2 70.8,71.5 66.7,72.4 69.7,69.4 67.5,65.8 71.3,67.7 	
		"/>
	<polygon class="st1" points="87.8,35.9 85.6,39.5 88.5,42.5 84.4,41.5 82.5,45.3 82.1,41.1 78,40.3 81.9,38.7 81.3,34.5 84,37.8 	
		"/>
	<polygon class="st1" points="88.9,56 85.5,58.5 87.1,62.4 83.7,59.9 80.4,62.6 81.7,58.6 78.2,56.3 82.4,56.3 83.4,52.2 84.7,56.3 
			"/>
</g>
</svg>
