<?xml version="1.0" encoding="utf-8"?>
<!-- Generator: Adobe Illustrator 25.4.1, SVG Export Plug-In . SVG Version: 6.00 Build 0)  -->
<svg version="1.1" id="Layer_1" xmlns="http://www.w3.org/2000/svg" xmlns:xlink="http://www.w3.org/1999/xlink" x="0px" y="0px"
	 viewBox="0 0 146.2 146.2" style="enable-background:new 0 0 146.2 146.2;" xml:space="preserve">
<style type="text/css">
	.st0{clip-path:url(#SVGID_00000093864658144183485070000016650542369745597620_);fill:#FF0000;}
	.st1{clip-path:url(#SVGID_00000093864658144183485070000016650542369745597620_);fill:#003F9A;}
	.st2{clip-path:url(#SVGID_00000093864658144183485070000016650542369745597620_);fill:#FFFFFF;}
</style>
<g>
	<defs>
		<path id="SVGID_1_" d="M4.7,47.4c-3,8-4.7,16.7-4.7,25.7C0,82,1.6,90.5,4.5,98.4c10.3,27.9,37.1,47.8,68.6,47.8
			s58.3-19.9,68.6-47.8c2.9-7.9,4.5-16.4,4.5-25.3c0-9-1.7-17.7-4.7-25.7C131.1,19.7,104.4,0,73.1,0S15.1,19.7,4.7,47.4"/>
	</defs>
	<clipPath id="SVGID_00000091728876414174490620000007139663882892294298_">
		<use xlink:href="#SVGID_1_"  style="overflow:visible;"/>
	</clipPath>
	
		<rect x="-6.6" y="-4.9" style="clip-path:url(#SVGID_00000091728876414174490620000007139663882892294298_);fill:#FF0000;" width="186.3" height="153.6"/>
	
		<rect x="-6.6" y="-4.9" style="clip-path:url(#SVGID_00000091728876414174490620000007139663882892294298_);fill:#003F9A;" width="92" height="70.2"/>
	<path style="clip-path:url(#SVGID_00000091728876414174490620000007139663882892294298_);fill:#FFFFFF;" d="M29.9,37.4
		c0-6.7,5.4-12.1,12.1-12.1c6.7,0,12.1,5.4,12.1,12.1c0,6.7-5.4,12.1-12.1,12.1C35.3,49.6,29.9,44.1,29.9,37.4"/>
	<polygon style="clip-path:url(#SVGID_00000091728876414174490620000007139663882892294298_);fill:#FFFFFF;" points="45.4,23.4 
		38.8,23.4 42.1,14.2 	"/>
	<polygon style="clip-path:url(#SVGID_00000091728876414174490620000007139663882892294298_);fill:#FFFFFF;" points="37.9,23.6 
		32.2,26.9 30.5,17.2 	"/>
	<polygon style="clip-path:url(#SVGID_00000091728876414174490620000007139663882892294298_);fill:#FFFFFF;" points="31.5,27.5 
		28.3,33.2 21.9,25.7 	"/>
	<polygon style="clip-path:url(#SVGID_00000091728876414174490620000007139663882892294298_);fill:#FFFFFF;" points="28,34.1 
		28,40.6 18.8,37.3 	"/>
	<polygon style="clip-path:url(#SVGID_00000091728876414174490620000007139663882892294298_);fill:#FFFFFF;" points="28.2,41.5 
		31.4,47.2 21.8,49 	"/>
	<polygon style="clip-path:url(#SVGID_00000091728876414174490620000007139663882892294298_);fill:#FFFFFF;" points="32.1,47.9 
		37.8,51.2 30.3,57.5 	"/>
	<polygon style="clip-path:url(#SVGID_00000091728876414174490620000007139663882892294298_);fill:#FFFFFF;" points="38.7,51.5 
		45.2,51.5 41.9,60.7 	"/>
	<polygon style="clip-path:url(#SVGID_00000091728876414174490620000007139663882892294298_);fill:#FFFFFF;" points="46.1,51.3 
		51.8,48 53.6,57.6 	"/>
	<polygon style="clip-path:url(#SVGID_00000091728876414174490620000007139663882892294298_);fill:#FFFFFF;" points="52.5,47.4 
		55.8,41.7 62.1,49.1 	"/>
	<polygon style="clip-path:url(#SVGID_00000091728876414174490620000007139663882892294298_);fill:#FFFFFF;" points="56.1,40.8 
		56.1,34.3 65.3,37.5 	"/>
	<polygon style="clip-path:url(#SVGID_00000091728876414174490620000007139663882892294298_);fill:#FFFFFF;" points="55.9,33.3 
		52.6,27.7 62.2,25.9 	"/>
	<polygon style="clip-path:url(#SVGID_00000091728876414174490620000007139663882892294298_);fill:#FFFFFF;" points="52,27 
		46.3,23.7 53.7,17.3 	"/>
</g>
</svg>
