<?xml version="1.0" encoding="utf-8"?>
<!-- Generator: Adobe Illustrator 26.5.0, SVG Export Plug-In . SVG Version: 6.00 Build 0)  -->
<svg version="1.1" id="Ñëîé_2" xmlns="http://www.w3.org/2000/svg" xmlns:xlink="http://www.w3.org/1999/xlink" x="0px" y="0px"
	 viewBox="0 0 208.9 208.9" style="enable-background:new 0 0 208.9 208.9;" xml:space="preserve">
<style type="text/css">
	.st0{clip-path:url(#SVGID_00000178173358333809288780000013617207980342249857_);fill:#B057B9;}
	.st1{opacity:0.3;clip-path:url(#SVGID_00000178173358333809288780000013617207980342249857_);fill:#1A171B;}
	.st2{fill:#FFFFFF;}
</style>
<g>
	<defs>
		<path id="SVGID_1_" d="M208.9,104.5c0,57.7-46.8,104.5-104.5,104.5C46.8,208.9,0,162.1,0,104.5C0,46.8,46.8,0,104.5,0
			C162.1,0,208.9,46.8,208.9,104.5z"/>
	</defs>
	<clipPath id="SVGID_00000082358663407263305690000006514513432936921222_">
		<use xlink:href="#SVGID_1_"  style="overflow:visible;"/>
	</clipPath>
	<path style="clip-path:url(#SVGID_00000082358663407263305690000006514513432936921222_);fill:#B057B9;" d="M131.8,204.5l-1-1l0,0
		l-1-1l0,0l-1-1l0,0l-1-1l0,0l-1-1l0,0l-1-1l0,0l-1-1l0,0l-1-1l0,0l-1-1l0,0l-1-1l0,0l-1-1l0,0l-1-1l0,0l-1-1l0,0l-1-1l0,0l-1-1l0,0
		l-1-1l0,0l-1-1l0,0l-1-1l0,0l-1-1l0,0l-1-1l0,0l-1-1l0,0l-1-1l0,0l-1-1l0,0l-1-1l0,0l-1-1l0,0l-1-1l0,0l-1-1l0,0l-1-1l0,0l-1-1l0,0
		l-1-1l0,0l-1-1l0,0l-1-1l0,0l-1-1l0,0l-1-1l0,0l-1-1l0,0l-1-1l0,0l-1-1l0,0l-1-1l0,0l-1-1l0,0l-1-1l0,0l-1-1l0,0l-1-1l0,0l-1-1l0,0
		l-1-1l0,0l-1-1l0,0l-1-1l0,0l-1-1l0,0l-1-1l0,0l-1-1l0,0l-1-1l0,0l-1-1l0,0l-1-1l0,0l-1-1l0,0l-1-1l0,0l-1-1l0,0l-1-1l0,0l-1-1l0,0
		l-1-1l0,0l-1-1l0,0l-1-1l0,0l-1-1l0,0l-1-1l0,0l-1-1l0,0l-1-1l0,0l-1-1l0,0l-1-1l0,0l-1-1l0,0l-1-1l0,0l-1-1l0,0l-1-1l0,0l-1-1l0,0
		l-1-1l0,0l-1-1l0,0l-1-1l0,0l-1-1l0,0l-1-1l0,0l-1-1l0,0l-1-1l0,0l-1-1l0,0l-1-1l0,0l-1-1l0,0l-1-1l0,0l-1-1l0,0l-1-1l0,0l-1-1l0,0
		l-1-1l0,0l-1-1l0,0l-1-1l0,0l-1-1l22.1-22.1l1,1l1,1l1,1l1,1l1,1l1,1l1,1l1,1l1,1l1,1l1,1l1,1l1,1l1,1l1,1l1,1l1,1l1,1l1,1l1,1l1,1
		l1,1l1,1l1,1l1,1l1,1l0.3,0.3l63.3-63.3l1,1l1,1l1,1l1,1l1,1l1,1l1,1l1,1l1,1l1,1l1,1l1,1l1,1l1,1l1,1l1,1l1,1l1,1l1,1l1,1l1,1l1,1
		l0.1,0.1l0.9,0.9l0.1,0.1l0.9,0.9l0.1,0.1l0.9,0.9l0.1,0.1l0.9,0.9l0.1,0.1l0.9,0.9l0.1,0.1l0.9,0.9l0.1,0.1l0.9,0.9l0.1,0.1
		l0.9,0.9l0.1,0.1l0.9,0.9l0.1,0.1l0.9,0.9l0.1,0.1l0.9,0.9l0.1,0.1l0.9,0.9l0.1,0.1l0.9,0.9l0.1,0.1l0.9,0.9l0.1,0.1l0.9,0.9
		l0.1,0.1l0.9,0.9l0.1,0.1l0.9,0.9l0.1,0.1l0.9,0.9l0.1,0.1l0.9,0.9l0.1,0.1l0.9,0.9l0.1,0.1l0.9,0.9l0.1,0.1l0.9,0.9l0.1,0.1
		l0.9,0.9l0.1,0.1l0.9,0.9l0.1,0.1l0.9,0.9l0.1,0.1l0.9,0.9l0.1,0.1l0.9,0.9l0.1,0.1l0.9,0.9l0.1,0.1l0.9,0.9l0.1,0.1l0.9,0.9
		l0.1,0.1l0.9,0.9l0.1,0.1l0.9,0.9l0.1,0.1l0.1,0.1c0.1-2,0.2-4.1,0.2-6.2C208.9,46.8,162.1,0,104.5,0C46.8,0,0,46.8,0,104.5
		c0,57.7,46.8,104.5,104.5,104.5c9.7,0,19-1.3,27.9-3.8L131.8,204.5L131.8,204.5z"/>
	<path style="opacity:0.3;clip-path:url(#SVGID_00000082358663407263305690000006514513432936921222_);fill:#1A171B;" d="
		M265.6,167.5l-1-1l-1-1l-1-1l-1-1l-1-1l-1-1l-1-1l-1-1l-1-1l-1-1l-1-1l-1-1l-1-1l-1-1l-1-1l-1-1l-1-1l-1-1l-1-1l-1-1l-1-1l-0.1-0.1
		l-0.9-0.9l-0.1-0.1l-0.9-0.9l-0.1-0.1l-0.9-0.9l-0.1-0.1l-0.9-0.9l-0.1-0.1l-0.9-0.9l-0.1-0.1l-0.9-0.9l-0.1-0.1l-0.9-0.9l-0.1-0.1
		l-0.9-0.9l-0.1-0.1l-0.9-0.9l-0.1-0.1l-0.9-0.9l-0.1-0.1l-0.9-0.9l-0.1-0.1l-0.9-0.9l-0.1-0.1l-0.9-0.9l-0.1-0.1l-0.9-0.9l-0.1-0.1
		l-0.9-0.9l-0.1-0.1l-0.9-0.9l-0.1-0.1l-0.9-0.9l-0.1-0.1l-0.9-0.9l-0.1-0.1l-0.9-0.9l-0.1-0.1l-0.9-0.9l-0.1-0.1l-0.9-0.9l-0.1-0.1
		l-0.9-0.9l-0.1-0.1l-0.9-0.9l-0.1-0.1l-0.9-0.9l-0.1-0.1l-0.9-0.9l-0.1-0.1l-0.9-0.9l-0.1-0.1l-0.9-0.9l-0.1-0.1l-0.9-0.9l-0.1-0.1
		l-0.9-0.9l-0.1-0.1l-0.9-0.9l-0.1-0.1l-0.9-0.9l-0.1-0.1l-0.9-0.9l-0.1-0.1l-0.9-0.9l-0.1-0.1l-0.9-0.9l-0.1-0.1l-0.9-0.9l-0.1-0.1
		l-0.8-0.8c-2.6,45.3-34.1,82.8-76.3,94.5l0.4,0.4l0,0l40.3,39.8l8.6,8.1l84.9-84.9L265.6,167.5z"/>
	<path style="clip-path:url(#SVGID_00000082358663407263305690000006514513432936921222_);fill:#B057B9;" d="M208.7,110.6l-0.1-0.1
		l-0.1-0.1l-0.9-0.9l-0.1-0.1l-0.9-0.9l-0.1-0.1l-0.9-0.9l-0.1-0.1l-0.9-0.9l-0.1-0.1l-0.9-0.9l-0.1-0.1l-0.9-0.9l-0.1-0.1l-0.9-0.9
		l-0.1-0.1l-0.9-0.9l-0.1-0.1l-0.9-0.9l-0.1-0.1l-0.9-0.9l-0.1-0.1l-0.9-0.9l-0.1-0.1l-0.9-0.9l-0.1-0.1l-0.9-0.9l-0.1-0.1l-0.9-0.9
		l-0.1-0.1l-0.9-0.9l-0.1-0.1l-0.9-0.9l-0.1-0.1l-0.9-0.9l-0.1-0.1l-0.9-0.9l-0.1-0.1l-0.9-0.9l-0.1-0.1l-0.9-0.9l-0.1-0.1l-0.9-0.9
		l-0.1-0.1l-0.9-0.9l-0.1-0.1l-0.9-0.9l-0.1-0.1l-0.9-0.9l-0.1-0.1l-0.9-0.9l-0.1-0.1l-0.9-0.9l-0.1-0.1l-0.9-0.9l-0.1-0.1l-0.9-0.9
		l-0.1-0.1l-0.9-0.9l-0.1-0.1l-0.9-0.9l-0.1-0.1l-0.9-0.9l-0.1-0.1l-0.9-0.9l-0.1-0.1l-1-1l-1-1l-1-1l-1-1l-1-1l-1-1l-1-1l-1-1l-1-1
		l-1-1l-1-1l-1-1l-1-1l-1-1l-1-1l-1-1l-1-1l-1-1l-1-1l-1-1l-1-1l-1-1l-63.3,63.3l-0.3-0.3l-1-1l-1-1l-1-1l-1-1l-1-1l-1-1l-1-1l-1-1
		l-1-1l-1-1l-1-1l-1-1l-1-1l-1-1l-1-1l-1-1l-1-1l-1-1l-1-1l-1-1l-1-1l-1-1l-1-1l-1-1l-1-1l-1-1l-22.1,22.1l1,1l0,0l1,1l0,0l1,1l0,0
		l1,1l0,0l1,1l0,0l1,1l0,0l1,1l0,0l1,1l0,0l1,1l0,0l1,1l0,0l1,1l0,0l1,1l0,0l1,1l0,0l1,1l0,0l1,1l0,0l1,1l0,0l1,1l0,0l1,1l0,0l1,1
		l0,0l1,1l0,0l1,1l0,0l1,1l0,0l1,1l0,0l1,1l0,0l1,1l0,0l1,1l0,0l1,1l0,0l1,1l0,0l1,1l0,0l1,1l0,0l1,1l0,0l1,1l0,0l1,1l0,0l1,1l0,0
		l1,1l0,0l1,1l0,0l1,1l0,0l1,1l0,0l1,1l0,0l1,1l0,0l1,1l0,0l1,1l0,0l1,1l0,0l1,1l0,0l1,1l0,0l1,1l0,0l1,1l0,0l1,1l0,0l1,1l0,0l1,1
		l0,0l1,1l0,0l1,1l0,0l1,1l0,0l1,1l0,0l1,1l0,0l1,1l0,0l1,1l0,0l1,1l0,0l1,1l0,0l1,1l0,0l1,1l0,0l1,1l0,0l1,1l0,0l1,1l0,0l1,1l0,0
		l1,1l0,0l1,1l0,0l1,1l0,0l1,1l0,0l1,1l0,0l1,1l0,0l1,1l0,0l1,1l0,0l1,1l0,0l1,1l0,0l1,1l0,0l1,1l0,0l1,1l0,0l1,1l0,0l1,1l0,0l1,1
		l0,0l1,1l0,0l1,1l0,0l1,1l0,0l1,1l0,0l1,1l0,0l1,1l0,0l1,1l0,0l1,1l0,0l0.6,0.6C174.6,193.4,206.1,155.9,208.7,110.6z"/>
	<path style="opacity:0.3;clip-path:url(#SVGID_00000082358663407263305690000006514513432936921222_);fill:#1A171B;" d="
		M208.7,110.6l-0.1-0.1l-0.1-0.1l-0.9-0.9l-0.1-0.1l-0.9-0.9l-0.1-0.1l-0.9-0.9l-0.1-0.1l-0.9-0.9l-0.1-0.1l-0.9-0.9l-0.1-0.1
		l-0.9-0.9l-0.1-0.1l-0.9-0.9l-0.1-0.1l-0.9-0.9l-0.1-0.1l-0.9-0.9l-0.1-0.1l-0.9-0.9l-0.1-0.1l-0.9-0.9l-0.1-0.1l-0.9-0.9l-0.1-0.1
		l-0.9-0.9l-0.1-0.1l-0.9-0.9l-0.1-0.1l-0.9-0.9l-0.1-0.1l-0.9-0.9l-0.1-0.1l-0.9-0.9l-0.1-0.1l-0.9-0.9l-0.1-0.1l-0.9-0.9l-0.1-0.1
		l-0.9-0.9l-0.1-0.1l-0.9-0.9l-0.1-0.1l-0.9-0.9l-0.1-0.1l-0.9-0.9l-0.1-0.1l-0.9-0.9l-0.1-0.1l-0.9-0.9l-0.1-0.1l-0.9-0.9l-0.1-0.1
		l-0.9-0.9l-0.1-0.1l-0.9-0.9l-0.1-0.1l-0.9-0.9l-0.1-0.1l-0.9-0.9l-0.1-0.1l-0.9-0.9l-0.1-0.1l-0.9-0.9l-0.1-0.1l-1-1l-1-1l-1-1
		l-1-1l-1-1l-1-1l-1-1l-1-1l-1-1l-1-1l-1-1l-1-1l-1-1l-1-1l-1-1l-1-1l-1-1l-1-1l-1-1l-1-1l-1-1l-1-1l-63.3,63.3l-0.3-0.3l-1-1l-1-1
		l-1-1l-1-1l-1-1l-1-1l-1-1l-1-1l-1-1l-1-1l-1-1l-1-1l-1-1l-1-1l-1-1l-1-1l-1-1l-1-1l-1-1l-1-1l-1-1l-1-1l-1-1l-1-1l-1-1l-1-1
		l-22.1,22.1l1,1l0,0l1,1l0,0l1,1l0,0l1,1l0,0l1,1l0,0l1,1l0,0l1,1l0,0l1,1l0,0l1,1l0,0l1,1l0,0l1,1l0,0l1,1l0,0l1,1l0,0l1,1l0,0
		l1,1l0,0l1,1l0,0l1,1l0,0l1,1l0,0l1,1l0,0l1,1l0,0l1,1l0,0l1,1l0,0l1,1l0,0l1,1l0,0l1,1l0,0l1,1l0,0l1,1l0,0l1,1l0,0l1,1l0,0l1,1
		l0,0l1,1l0,0l1,1l0,0l1,1l0,0l1,1l0,0l1,1l0,0l1,1l0,0l1,1l0,0l1,1l0,0l1,1l0,0l1,1l0,0l1,1l0,0l1,1l0,0l1,1l0,0l1,1l0,0l1,1l0,0
		l1,1l0,0l1,1l0,0l1,1l0,0l1,1l0,0l1,1l0,0l1,1l0,0l1,1l0,0l1,1l0,0l1,1l0,0l1,1l0,0l1,1l0,0l1,1l0,0l1,1l0,0l1,1l0,0l1,1l0,0l1,1
		l0,0l1,1l0,0l1,1l0,0l1,1l0,0l1,1l0,0l1,1l0,0l1,1l0,0l1,1l0,0l1,1l0,0l1,1l0,0l1,1l0,0l1,1l0,0l1,1l0,0l1,1l0,0l1,1l0,0l1,1l0,0
		l1,1l0,0l1,1l0,0l1,1l0,0l1,1l0,0l1,1l0,0l1,1l0,0l1,1l0,0l1,1l0,0l1,1l0,0l1,1l0,0l1,1l0,0l1,1l0,0l1,1l0,0l0.6,0.6
		C174.6,193.4,206.1,155.9,208.7,110.6z"/>
</g>
<polygon class="st2" points="176.6,78.5 154.5,56.4 91.2,119.7 64.9,93.4 42.8,115.5 83.1,155.3 83.1,155.3 91.7,163.5 "/>
</svg>
