<?xml version="1.0" encoding="utf-8"?>
<!-- Generator: Adobe Illustrator 25.4.1, SVG Export Plug-In . SVG Version: 6.00 Build 0)  -->
<svg version="1.1" id="Layer_1" xmlns="http://www.w3.org/2000/svg" xmlns:xlink="http://www.w3.org/1999/xlink" x="0px" y="0px"
	 viewBox="0 0 752.7 132.1" style="enable-background:new 0 0 752.7 132.1;" xml:space="preserve">
<style type="text/css">
	.st0{fill:#DDDDDD;}
</style>
<g>
	<path class="st0" d="M660.7,114.7h7.3V98.8c0-1.7,0.2-2.9,0.7-3.7c0.5-0.8,1-1.3,1.7-1.3c0.3,0,0.6,0.1,0.9,0.3
		c0.3,0.2,0.6,0.4,0.8,0.7s0.4,0.5,0.5,0.8c0.1,0.3,0.2,0.5,0.2,0.7c0,0.2-0.1,0.3-0.2,0.3s-0.3,0.1-0.4,0.2
		c-0.2,0.1-0.3,0.4-0.4,0.9c-0.1,0.4-0.2,1.1-0.2,2.1V129c0,0.4-0.1,0.7-0.4,0.8c-0.3,0.2-0.6,0.2-0.9,0.2c-0.3,0-0.5,0-0.8-0.1
		c-0.3-0.1-0.5-0.2-0.7-0.3s-0.4-0.3-0.5-0.4c-0.1-0.2-0.2-0.3-0.2-0.5V118h-7.3v11c0,0.4-0.1,0.7-0.4,0.8c-0.3,0.2-0.6,0.2-0.9,0.2
		c-0.3,0-0.5,0-0.8-0.1c-0.3-0.1-0.5-0.2-0.7-0.3s-0.4-0.3-0.5-0.4c-0.1-0.2-0.2-0.3-0.2-0.5v-10.8h-3.3c-0.2,0-0.5-0.1-0.7-0.2
		c-0.2-0.2-0.4-0.3-0.5-0.6s-0.3-0.5-0.3-0.8c-0.1-0.3-0.1-0.5-0.1-0.8c0-0.3,0.1-0.5,0.2-0.6c0.1-0.2,0.3-0.3,0.5-0.3h4.3V99.6
		c-1.4,0-2.8,0.2-4,0.7c-1.2,0.5-2.2,1.2-3.1,2c-0.9,0.9-1.6,2-2,3.2c-0.5,1.3-0.7,2.7-0.7,4.2c0,1,0.1,1.9,0.3,2.7
		c0.2,0.8,0.4,1.5,0.7,2c0.3,0.6,0.5,1,0.8,1.3c0.3,0.3,0.5,0.5,0.6,0.5c0.1,0,0.2,0,0.3-0.1s0.2-0.1,0.3-0.1s0.2,0.1,0.2,0.3
		c0,0.2,0,0.3,0,0.5c0,0.5-0.1,0.9-0.3,1.4c-0.2,0.4-0.4,0.8-0.7,1c-0.3,0.3-0.6,0.4-1,0.5s-0.7,0-1-0.3c-0.4-0.3-0.8-0.7-1.3-1.2
		c-0.5-0.5-0.9-1.2-1.3-2c-0.4-0.8-0.7-1.7-1-2.7c-0.2-1-0.4-2.2-0.4-3.5c0-1.7,0.2-3.1,0.6-4.5c0.4-1.3,1-2.5,1.8-3.5
		c0.7-1,1.6-1.9,2.6-2.6c1-0.7,2.1-1.3,3.2-1.8c1.1-0.5,2.3-0.8,3.5-1.1s2.4-0.3,3.6-0.3c0.2,0,0.5,0.1,0.7,0.1s0.4,0.2,0.6,0.4
		c0.2,0.2,0.3,0.4,0.4,0.6c0.1,0.2,0.2,0.5,0.2,0.8V114.7z"/>
	<path class="st0" d="M688.7,130.1c-0.5,0-1-0.1-1.4-0.2s-0.8-0.4-1.1-0.7c-0.3-0.3-0.6-0.6-0.8-1c-0.2-0.4-0.4-0.8-0.4-1.3
		c-0.6,1-1.2,1.8-2,2.4s-1.7,0.9-2.7,0.9c-0.8,0-1.5-0.2-2.1-0.5c-0.6-0.3-1.1-0.8-1.6-1.4c-0.4-0.6-0.7-1.3-1-2.1
		c-0.2-0.8-0.3-1.7-0.3-2.8c0-1.2,0.1-2.5,0.3-3.7c0.2-1.2,0.4-2.4,0.6-3.4c0.2-1.2,0.5-2.3,0.8-3.4c0.1-0.2,0.1-0.4,0.2-0.6
		c0-0.2,0.1-0.4,0.3-0.6c0.1-0.2,0.4-0.3,0.6-0.4c0.3-0.1,0.8-0.2,1.4-0.2c0.6,0,0.9,0.1,1.1,0.3c0.2,0.2,0.2,0.4,0.2,0.7
		c0,0.3-0.1,0.6-0.3,0.8s-0.2,0.5-0.3,0.7c-0.2,0.9-0.4,1.7-0.6,2.4c-0.2,0.7-0.3,1.4-0.4,2.2s-0.2,1.5-0.3,2.3
		c-0.1,0.8-0.1,1.7-0.1,2.6c0,1.3,0.2,2.2,0.6,2.9c0.4,0.7,0.9,1,1.6,1c0.5,0,0.9-0.2,1.3-0.5c0.4-0.3,0.8-0.8,1.1-1.4
		c0.3-0.6,0.6-1.3,0.9-2c0.2-0.8,0.4-1.5,0.6-2.4v-7.5c0-0.3,0-0.6-0.1-0.8c-0.1-0.2-0.1-0.4-0.2-0.5c-0.1-0.1-0.1-0.2-0.2-0.3
		c-0.1-0.1-0.1-0.1-0.1-0.2c0-0.1,0-0.1,0.1-0.2c0.1-0.1,0.2-0.1,0.4-0.2c0.2,0,0.3-0.1,0.5-0.1c0.2,0,0.3,0,0.5,0
		c0.8,0,1.4,0.2,1.8,0.6c0.4,0.4,0.7,0.9,0.7,1.4v11.8c0,0.1,0,0.3,0,0.5c0,0.2,0.1,0.5,0.1,0.7c0.1,0.2,0.2,0.5,0.4,0.6
		c0.2,0.2,0.4,0.3,0.7,0.3c0.5,0,0.9-0.2,1.2-0.5c0.3-0.3,0.6-0.8,0.9-1.3s0.5-1,0.6-1.6c0.2-0.6,0.3-1.1,0.4-1.6
		c0.1-0.5,0.2-0.8,0.5-1.1c0.2-0.2,0.4-0.3,0.7-0.3c0.2,0,0.4,0.1,0.6,0.2c0.2,0.1,0.4,0.3,0.5,0.4c0.2,0.2,0.3,0.4,0.4,0.6
		c0.1,0.2,0.1,0.5,0.1,0.7c0,0,0,0.1,0,0.1c0,0,0,0.1,0,0.2c-0.2,0.8-0.5,1.6-0.8,2.4c-0.3,0.8-0.8,1.6-1.3,2.3
		c-0.5,0.7-1.2,1.3-1.9,1.8C690.5,129.8,689.7,130.1,688.7,130.1z"/>
	<path class="st0" d="M692.8,113.2c0-0.4,0-0.8-0.1-1s-0.1-0.4-0.1-0.5c0-0.2,0.1-0.4,0.4-0.6c0.2-0.1,0.5-0.2,0.9-0.2
		c0.8,0,1.4,0.2,1.8,0.6c0.4,0.4,0.7,0.9,0.7,1.4v2.1c0.3-0.7,0.7-1.3,1-1.8s0.8-1.1,1.2-1.5c0.4-0.4,0.9-0.7,1.4-1
		c0.5-0.2,1-0.4,1.6-0.4c0.8,0,1.4,0.1,1.9,0.4c0.5,0.3,0.9,0.7,1.2,1.1s0.5,1,0.6,1.5c0.1,0.6,0.2,1.1,0.2,1.6v9.6
		c0,0.1,0,0.3,0,0.5s0.1,0.5,0.1,0.7c0.1,0.2,0.2,0.5,0.4,0.6c0.2,0.2,0.4,0.3,0.7,0.3c0.5,0,0.9-0.2,1.2-0.5
		c0.3-0.3,0.6-0.8,0.9-1.3c0.2-0.5,0.5-1,0.6-1.6c0.2-0.6,0.3-1.1,0.4-1.6c0.1-0.5,0.2-0.8,0.5-1.1c0.2-0.2,0.4-0.3,0.7-0.3
		c0.2,0,0.4,0.1,0.6,0.2c0.2,0.1,0.4,0.3,0.5,0.4s0.3,0.4,0.4,0.6s0.1,0.5,0.1,0.7c0,0,0,0.1,0,0.1c0,0,0,0.1,0,0.2
		c-0.2,0.8-0.5,1.6-0.8,2.4c-0.3,0.8-0.8,1.6-1.3,2.3s-1.2,1.3-1.9,1.8c-0.7,0.5-1.6,0.7-2.6,0.7c-0.6,0-1.2-0.1-1.6-0.4
		c-0.5-0.2-0.9-0.6-1.2-0.9c-0.3-0.4-0.6-0.9-0.8-1.4c-0.2-0.5-0.3-1.1-0.3-1.7v-9.5c0-0.4,0-0.7,0-1c0-0.3-0.1-0.6-0.1-0.8
		c-0.1-0.2-0.2-0.4-0.3-0.6s-0.3-0.2-0.5-0.2c-0.3,0-0.7,0.2-1.2,0.7s-1,1-1.4,1.8c-0.5,0.7-0.9,1.6-1.2,2.5
		c-0.4,0.9-0.6,1.8-0.7,2.8v6.8c0,0.2,0,0.5,0,0.7c0,0.2-0.1,0.4-0.1,0.6s-0.2,0.3-0.4,0.5c-0.2,0.1-0.4,0.2-0.8,0.2
		c-0.2,0-0.5,0-0.7-0.1c-0.3-0.1-0.5-0.2-0.7-0.3c-0.2-0.1-0.4-0.4-0.5-0.6c-0.1-0.3-0.2-0.6-0.2-1.1L692.8,113.2L692.8,113.2z"/>
	<path class="st0" d="M705.4,106.9c0.3,0,0.7,0.1,1.2,0.1c0.4,0,0.8,0,1.3,0.1c0.5,0,1.1,0,1.7,0v-7.9c0-0.3,0-0.6-0.1-0.8
		s-0.1-0.4-0.2-0.5c-0.1-0.1-0.1-0.2-0.2-0.3c-0.1-0.1-0.1-0.1-0.1-0.2c0-0.1,0-0.2,0.1-0.2c0.1-0.1,0.2-0.1,0.4-0.2
		c0.2,0,0.3-0.1,0.5-0.1c0.2,0,0.3,0,0.5,0c0.8,0,1.4,0.2,1.8,0.6c0.4,0.4,0.7,0.9,0.7,1.4v8.2c1.4,0,2.9,0,4.5,0
		c1.6,0,3.2-0.1,4.8-0.2c0.2-0.2,0.4-0.3,0.5-0.2c0.1,0.1,0.2,0.2,0.2,0.4c0,0.2,0,0.5,0,0.8c0,0.3-0.1,0.7-0.2,1
		c-0.1,0.3-0.2,0.6-0.4,0.8c-0.2,0.2-0.3,0.3-0.5,0.3c-1.9,0-3.5,0.1-4.9,0.1c-1.4,0-2.8,0-4,0v14.8c0,0.8,0.1,1.3,0.4,1.6
		c0.3,0.3,0.7,0.5,1.2,0.5c0.5,0,0.9-0.2,1.2-0.5c0.3-0.3,0.6-0.8,0.9-1.3c0.3-0.5,0.5-1,0.6-1.6c0.2-0.6,0.3-1.1,0.4-1.6
		c0.1-0.5,0.2-0.8,0.5-1.1c0.2-0.2,0.4-0.3,0.7-0.3c0.2,0,0.4,0.1,0.6,0.2c0.2,0.1,0.4,0.3,0.5,0.4c0.2,0.2,0.3,0.4,0.4,0.6
		c0.1,0.2,0.1,0.5,0.1,0.7c0,0,0,0.1,0,0.1c0,0,0,0.1,0,0.2c-0.2,0.8-0.5,1.6-0.8,2.4c-0.3,0.8-0.8,1.6-1.3,2.3
		c-0.5,0.7-1.2,1.3-1.9,1.8c-0.7,0.5-1.6,0.7-2.6,0.7c-0.6,0-1.2-0.1-1.7-0.3c-0.5-0.2-1-0.5-1.4-0.9c-0.4-0.4-0.7-1-0.9-1.6
		c-0.2-0.7-0.3-1.4-0.3-2.4v-14.8c-0.5,0-1,0-1.4,0c-0.4,0-0.7,0-1,0c-0.3,0-0.6,0-0.8,0c-0.4,0-0.7-0.2-1-0.5
		c-0.3-0.3-0.5-0.7-0.6-1.1c-0.1-0.4-0.1-0.8,0-1.1C704.9,107,705.1,106.9,705.4,106.9z"/>
</g>
<g>
	<path class="st0" d="M301.7,99.5c0,10.3-8.2,18.7-18.5,18.7s-18.5-8.4-18.5-18.7V1.3h-13v98.2c0,17.4,14.1,31.6,31.5,31.6
		s31.5-14.2,31.5-31.6V1.3h-13V99.5z"/>
	<path class="st0" d="M456.7,23.8c0-12.4-10.1-22.5-22.5-22.5h-17.9c-12.4,0-22.5,10.1-22.5,22.5v84.9c0,12.4,10.1,22.5,22.5,22.5
		h17.9c12.4,0,22.5-10.1,22.5-22.5L456.7,23.8L456.7,23.8z M443.7,108.6c0,5.4-4.3,9.7-9.7,9.7h-17.6c-5.4,0-9.7-4.3-9.7-9.7V23
		c0-5.4,4.3-9.7,9.7-9.7H434c5.4,0,9.7,4.3,9.7,9.7V108.6z"/>
	<path class="st0" d="M367.6,71.3c10,0,18-8,18-18V17.9c0-10-8.1-17.6-18-17.6h-45v130h13v-118h32c2.9,0,5,2.7,5,5.6v35.4
		c0,2.9-2.1,5-5,5h-23.2l31.5,73.7l11.8-5l-23.9-55.7L367.6,71.3L367.6,71.3z"/>
	<path class="st0" d="M509.8,71.3c10,0,17.9-8,17.9-18V17.9c0-10-7.9-17.6-17.9-17.6h-45.1v130h13v-118h32.1c2.9,0,4.9,2.7,4.9,5.6
		v35.4c0,2.9-2,5-4.9,5h-23.2l31.5,73.7l11.8-5L506,71.3L509.8,71.3L509.8,71.3z"/>
	<path class="st0" d="M752.7,64.3l-82.1-16.9l18.1,11.9H608l-12.8-47.9C593.4,4.5,587.4,0,580.3,0c-7.1,0-13.1,4.7-14.9,11.5
		l-12.8,48.1l-0.5,1.8l-17.8,67.1l12.4,3.5l16.7-62.8h33.7l16.7,62.8l12.4-3.2l-15.8-59.6h78.3l-18.1,11.9L752.7,64.3z M565.8,59.3
		l11.9-44.6c0.4-1.7,1.8-1.8,2.5-1.8c0.8,0,2.1,0.1,2.5,1.8l11.9,44.7L565.8,59.3L565.8,59.3z"/>
	<path class="st0" d="M201.3,0.1c-7.1,0-13.1,4.8-14.9,11.7l-12.8,48.6h-50l-22.8-15H68.9l12.6,10l-1.1,1.4L66,45.3H44.5l12.6,10
		L56,56.7L41.5,45.3H20.1l12.6,10l-1.1,1.4L17.1,45.3H0l20.7,16.3v2.9v2.9L0,83.3h17.1l14.5-11.2l1.1,1.4l-12.6,9.8h21.5L56,72.1
		l1.1,1.4l-12.6,9.8H66l14.5-11.2l1.1,1.4l-12.6,9.8h31.8l22.8-14h47.5l-15.8,59.3l12.4,3.3l16.6-62.7h33.8l16.6,62.6l12.4-3.3
		l-31-117C214.4,4.7,208.4,0.1,201.3,0.1z M186.8,60.3l12-45.3c0.4-1.7,1.8-2,2.5-2s2.1,0.4,2.5,2.1l12,45.2H186.8z"/>
</g>
</svg>
