<?xml version="1.0" encoding="utf-8"?>
<!-- Generator: Adobe Illustrator 16.0.0, SVG Export Plug-In . SVG Version: 6.00 Build 0)  -->
<!DOCTYPE svg PUBLIC "-//W3C//DTD SVG 1.1//EN" "http://www.w3.org/Graphics/SVG/1.1/DTD/svg11.dtd">
<svg version="1.1" id="Layer_1" xmlns="http://www.w3.org/2000/svg" xmlns:xlink="http://www.w3.org/1999/xlink" x="0px" y="0px"
	 width="752.668px" height="132.059px" viewBox="0 0 752.668 132.059" enable-background="new 0 0 752.668 132.059"
	 xml:space="preserve">
<g>
	<linearGradient id="SVGID_1_" gradientUnits="userSpaceOnUse" x1="248.667" y1="106.5879" x2="665.531" y2="111.9437">
		<stop  offset="0" style="stop-color:#7D2287"/>
		<stop  offset="0.2968" style="stop-color:#A0549C"/>
		<stop  offset="0.669" style="stop-color:#36A8BB"/>
		<stop  offset="1" style="stop-color:#256487"/>
	</linearGradient>
	<path fill="url(#SVGID_1_)" d="M660.665,114.698h7.256v-15.9c0-1.653,0.239-2.896,0.717-3.73c0.479-0.834,1.05-1.251,1.718-1.251
		c0.333,0,0.648,0.099,0.943,0.296c0.297,0.196,0.558,0.428,0.785,0.693s0.405,0.538,0.534,0.819
		c0.129,0.28,0.193,0.504,0.193,0.671c0,0.166-0.064,0.262-0.193,0.284s-0.271,0.106-0.432,0.25
		c-0.159,0.145-0.304,0.429-0.433,0.853c-0.129,0.425-0.192,1.123-0.192,2.094v29.208c0,0.394-0.133,0.67-0.398,0.83
		c-0.266,0.159-0.573,0.238-0.922,0.238c-0.272,0-0.545-0.038-0.818-0.113c-0.272-0.076-0.52-0.175-0.739-0.296
		s-0.402-0.262-0.546-0.421c-0.145-0.159-0.217-0.33-0.217-0.512v-10.76h-7.256v11.033c0,0.394-0.133,0.67-0.397,0.83
		c-0.267,0.159-0.573,0.238-0.922,0.238c-0.273,0-0.546-0.038-0.819-0.113c-0.273-0.076-0.52-0.175-0.739-0.296
		s-0.402-0.262-0.545-0.421c-0.145-0.159-0.218-0.33-0.218-0.512v-10.76h-3.32c-0.243,0-0.467-0.075-0.672-0.228
		c-0.204-0.151-0.379-0.345-0.522-0.58s-0.258-0.488-0.341-0.762c-0.084-0.273-0.125-0.53-0.125-0.773
		c0-0.258,0.057-0.475,0.171-0.648c0.112-0.175,0.284-0.262,0.511-0.262h4.299V99.64c-1.439,0-2.763,0.238-3.969,0.717
		c-1.205,0.478-2.245,1.159-3.117,2.047c-0.871,0.888-1.554,1.96-2.047,3.219c-0.492,1.259-0.738,2.669-0.738,4.231
		c0,0.985,0.099,1.873,0.295,2.661c0.197,0.789,0.433,1.46,0.706,2.013c0.272,0.555,0.545,0.982,0.817,1.286
		c0.273,0.303,0.486,0.454,0.639,0.454c0.136,0,0.234-0.037,0.295-0.113s0.151-0.114,0.272-0.114s0.197,0.084,0.229,0.251
		c0.029,0.167,0.045,0.333,0.045,0.5c0,0.485-0.099,0.944-0.295,1.377c-0.198,0.432-0.444,0.78-0.74,1.046
		c-0.295,0.266-0.625,0.429-0.989,0.489s-0.713-0.03-1.047-0.273c-0.409-0.288-0.845-0.701-1.308-1.239
		c-0.462-0.538-0.888-1.202-1.274-1.991c-0.387-0.788-0.704-1.701-0.955-2.741c-0.25-1.038-0.375-2.195-0.375-3.469
		c0-1.652,0.217-3.143,0.647-4.47c0.433-1.326,1.017-2.503,1.752-3.525c0.735-1.024,1.604-1.903,2.604-2.639
		c1.001-0.735,2.066-1.342,3.197-1.82c1.129-0.478,2.304-0.83,3.525-1.058c1.221-0.228,2.423-0.342,3.605-0.342
		c0.242,0,0.478,0.05,0.705,0.148s0.424,0.235,0.592,0.409c0.166,0.175,0.303,0.384,0.408,0.626c0.107,0.242,0.16,0.5,0.16,0.773
		V114.698z"/>
	<linearGradient id="SVGID_2_" gradientUnits="userSpaceOnUse" x1="248.5415" y1="114.9512" x2="665.4222" y2="120.3072">
		<stop  offset="0" style="stop-color:#7D2287"/>
		<stop  offset="0.2968" style="stop-color:#A0549C"/>
		<stop  offset="0.669" style="stop-color:#36A8BB"/>
		<stop  offset="1" style="stop-color:#256487"/>
	</linearGradient>
	<path fill="url(#SVGID_2_)" d="M688.667,130.053c-0.532,0-1.013-0.083-1.445-0.25s-0.811-0.398-1.137-0.694
		c-0.327-0.296-0.596-0.644-0.809-1.046c-0.212-0.401-0.356-0.838-0.432-1.308c-0.562,0.985-1.221,1.79-1.979,2.411
		c-0.758,0.621-1.652,0.933-2.684,0.933c-0.773,0-1.468-0.159-2.081-0.479c-0.614-0.317-1.134-0.77-1.56-1.353
		c-0.424-0.584-0.746-1.289-0.966-2.115c-0.221-0.827-0.33-1.748-0.33-2.765c0-1.229,0.087-2.464,0.261-3.707
		c0.174-1.244,0.368-2.366,0.58-3.367c0.243-1.168,0.523-2.298,0.843-3.39c0.075-0.197,0.132-0.398,0.171-0.603
		c0.037-0.205,0.124-0.391,0.261-0.557c0.137-0.167,0.353-0.304,0.648-0.41c0.297-0.106,0.755-0.159,1.377-0.159
		c0.575,0,0.947,0.102,1.113,0.307c0.167,0.205,0.231,0.443,0.194,0.717c-0.038,0.273-0.129,0.554-0.273,0.842
		s-0.238,0.522-0.284,0.705c-0.212,0.864-0.401,1.653-0.569,2.365c-0.166,0.714-0.307,1.43-0.42,2.15s-0.202,1.471-0.263,2.252
		c-0.06,0.78-0.09,1.657-0.09,2.628c0,1.273,0.186,2.236,0.558,2.889c0.371,0.652,0.897,0.978,1.58,0.978
		c0.471,0,0.906-0.174,1.309-0.523c0.401-0.349,0.765-0.814,1.092-1.398c0.326-0.584,0.61-1.251,0.853-2.002
		c0.243-0.75,0.433-1.535,0.569-2.354v-7.507c0-0.333-0.027-0.599-0.08-0.796c-0.054-0.197-0.106-0.353-0.159-0.467
		c-0.053-0.113-0.105-0.204-0.16-0.272c-0.052-0.068-0.078-0.147-0.078-0.239c0-0.075,0.045-0.144,0.136-0.205
		c0.092-0.06,0.213-0.113,0.364-0.158c0.151-0.046,0.314-0.08,0.489-0.103c0.174-0.022,0.345-0.034,0.512-0.034
		c0.773,0,1.383,0.201,1.831,0.603c0.447,0.402,0.671,0.884,0.671,1.444v11.829c0,0.106,0.008,0.277,0.022,0.512
		c0.016,0.235,0.062,0.474,0.137,0.717c0.076,0.242,0.197,0.455,0.364,0.637c0.167,0.183,0.401,0.273,0.705,0.273
		c0.47,0,0.876-0.167,1.218-0.501c0.34-0.333,0.637-0.75,0.887-1.251s0.454-1.043,0.613-1.626c0.16-0.584,0.292-1.134,0.399-1.649
		c0.09-0.485,0.242-0.838,0.454-1.059c0.213-0.219,0.432-0.329,0.659-0.329c0.183,0,0.372,0.057,0.569,0.171
		c0.196,0.113,0.376,0.261,0.535,0.443c0.158,0.182,0.288,0.387,0.386,0.614c0.099,0.228,0.148,0.455,0.148,0.683
		c0,0.03,0,0.067,0,0.113c0,0.045-0.015,0.113-0.046,0.205c-0.213,0.773-0.488,1.585-0.83,2.434
		c-0.341,0.849-0.777,1.63-1.309,2.343c-0.53,0.713-1.167,1.304-1.91,1.774C690.54,129.817,689.667,130.053,688.667,130.053z"/>
	<linearGradient id="SVGID_3_" gradientUnits="userSpaceOnUse" x1="248.5435" y1="114.4932" x2="665.4286" y2="119.8493">
		<stop  offset="0" style="stop-color:#7D2287"/>
		<stop  offset="0.2968" style="stop-color:#A0549C"/>
		<stop  offset="0.669" style="stop-color:#36A8BB"/>
		<stop  offset="1" style="stop-color:#256487"/>
	</linearGradient>
	<path fill="url(#SVGID_3_)" d="M692.806,113.242c0-0.439-0.033-0.758-0.102-0.955s-0.103-0.379-0.103-0.546
		c0-0.228,0.121-0.413,0.363-0.557c0.242-0.145,0.531-0.217,0.864-0.217c0.774,0,1.384,0.201,1.832,0.603
		c0.447,0.402,0.671,0.884,0.671,1.444v2.093c0.318-0.651,0.662-1.258,1.034-1.819s0.774-1.05,1.206-1.468
		c0.433-0.416,0.896-0.742,1.388-0.978c0.493-0.235,1.027-0.353,1.604-0.353c0.774,0,1.41,0.145,1.911,0.432
		c0.5,0.288,0.895,0.66,1.183,1.115s0.489,0.963,0.603,1.523c0.114,0.563,0.171,1.107,0.171,1.638v9.646
		c0,0.106,0.008,0.277,0.023,0.512c0.015,0.235,0.06,0.474,0.136,0.717c0.076,0.242,0.194,0.455,0.353,0.637
		c0.159,0.183,0.391,0.273,0.694,0.273c0.47,0,0.876-0.167,1.217-0.501c0.342-0.333,0.637-0.75,0.888-1.251
		c0.25-0.501,0.454-1.043,0.613-1.626c0.16-0.584,0.292-1.134,0.398-1.649c0.092-0.485,0.242-0.838,0.455-1.059
		c0.212-0.219,0.433-0.329,0.659-0.329c0.183,0,0.372,0.057,0.569,0.171c0.197,0.113,0.375,0.261,0.534,0.443
		c0.159,0.182,0.288,0.387,0.387,0.614s0.147,0.455,0.147,0.683c0,0.03,0,0.067,0,0.113c0,0.045-0.015,0.113-0.045,0.205
		c-0.198,0.773-0.467,1.585-0.808,2.434c-0.342,0.849-0.781,1.63-1.319,2.343s-1.18,1.304-1.923,1.774
		c-0.742,0.47-1.614,0.705-2.615,0.705c-0.622,0-1.171-0.117-1.649-0.353c-0.478-0.235-0.887-0.55-1.229-0.943
		c-0.341-0.395-0.6-0.857-0.773-1.388c-0.175-0.531-0.262-1.092-0.262-1.684v-9.463c0-0.364-0.008-0.705-0.022-1.024
		c-0.016-0.317-0.057-0.599-0.125-0.841c-0.068-0.243-0.167-0.436-0.296-0.58s-0.308-0.217-0.534-0.217
		c-0.334,0-0.743,0.228-1.229,0.683s-0.964,1.047-1.433,1.774c-0.471,0.728-0.884,1.551-1.24,2.468
		c-0.356,0.918-0.58,1.84-0.671,2.765v6.802c0,0.227-0.005,0.458-0.012,0.693c-0.008,0.235-0.054,0.447-0.137,0.637
		s-0.212,0.349-0.387,0.478c-0.174,0.129-0.428,0.193-0.762,0.193c-0.228,0-0.474-0.026-0.739-0.079
		c-0.265-0.054-0.509-0.152-0.728-0.296c-0.221-0.145-0.402-0.35-0.546-0.614c-0.145-0.266-0.217-0.617-0.217-1.059V113.242z"/>
	<linearGradient id="SVGID_4_" gradientUnits="userSpaceOnUse" x1="248.6089" y1="107.4902" x2="665.5156" y2="112.8466">
		<stop  offset="0" style="stop-color:#7D2287"/>
		<stop  offset="0.2968" style="stop-color:#A0549C"/>
		<stop  offset="0.669" style="stop-color:#36A8BB"/>
		<stop  offset="1" style="stop-color:#256487"/>
	</linearGradient>
	<path fill="url(#SVGID_4_)" d="M705.409,106.851c0.35,0.03,0.736,0.053,1.161,0.068c0.363,0.03,0.804,0.049,1.318,0.057
		c0.516,0.008,1.092,0.019,1.729,0.034v-7.894c0-0.333-0.027-0.599-0.08-0.796s-0.105-0.353-0.159-0.467
		c-0.054-0.113-0.106-0.205-0.159-0.273c-0.053-0.067-0.079-0.14-0.079-0.215c0-0.092,0.045-0.168,0.136-0.228
		c0.091-0.061,0.213-0.114,0.364-0.16c0.151-0.045,0.314-0.079,0.488-0.103c0.176-0.022,0.346-0.034,0.513-0.034
		c0.773,0,1.384,0.202,1.832,0.604c0.446,0.402,0.67,0.884,0.67,1.444v8.166c1.426,0,2.932-0.015,4.516-0.045
		c1.584-0.031,3.173-0.083,4.766-0.159c0.212-0.228,0.383-0.311,0.513-0.25c0.128,0.061,0.211,0.204,0.25,0.432
		c0.037,0.228,0.041,0.509,0.011,0.842c-0.03,0.334-0.091,0.656-0.182,0.967c-0.092,0.312-0.216,0.58-0.376,0.808
		c-0.159,0.228-0.338,0.341-0.535,0.341c-1.865,0.046-3.514,0.073-4.946,0.08c-1.434,0.008-2.772,0.011-4.016,0.011v14.764
		c0,0.759,0.145,1.305,0.433,1.638c0.288,0.334,0.674,0.501,1.16,0.501c0.47,0,0.876-0.167,1.217-0.501
		c0.342-0.333,0.637-0.75,0.887-1.251c0.251-0.501,0.455-1.043,0.614-1.626c0.16-0.584,0.292-1.134,0.398-1.649
		c0.09-0.485,0.242-0.838,0.455-1.059c0.213-0.219,0.433-0.329,0.659-0.329c0.183,0,0.372,0.057,0.569,0.171
		c0.197,0.113,0.376,0.261,0.534,0.443c0.159,0.182,0.288,0.387,0.388,0.614c0.098,0.228,0.147,0.455,0.147,0.683
		c0,0.03,0,0.067,0,0.113c0,0.045-0.016,0.113-0.046,0.205c-0.197,0.773-0.467,1.585-0.808,2.434
		c-0.342,0.849-0.781,1.63-1.319,2.343s-1.18,1.304-1.922,1.774c-0.743,0.47-1.615,0.705-2.616,0.705
		c-0.622,0-1.194-0.095-1.718-0.284c-0.522-0.189-0.975-0.493-1.353-0.909c-0.38-0.417-0.675-0.952-0.888-1.604
		c-0.213-0.651-0.318-1.44-0.318-2.366V110.08c-0.516,0-0.975-0.003-1.376-0.011c-0.402-0.007-0.739-0.019-1.013-0.034
		c-0.318-0.016-0.6-0.03-0.842-0.046c-0.364,0-0.686-0.162-0.967-0.489c-0.28-0.326-0.478-0.686-0.592-1.08
		c-0.113-0.395-0.128-0.754-0.046-1.081C704.868,107.014,705.076,106.851,705.409,106.851z"/>
</g>
<g>
	<linearGradient id="SVGID_5_" gradientUnits="userSpaceOnUse" x1="171.6724" y1="66.2114" x2="610.2645" y2="66.2114">
		<stop  offset="0" style="stop-color:#861F91"/>
		<stop  offset="0.2968" style="stop-color:#B553B8"/>
		<stop  offset="0.66" style="stop-color:#32B2C6"/>
		<stop  offset="1" style="stop-color:#23688E"/>
	</linearGradient>
	<path fill="url(#SVGID_5_)" d="M301.672,99.546c0,10.338-8.162,18.749-18.5,18.749s-18.5-8.411-18.5-18.749V1.303h-13v98.243
		c0,17.41,14.09,31.574,31.5,31.574s31.5-14.164,31.5-31.574V1.303h-13V99.546z"/>
	<linearGradient id="SVGID_6_" gradientUnits="userSpaceOnUse" x1="171.6724" y1="66.3027" x2="610.2645" y2="66.3027">
		<stop  offset="0" style="stop-color:#861F91"/>
		<stop  offset="0.2968" style="stop-color:#B553B8"/>
		<stop  offset="0.66" style="stop-color:#32B2C6"/>
		<stop  offset="1" style="stop-color:#23688E"/>
	</linearGradient>
	<path fill="url(#SVGID_6_)" d="M456.672,23.83c0-12.441-10.086-22.527-22.527-22.527H416.2c-12.441,0-22.527,10.086-22.527,22.527
		v84.945c0,12.441,10.086,22.527,22.527,22.527h17.945c12.441,0,22.527-10.086,22.527-22.527V23.83z M443.672,108.602
		c0,5.357-4.344,9.701-9.702,9.701h-17.596c-5.358,0-9.702-4.344-9.702-9.701V23.004c0-5.357,4.344-9.701,9.702-9.701h17.596
		c5.358,0,9.702,4.344,9.702,9.701V108.602z"/>
	<linearGradient id="SVGID_7_" gradientUnits="userSpaceOnUse" x1="171.6724" y1="66.1523" x2="610.2649" y2="66.1523">
		<stop  offset="0" style="stop-color:#861F91"/>
		<stop  offset="0.2968" style="stop-color:#B553B8"/>
		<stop  offset="0.66" style="stop-color:#32B2C6"/>
		<stop  offset="1" style="stop-color:#23688E"/>
	</linearGradient>
	<path fill="url(#SVGID_7_)" d="M367.634,71.303c9.971,0,18.039-8.041,18.039-18.012V17.887c0-9.971-8.068-17.584-18.039-17.584
		h-44.961v130h13v-118h31.961c2.899,0,5.039,2.686,5.039,5.584v35.404c0,2.898-2.14,5.012-5.039,5.012h-23.215l31.515,73.699
		l11.79-5.024l-23.859-55.675H367.634z"/>
	<linearGradient id="SVGID_8_" gradientUnits="userSpaceOnUse" x1="171.6724" y1="66.1523" x2="610.2646" y2="66.1523">
		<stop  offset="0" style="stop-color:#861F91"/>
		<stop  offset="0.2968" style="stop-color:#B553B8"/>
		<stop  offset="0.66" style="stop-color:#32B2C6"/>
		<stop  offset="1" style="stop-color:#23688E"/>
	</linearGradient>
	<path fill="url(#SVGID_8_)" d="M509.755,71.303c9.97,0,17.917-8.041,17.917-18.012V17.887c0-9.971-7.947-17.584-17.917-17.584
		h-45.083v130h13v-118h32.083c2.897,0,4.917,2.686,4.917,5.584v35.404c0,2.898-2.02,5.012-4.917,5.012H486.54l31.515,73.699
		l11.789-5.024l-23.857-55.675H509.755z"/>
	<linearGradient id="SVGID_9_" gradientUnits="userSpaceOnUse" x1="171.6724" y1="66.0293" x2="610.2644" y2="66.0293">
		<stop  offset="0" style="stop-color:#861F91"/>
		<stop  offset="0.2968" style="stop-color:#B553B8"/>
		<stop  offset="0.66" style="stop-color:#32B2C6"/>
		<stop  offset="1" style="stop-color:#23688E"/>
	</linearGradient>
	<path fill="url(#SVGID_9_)" d="M752.668,64.271l-82.083-16.866l18.069,11.897h-80.7l-12.762-47.93C593.37,4.512,587.37,0,580.27,0
		c-7.101,0-13.092,4.656-14.914,11.518l-12.771,48.147l-0.476,1.816l-17.791,67.056l12.396,3.519l16.709-62.753h33.694l16.71,62.756
		l12.395-3.176l-15.83-59.58h78.271l-18.076,11.868L752.668,64.271z M565.85,59.303l11.9-44.641c0.449-1.686,1.768-1.836,2.52-1.836
		c0.751,0,2.07,0.102,2.52,1.787l11.899,44.689H565.85z"/>
	<linearGradient id="SVGID_10_" gradientUnits="userSpaceOnUse" x1="171.6724" y1="66.0361" x2="610.265" y2="66.0361">
		<stop  offset="0" style="stop-color:#861F91"/>
		<stop  offset="0.2968" style="stop-color:#B553B8"/>
		<stop  offset="0.66" style="stop-color:#32B2C6"/>
		<stop  offset="1" style="stop-color:#23688E"/>
	</linearGradient>
	<path fill="url(#SVGID_10_)" d="M201.307,0.093c-7.101,0.001-13.096,4.789-14.916,11.652l-12.835,48.558h-49.959l-22.825-15H68.937
		l12.62,10.002l-1.132,1.398l-14.454-11.4H44.496l12.62,10.002l-1.132,1.398l-14.454-11.4H20.056l12.619,10.002l-1.132,1.398
		l-14.453-11.4H0l20.672,16.296v2.931v2.933L0,83.303h17.09l14.454-11.215l1.132,1.369l-12.62,9.846H41.53l14.454-11.215
		l1.132,1.369l-12.62,9.846H65.97l14.454-11.215l1.132,1.369l-12.62,9.846h31.835l22.825-14h47.529l-15.769,59.34l12.396,3.337
		l16.642-62.677h33.83l16.641,62.629l12.396-3.338L216.226,11.592C214.404,4.729,208.408,0.092,201.307,0.093z M186.823,60.303
		l11.963-45.269c0.448-1.687,1.771-2.028,2.521-2.028c0.75,0,2.074,0.385,2.522,2.072l11.963,45.225H186.823z"/>
</g>
</svg>
