<svg width="130" height="22" viewBox="0 0 130 22" fill="none" xmlns="http://www.w3.org/2000/svg">
<path d="M5.66066 18.0321C5.66066 19.9849 4.71674 20.9193 2.82628 20.9193C1.87974 20.9193 1.15344 20.7015 0.728677 20.1949C0.231422 19.6113 -0.027903 18.8616 0.00238277 18.0951V3.33633C0.00238277 1.4544 0.948926 0.514753 2.76597 0.514753H8.49767C9.59129 0.497472 10.6778 0.693603 11.6965 1.09219C12.5511 1.42566 13.3213 1.94469 13.9514 2.61191C14.5363 3.20765 14.9838 3.92436 15.2624 4.71168C15.547 5.47594 15.6944 6.28456 15.6977 7.10018C15.6842 7.90895 15.5625 8.71226 15.3359 9.48868C15.0647 10.2475 14.6715 10.9567 14.1717 11.5885C13.6401 12.1882 12.9983 12.6801 12.2812 13.0373C11.4883 13.4235 10.617 13.6211 9.73526 13.6147H8.79134C7.04508 13.6147 6.24537 12.8273 6.24537 11.2997C6.24537 10.7197 6.31879 10.3575 6.53641 10.0687C6.73117 9.77796 7.00763 9.55144 7.33088 9.41781C7.65633 9.2786 7.99821 9.18158 8.34822 9.12909C8.71268 9.0556 9.07713 8.98211 9.36818 8.91124C9.6517 8.80845 9.91718 8.6614 10.1548 8.47554C10.2772 8.35281 10.3726 8.20582 10.4349 8.044C10.4972 7.88218 10.5251 7.7091 10.5166 7.53588C10.5166 6.52274 9.93715 6.01617 8.69957 6.01617H5.66066V18.0321V18.0321Z" fill="#34C5EF"/>
<path d="M16.7432 17.9167V3.08699C16.7432 1.19719 17.6993 0.252285 19.6116 0.252285H29.313C29.7102 0.234003 30.1067 0.302477 30.4748 0.452956C30.8429 0.603434 31.1739 0.832312 31.4447 1.12369C31.9206 1.69502 32.1812 2.41531 32.1812 3.15916C32.1812 3.90302 31.9206 4.62331 31.4447 5.19464C30.9203 5.77732 30.2675 6.06867 29.313 6.06867H22.4801V7.81148H27.9234C28.3208 7.793 28.7175 7.86164 29.0857 8.01261C29.4539 8.16358 29.7848 8.39323 30.0551 8.68552C30.5309 9.25684 30.7915 9.97714 30.7915 10.721C30.7915 11.4648 30.5309 12.1851 30.0551 12.7565C29.5307 13.3365 28.8778 13.6279 27.9234 13.6279H22.4801V15.3864H29.3209C29.7181 15.3681 30.1145 15.4366 30.4826 15.5871C30.8507 15.7376 31.1817 15.9665 31.4526 16.2578C31.9285 16.8292 32.1891 17.5495 32.1891 18.2933C32.1891 19.0372 31.9285 19.7575 31.4526 20.3288C30.9282 20.9115 30.2753 21.2028 29.3209 21.2028H19.6195C17.7002 21.1897 16.7432 19.8065 16.7432 17.9167Z" fill="#34C5EF"/>
<path d="M44.1615 18.0873C44.1615 19.0348 43.8678 19.6884 43.2779 20.1871C42.7097 20.6839 41.9735 20.9449 41.2196 20.9167C40.49 20.9315 39.7815 20.671 39.2348 20.1871C38.6448 19.6779 38.3511 19.0243 38.3511 18.0873V6.07655H36.3663C35.9685 6.09489 35.5714 6.02619 35.2028 5.87524C34.8342 5.7243 34.5029 5.49472 34.232 5.20252C33.7576 4.62948 33.498 3.90863 33.498 3.16442C33.498 2.42022 33.7576 1.69936 34.232 1.12633C34.7564 0.543637 35.4093 0.252293 36.3663 0.252293H46.0677C46.4655 0.233956 46.8626 0.302656 47.2312 0.453604C47.5998 0.604553 47.9311 0.834122 48.202 1.12633C48.6763 1.69936 48.9359 2.42022 48.9359 3.16442C48.9359 3.90863 48.6763 4.62948 48.202 5.20252C47.6776 5.78521 47.0247 6.07655 46.0677 6.07655H44.1563V18.0873H44.1615Z" fill="#34C5EF"/>
<path d="M56.1869 18.0322C56.1869 19.9849 55.2404 20.9193 53.3499 20.9193C52.4034 20.9193 51.6771 20.7015 51.2523 20.1949C50.7532 19.6122 50.4928 18.8621 50.5234 18.0951V3.33633C50.5234 1.4544 51.47 0.514754 53.287 0.514754H59.0318C60.1263 0.497199 61.2137 0.693334 62.2333 1.09219C63.0868 1.42631 63.8559 1.94528 64.4856 2.61191C65.0713 3.20696 65.5189 3.92388 65.7966 4.71169C66.082 5.4758 66.2303 6.2844 66.2345 7.10018C66.22 7.90906 66.0975 8.71237 65.87 9.48868C65.5999 10.2479 65.2066 10.9574 64.7058 11.5885C64.1748 12.1888 63.5329 12.6808 62.8154 13.0373C62.0233 13.4232 61.1529 13.6208 60.272 13.6147H59.3255C57.5818 13.6147 56.7821 12.8273 56.7821 11.2997C56.7821 10.7197 56.8529 10.3575 57.0706 10.0687C57.2683 9.7776 57.5474 9.55121 57.8729 9.41781C58.1981 9.27791 58.5401 9.18086 58.8902 9.12909C59.2521 9.0556 59.6165 8.98211 59.9076 8.91124C60.1957 8.80972 60.4657 8.66262 60.7073 8.47554C60.8302 8.35303 60.9261 8.20615 60.9888 8.04432C61.0516 7.88249 61.0798 7.7093 61.0717 7.53589C61.0717 6.52274 60.4897 6.01617 59.2521 6.01617H56.1869V18.0322V18.0322Z" fill="white"/>
<path d="M66.7461 10.4598C66.7473 9.06512 67.0143 7.68344 67.5327 6.38888C68.604 3.86284 70.6169 1.85444 73.1438 0.790351C74.4285 0.237131 75.8176 -0.0314784 77.2157 0.00293447C78.6107 0.00411427 79.9927 0.271352 81.2877 0.790351C83.8096 1.85832 85.8179 3.8659 86.8883 6.38888C87.4458 7.67201 87.7187 9.06092 87.688 10.4598C87.6893 11.856 87.4176 13.239 86.8883 14.5308C85.819 17.0539 83.8102 19.061 81.2877 20.1267C80.004 20.6844 78.6149 20.9575 77.2157 20.9272C75.8193 20.9285 74.436 20.6566 73.1438 20.1267C70.6213 19.0618 68.6131 17.0543 67.5458 14.5308C67.0302 13.2349 66.7591 11.8546 66.7461 10.4598V10.4598ZM72.4909 10.5307C72.4914 11.1549 72.6144 11.7729 72.8527 12.3496C73.0883 12.9208 73.4346 13.4397 73.8716 13.8762C74.3086 14.3127 74.8276 14.6583 75.3987 14.893C75.9769 15.1251 76.5928 15.2488 77.2157 15.2578C77.8625 15.249 78.5025 15.1255 79.1062 14.893C79.6823 14.6661 80.2034 14.3189 80.6348 13.8746C81.0549 13.4253 81.3985 12.9101 81.6522 12.3496C81.8843 11.7709 82.0079 11.1543 82.0166 10.5307C82.0076 9.88415 81.8842 9.24433 81.6522 8.6409C81.4255 8.06582 81.0786 7.54589 80.6348 7.11593C80.1848 6.69452 79.6683 6.35042 79.1062 6.09754C78.5025 5.86504 77.8625 5.74152 77.2157 5.7327C76.5921 5.73435 75.9748 5.8583 75.3987 6.09754C74.8276 6.3322 74.3086 6.67778 73.8716 7.11431C73.4346 7.55084 73.0883 8.06968 72.8527 8.6409C72.6216 9.24449 72.4991 9.88431 72.4909 10.5307Z" fill="white"/>
<path d="M77.1863 13.7699C77.7608 13.7694 78.3223 13.5984 78.7997 13.2785C79.2771 12.9586 79.6491 12.5042 79.8686 11.9727C80.0881 11.4413 80.1453 10.8566 80.0329 10.2926C79.9205 9.72858 79.6435 9.2106 79.2371 8.80413C78.8307 8.39765 78.313 8.12092 77.7495 8.00891C77.186 7.8969 76.602 7.95465 76.0712 8.17485C75.5405 8.39506 75.0869 8.76783 74.7678 9.24605C74.4487 9.72427 74.2783 10.2865 74.2783 10.8616C74.2783 11.2437 74.3536 11.6221 74.4997 11.9752C74.6459 12.3282 74.8601 12.6489 75.1302 12.919C75.4003 13.1891 75.7209 13.4033 76.0737 13.5493C76.4264 13.6953 76.8045 13.7703 77.1863 13.7699V13.7699Z" fill="#34C5EF"/>
<path d="M95.2779 17.8432C95.2779 18.7828 94.9869 19.4337 94.4048 19.9429C93.8625 20.4233 93.1596 20.6819 92.4357 20.6674C91.6877 20.694 90.9575 20.4351 90.3932 19.9429C89.8111 19.4364 89.52 18.7854 89.52 17.8432V3.07647C89.52 2.1342 89.8111 1.48327 90.3932 0.976697C90.9575 0.48456 91.6877 0.225592 92.4357 0.252271C93.1596 0.23775 93.8625 0.496349 94.4048 0.976697C94.9869 1.48327 95.2779 2.1342 95.2779 3.07647V17.8432Z" fill="white"/>
<path d="M103.081 18.0768C103.081 19.0269 102.792 19.6857 102.213 20.1949C101.658 20.6907 100.934 20.9531 100.191 20.9272C99.4715 20.9407 98.7738 20.6788 98.2404 20.1949C97.661 19.6857 97.3726 19.0269 97.3726 18.0768V3.17361C97.3726 2.22346 97.661 1.56728 98.2404 1.05546C98.7741 0.572337 99.4718 0.311349 100.191 0.325789H100.335C100.778 0.30155 101.218 0.405835 101.603 0.626089C101.987 0.846343 102.3 1.17318 102.504 1.56729L107.632 9.38371V3.10012C107.632 2.1526 107.923 1.49379 108.5 0.98197C109.034 0.498846 109.732 0.237857 110.451 0.252297C111.195 0.225076 111.92 0.486507 112.475 0.98197C113.052 1.49379 113.341 2.1526 113.341 3.10012V18.0112C113.341 18.9613 113.052 19.6201 112.475 20.1319C111.919 20.626 111.194 20.8872 110.451 20.8616C110.109 20.8541 109.769 20.8048 109.439 20.7146C109.178 20.6381 108.934 20.5145 108.718 20.3498C108.538 20.2427 108.389 20.0919 108.283 19.9115C108.166 19.808 108.068 19.6845 107.994 19.5466L103.081 12.095V18.0847V18.0768Z" fill="white"/>
<path d="M125.059 18.0873C125.059 19.0348 124.765 19.6883 124.175 20.187C123.607 20.6839 122.871 20.9449 122.117 20.9167C121.387 20.9314 120.679 20.671 120.132 20.187C119.542 19.6778 119.249 19.0243 119.249 18.0873V6.07654H117.264C116.866 6.09487 116.469 6.02618 116.1 5.87523C115.732 5.72428 115.4 5.49471 115.129 5.2025C114.655 4.62947 114.396 3.90861 114.396 3.16441C114.396 2.4202 114.655 1.69935 115.129 1.12631C115.654 0.543623 116.307 0.252278 117.264 0.252278H126.965C127.363 0.233584 127.76 0.302119 128.129 0.453089C128.497 0.60406 128.829 0.833823 129.099 1.12631C129.574 1.69935 129.833 2.4202 129.833 3.16441C129.833 3.90861 129.574 4.62947 129.099 5.2025C128.829 5.49499 128.497 5.72476 128.129 5.87573C127.76 6.0267 127.363 6.09523 126.965 6.07654H125.059V18.0873Z" fill="white"/>
</svg>
